# MagicaVoxel @ Ephtracy

# group
o 

# material
mtllib 6A_1_Stamp.mtl
usemtl palette

# normals
vn -1 0 0
vn 1 0 0
vn 0 0 1
vn 0 0 -1
vn 0 -1 0
vn 0 1 0

# texcoords
vt 0.0253906 0.5
vt 0.0566406 0.5
vt 0.248047 0.5
vt 0.310547 0.5
vt 0.416016 0.5
vt 0.423828 0.5
vt 0.955078 0.5

# verts
v -1.4 3.5 1.5
v -1.4 3.5 1.4
v -1.4 3.5 1.3
v -1.4 6.1 1.5
v -1.4 6.1 1.4
v -1.4 6.1 1.3
v -1.1 4.6 1.5
v -1.1 4.6 1.4
v -1.1 5 1.7
v -1.1 5 1.5
v -1.1 5.4 1.7
v -1.1 5.4 1.4
v -0.9 3.8 1.7
v -0.9 3.8 1.4
v -0.9 4.6 1.8
v -0.9 4.6 1.7
v -0.9 4.6 1.5
v -0.9 4.6 1.4
v -0.9 4.8 1.8
v -0.9 4.8 1.7
v -0.9 5 1.7
v -0.9 5 1.5
v -0.9 5.2 1.8
v -0.9 5.2 1.7
v -0.9 5.4 1.8
v -0.9 5.4 1.7
v -0.9 5.4 1.4
v -0.9 5.6 1.7
v -0.9 5.6 1.4
v -0.7 5 1.8
v -0.7 5 1.7
v -0.7 5.2 1.8
v -0.7 5.2 1.7
v -0.7 5.6 1.5
v -0.7 5.6 1.4
v -0.7 5.8 1.5
v -0.7 5.8 1.4
v -0.3 4.2 1.8
v -0.3 4.2 1.7
v -0.3 4.6 1.8
v -0.3 4.6 1.7
v -0.1 4.8 1.8
v -0.1 4.8 1.7
v -0.1 5 1.8
v -0.1 5 1.7
v -0.1 5.2 1.9
v -0.1 5.2 1.8
v -0.1 5.4 1.8
v -0.1 5.4 1.7
v -0.1 5.6 1.9
v -0.1 5.6 1.7
v 0.1 4.6 1.8
v 0.1 4.6 1.7
v 0.1 4.8 1.8
v 0.1 4.8 1.7
v 1 3.7 1.5
v 1 3.7 1.4
v 1 5.9 1.5
v 1 5.9 1.4
v -1.2 3.7 1.5
v -1.2 3.7 1.4
v -1.2 5.9 1.5
v -1.2 5.9 1.4
v -0.3 4.6 1.8
v -0.3 4.6 1.7
v -0.3 4.8 1.8
v -0.3 4.8 1.7
v 0.1 4.2 1.8
v 0.1 4.2 1.7
v 0.1 4.6 1.8
v 0.1 4.6 1.7
v 0.3 5.6 1.5
v 0.3 5.6 1.4
v 0.3 5.8 1.5
v 0.3 5.8 1.4
v 0.5 4.8 1.8
v 0.5 4.8 1.7
v 0.5 5 1.8
v 0.5 5 1.7
v 0.5 5.2 1.9
v 0.5 5.2 1.8
v 0.5 5.4 1.8
v 0.5 5.4 1.5
v 0.5 5.6 1.9
v 0.5 5.6 1.5
v 0.7 3.8 1.7
v 0.7 3.8 1.4
v 0.7 4.6 1.8
v 0.7 4.6 1.7
v 0.7 4.6 1.5
v 0.7 4.6 1.4
v 0.7 4.8 1.8
v 0.7 4.8 1.7
v 0.7 5 1.8
v 0.7 5 1.7
v 0.7 5.2 1.7
v 0.7 5.2 1.5
v 0.7 5.4 1.8
v 0.7 5.4 1.7
v 0.7 5.4 1.5
v 0.7 5.4 1.4
v 0.7 5.6 1.5
v 0.7 5.6 1.4
v 0.9 4.6 1.5
v 0.9 4.6 1.4
v 0.9 5.2 1.7
v 0.9 5.2 1.5
v 0.9 5.4 1.7
v 0.9 5.4 1.4
v 1.2 3.5 1.5
v 1.2 3.5 1.4
v 1.2 3.5 1.3
v 1.2 6.1 1.5
v 1.2 6.1 1.4
v 1.2 6.1 1.3
v -0.1 5.2 1.9
v -0.1 5.6 1.9
v 0.5 5.2 1.9
v 0.5 5.6 1.9
v -0.9 4.6 1.8
v -0.9 4.8 1.8
v -0.9 5.2 1.8
v -0.9 5.4 1.8
v -0.7 5 1.8
v -0.7 5.2 1.8
v -0.3 4.2 1.8
v -0.3 4.6 1.8
v -0.3 4.8 1.8
v -0.1 4.8 1.8
v -0.1 5 1.8
v -0.1 5.2 1.8
v -0.1 5.4 1.8
v 0.1 4.2 1.8
v 0.1 4.6 1.8
v 0.1 4.8 1.8
v 0.5 4.8 1.8
v 0.5 5 1.8
v 0.5 5.2 1.8
v 0.5 5.4 1.8
v 0.7 4.6 1.8
v 0.7 4.8 1.8
v 0.7 5 1.8
v 0.7 5.4 1.8
v -1.1 5 1.7
v -1.1 5.4 1.7
v -0.9 3.8 1.7
v -0.9 4.6 1.7
v -0.9 4.8 1.7
v -0.9 5 1.7
v -0.9 5.2 1.7
v -0.9 5.4 1.7
v -0.9 5.6 1.7
v -0.7 4.2 1.7
v -0.7 4.6 1.7
v -0.7 5 1.7
v -0.7 5.2 1.7
v -0.5 4.2 1.7
v -0.5 4.6 1.7
v -0.3 4.2 1.7
v -0.3 4.6 1.7
v -0.3 4.8 1.7
v -0.1 4.8 1.7
v -0.1 5 1.7
v -0.1 5.4 1.7
v -0.1 5.6 1.7
v 0.1 4.2 1.7
v 0.1 4.6 1.7
v 0.1 4.8 1.7
v 0.3 4.2 1.7
v 0.3 4.6 1.7
v 0.5 4.2 1.7
v 0.5 4.6 1.7
v 0.5 4.8 1.7
v 0.5 5 1.7
v 0.7 3.8 1.7
v 0.7 4.6 1.7
v 0.7 4.8 1.7
v 0.7 5 1.7
v 0.7 5.2 1.7
v 0.7 5.4 1.7
v 0.9 5.2 1.7
v 0.9 5.4 1.7
v -1.4 3.5 1.5
v -1.4 6.1 1.5
v -1.2 3.7 1.5
v -1.2 5.9 1.5
v -1.1 4.6 1.5
v -1.1 5 1.5
v -0.9 4.6 1.5
v -0.9 5 1.5
v -0.7 5.6 1.5
v -0.7 5.8 1.5
v 0.3 5.6 1.5
v 0.3 5.8 1.5
v 0.5 5.4 1.5
v 0.5 5.6 1.5
v 0.7 4.6 1.5
v 0.7 5.2 1.5
v 0.7 5.4 1.5
v 0.7 5.6 1.5
v 0.9 4.6 1.5
v 0.9 5.2 1.5
v 1 3.7 1.5
v 1 5.9 1.5
v 1.2 3.5 1.5
v 1.2 6.1 1.5
v -1.2 3.7 1.4
v -1.2 5.9 1.4
v -1.1 4.6 1.4
v -1.1 5.4 1.4
v -0.9 3.8 1.4
v -0.9 4.6 1.4
v -0.9 5.4 1.4
v -0.9 5.6 1.4
v -0.7 5.6 1.4
v -0.7 5.8 1.4
v 0.3 5.6 1.4
v 0.3 5.8 1.4
v 0.7 3.8 1.4
v 0.7 4.6 1.4
v 0.7 5.4 1.4
v 0.7 5.6 1.4
v 0.9 4.6 1.4
v 0.9 5.4 1.4
v 1 3.7 1.4
v 1 5.9 1.4
v -1.4 3.5 1.3
v -1.4 6.1 1.3
v 1.2 3.5 1.3
v 1.2 6.1 1.3
v -1.4 3.5 1.5
v 1.2 3.5 1.5
v -1.4 3.5 1.4
v 1.2 3.5 1.4
v -1.4 3.5 1.3
v 1.2 3.5 1.3
v -0.9 3.8 1.7
v 0.7 3.8 1.7
v -0.9 3.8 1.4
v 0.7 3.8 1.4
v -0.3 4.2 1.8
v 0.1 4.2 1.8
v -0.3 4.2 1.7
v 0.1 4.2 1.7
v -0.9 4.6 1.8
v -0.3 4.6 1.8
v 0.1 4.6 1.8
v 0.7 4.6 1.8
v -0.9 4.6 1.7
v -0.7 4.6 1.7
v -0.5 4.6 1.7
v -0.3 4.6 1.7
v 0.1 4.6 1.7
v 0.3 4.6 1.7
v 0.5 4.6 1.7
v 0.7 4.6 1.7
v -1.1 4.6 1.5
v -0.9 4.6 1.5
v 0.7 4.6 1.5
v 0.9 4.6 1.5
v -1.1 4.6 1.4
v -0.9 4.6 1.4
v 0.7 4.6 1.4
v 0.9 4.6 1.4
v -0.1 4.8 1.8
v 0.1 4.8 1.8
v -0.1 4.8 1.7
v 0.1 4.8 1.7
v -0.7 5 1.8
v -0.1 5 1.8
v 0.5 5 1.8
v 0.7 5 1.8
v -1.1 5 1.7
v -0.9 5 1.7
v -0.7 5 1.7
v -0.1 5 1.7
v 0.5 5 1.7
v 0.7 5 1.7
v -1.1 5 1.5
v -0.9 5 1.5
v -0.1 5.2 1.9
v 0.5 5.2 1.9
v -0.9 5.2 1.8
v -0.7 5.2 1.8
v -0.1 5.2 1.8
v 0.5 5.2 1.8
v -0.9 5.2 1.7
v -0.7 5.2 1.7
v 0.7 5.2 1.7
v 0.9 5.2 1.7
v 0.7 5.2 1.5
v 0.9 5.2 1.5
v -1.2 5.9 1.5
v 1 5.9 1.5
v -1.2 5.9 1.4
v 1 5.9 1.4
v -1.2 3.7 1.5
v 1 3.7 1.5
v -1.2 3.7 1.4
v 1 3.7 1.4
v -0.3 4.6 1.8
v 0.1 4.6 1.8
v -0.3 4.6 1.7
v 0.1 4.6 1.7
v -0.9 4.8 1.8
v -0.3 4.8 1.8
v 0.5 4.8 1.8
v 0.7 4.8 1.8
v -0.9 4.8 1.7
v -0.3 4.8 1.7
v 0.5 4.8 1.7
v 0.7 4.8 1.7
v -0.9 5.4 1.8
v -0.1 5.4 1.8
v 0.5 5.4 1.8
v 0.7 5.4 1.8
v -1.1 5.4 1.7
v -0.9 5.4 1.7
v -0.1 5.4 1.7
v 0.7 5.4 1.7
v 0.9 5.4 1.7
v 0.5 5.4 1.5
v 0.7 5.4 1.5
v -1.1 5.4 1.4
v -0.9 5.4 1.4
v 0.7 5.4 1.4
v 0.9 5.4 1.4
v -0.1 5.6 1.9
v 0.5 5.6 1.9
v -0.9 5.6 1.7
v -0.1 5.6 1.7
v -0.7 5.6 1.5
v 0.3 5.6 1.5
v 0.5 5.6 1.5
v 0.7 5.6 1.5
v -0.9 5.6 1.4
v -0.7 5.6 1.4
v 0.3 5.6 1.4
v 0.7 5.6 1.4
v -0.7 5.8 1.5
v 0.3 5.8 1.5
v -0.7 5.8 1.4
v 0.3 5.8 1.4
v -1.4 6.1 1.5
v 1.2 6.1 1.5
v -1.4 6.1 1.4
v 1.2 6.1 1.4
v -1.4 6.1 1.3
v 1.2 6.1 1.3

# faces
f 4/6/1 2/6/1 1/6/1
f 5/7/1 3/7/1 2/7/1
f 5/6/1 2/6/1 4/6/1
f 6/7/1 3/7/1 5/7/1
f 10/2/1 8/2/1 7/2/1
f 11/2/1 10/2/1 9/2/1
f 12/2/1 8/2/1 10/2/1
f 12/2/1 10/2/1 11/2/1
f 16/5/1 14/5/1 13/5/1
f 17/5/1 14/5/1 16/5/1
f 18/5/1 14/5/1 17/5/1
f 19/1/1 16/1/1 15/1/1
f 20/5/1 17/5/1 16/5/1
f 20/1/1 16/1/1 19/1/1
f 21/5/1 17/5/1 20/5/1
f 22/5/1 17/5/1 21/5/1
f 25/2/1 24/2/1 23/2/1
f 26/2/1 24/2/1 25/2/1
f 28/2/1 27/2/1 26/2/1
f 29/2/1 27/2/1 28/2/1
f 32/2/1 31/2/1 30/2/1
f 33/2/1 31/2/1 32/2/1
f 36/2/1 35/2/1 34/2/1
f 37/2/1 35/2/1 36/2/1
f 40/3/1 39/3/1 38/3/1
f 41/3/1 39/3/1 40/3/1
f 44/2/1 43/2/1 42/2/1
f 45/2/1 43/2/1 44/2/1
f 48/2/1 47/2/1 46/2/1
f 50/2/1 48/2/1 46/2/1
f 50/2/1 49/2/1 48/2/1
f 51/2/1 49/2/1 50/2/1
f 54/1/1 53/1/1 52/1/1
f 55/1/1 53/1/1 54/1/1
f 58/6/1 57/6/1 56/6/1
f 59/6/1 57/6/1 58/6/1
f 60/6/2 61/6/2 62/6/2
f 62/6/2 61/6/2 63/6/2
f 64/1/2 65/1/2 66/1/2
f 66/1/2 65/1/2 67/1/2
f 68/3/2 69/3/2 70/3/2
f 70/3/2 69/3/2 71/3/2
f 72/2/2 73/2/2 74/2/2
f 74/2/2 73/2/2 75/2/2
f 76/2/2 77/2/2 78/2/2
f 78/2/2 77/2/2 79/2/2
f 80/2/2 81/2/2 82/2/2
f 80/2/2 82/2/2 84/2/2
f 82/2/2 83/2/2 84/2/2
f 84/2/2 83/2/2 85/2/2
f 86/5/2 87/5/2 89/5/2
f 89/5/2 87/5/2 90/5/2
f 90/5/2 87/5/2 91/5/2
f 88/1/2 89/1/2 92/1/2
f 89/5/2 90/5/2 93/5/2
f 92/1/2 89/1/2 93/1/2
f 93/5/2 90/5/2 95/5/2
f 95/5/2 90/5/2 96/5/2
f 94/2/2 95/2/2 96/2/2
f 96/5/2 90/5/2 97/5/2
f 94/2/2 96/2/2 98/2/2
f 98/2/2 96/2/2 99/2/2
f 100/2/2 101/2/2 102/2/2
f 102/2/2 101/2/2 103/2/2
f 104/2/2 105/2/2 107/2/2
f 106/2/2 107/2/2 108/2/2
f 107/2/2 105/2/2 109/2/2
f 108/2/2 107/2/2 109/2/2
f 110/6/2 111/6/2 113/6/2
f 111/7/2 112/7/2 114/7/2
f 113/6/2 111/6/2 114/6/2
f 114/7/2 112/7/2 115/7/2
f 118/2/3 117/2/3 116/2/3
f 119/2/3 117/2/3 118/2/3
f 125/2/3 123/2/3 122/2/3
f 127/1/3 121/1/3 120/1/3
f 128/1/3 121/1/3 127/1/3
f 130/2/3 125/2/3 124/2/3
f 131/2/3 123/2/3 125/2/3
f 131/2/3 125/2/3 130/2/3
f 132/2/3 123/2/3 131/2/3
f 133/3/3 127/3/3 126/3/3
f 134/3/3 127/3/3 133/3/3
f 135/2/3 130/2/3 129/2/3
f 135/2/3 131/2/3 130/2/3
f 136/1/3 135/1/3 134/1/3
f 136/2/3 131/2/3 135/2/3
f 137/2/3 131/2/3 136/2/3
f 138/2/3 131/2/3 137/2/3
f 140/1/3 136/1/3 134/1/3
f 141/1/3 136/1/3 140/1/3
f 142/2/3 139/2/3 138/2/3
f 142/2/3 138/2/3 137/2/3
f 143/2/3 139/2/3 142/2/3
f 149/2/3 145/2/3 144/2/3
f 150/2/3 145/2/3 149/2/3
f 151/2/3 145/2/3 150/2/3
f 153/5/3 147/5/3 146/5/3
f 154/5/3 147/5/3 153/5/3
f 155/5/3 149/5/3 148/5/3
f 155/5/3 150/5/3 149/5/3
f 156/5/3 150/5/3 155/5/3
f 157/4/3 154/4/3 153/4/3
f 157/5/3 153/5/3 146/5/3
f 158/4/3 154/4/3 157/4/3
f 159/5/3 157/5/3 146/5/3
f 159/5/3 158/5/3 157/5/3
f 160/5/3 158/5/3 159/5/3
f 161/5/3 155/5/3 148/5/3
f 162/5/3 161/5/3 160/5/3
f 162/5/3 155/5/3 161/5/3
f 163/5/3 155/5/3 162/5/3
f 164/2/3 152/2/3 151/2/3
f 165/2/3 152/2/3 164/2/3
f 166/5/3 159/5/3 146/5/3
f 167/5/3 162/5/3 160/5/3
f 168/5/3 162/5/3 167/5/3
f 169/5/3 166/5/3 146/5/3
f 169/5/3 167/5/3 166/5/3
f 170/5/3 167/5/3 169/5/3
f 171/5/3 169/5/3 146/5/3
f 171/4/3 170/4/3 169/4/3
f 172/4/3 170/4/3 171/4/3
f 175/5/3 171/5/3 146/5/3
f 175/5/3 172/5/3 171/5/3
f 176/5/3 172/5/3 175/5/3
f 177/5/3 174/5/3 173/5/3
f 178/5/3 174/5/3 177/5/3
f 181/2/3 180/2/3 179/2/3
f 182/2/3 180/2/3 181/2/3
f 185/6/3 184/6/3 183/6/3
f 186/6/3 184/6/3 185/6/3
f 189/2/3 188/2/3 187/2/3
f 190/2/3 188/2/3 189/2/3
f 193/2/3 192/2/3 191/2/3
f 194/2/3 192/2/3 193/2/3
f 199/2/3 196/2/3 195/2/3
f 200/2/3 196/2/3 199/2/3
f 201/2/3 198/2/3 197/2/3
f 202/2/3 198/2/3 201/2/3
f 203/6/3 185/6/3 183/6/3
f 204/6/3 184/6/3 186/6/3
f 205/6/3 203/6/3 183/6/3
f 205/6/3 204/6/3 203/6/3
f 206/6/3 184/6/3 204/6/3
f 206/6/3 204/6/3 205/6/3
f 209/7/3 208/7/3 207/7/3
f 210/7/3 208/7/3 209/7/3
f 211/7/3 209/7/3 207/7/3
f 212/7/3 209/7/3 211/7/3
f 213/7/3 208/7/3 210/7/3
f 214/7/3 208/7/3 213/7/3
f 215/7/3 208/7/3 214/7/3
f 216/7/3 208/7/3 215/7/3
f 218/7/3 208/7/3 216/7/3
f 219/7/3 211/7/3 207/7/3
f 222/7/3 218/7/3 217/7/3
f 223/7/3 220/7/3 219/7/3
f 224/7/3 222/7/3 221/7/3
f 225/7/3 223/7/3 219/7/3
f 225/7/3 224/7/3 223/7/3
f 225/7/3 219/7/3 207/7/3
f 226/7/3 222/7/3 224/7/3
f 226/7/3 224/7/3 225/7/3
f 226/7/3 208/7/3 218/7/3
f 226/7/3 218/7/3 222/7/3
f 227/7/4 228/7/4 229/7/4
f 229/7/4 228/7/4 230/7/4
f 233/6/5 232/6/5 231/6/5
f 234/6/5 232/6/5 233/6/5
f 235/7/5 234/7/5 233/7/5
f 236/7/5 234/7/5 235/7/5
f 239/5/5 238/5/5 237/5/5
f 240/5/5 238/5/5 239/5/5
f 243/3/5 242/3/5 241/3/5
f 244/3/5 242/3/5 243/3/5
f 249/1/5 246/1/5 245/1/5
f 250/1/5 246/1/5 249/1/5
f 251/1/5 246/1/5 250/1/5
f 252/1/5 246/1/5 251/1/5
f 253/1/5 248/1/5 247/1/5
f 254/1/5 248/1/5 253/1/5
f 255/1/5 248/1/5 254/1/5
f 256/1/5 248/1/5 255/1/5
f 261/2/5 258/2/5 257/2/5
f 262/2/5 258/2/5 261/2/5
f 263/2/5 260/2/5 259/2/5
f 264/2/5 260/2/5 263/2/5
f 267/2/5 266/2/5 265/2/5
f 268/2/5 266/2/5 267/2/5
f 275/2/5 270/2/5 269/2/5
f 276/2/5 270/2/5 275/2/5
f 277/2/5 272/2/5 271/2/5
f 278/2/5 272/2/5 277/2/5
f 279/2/5 274/2/5 273/2/5
f 280/2/5 274/2/5 279/2/5
f 285/2/5 282/2/5 281/2/5
f 286/2/5 282/2/5 285/2/5
f 287/2/5 284/2/5 283/2/5
f 288/2/5 284/2/5 287/2/5
f 291/2/5 290/2/5 289/2/5
f 292/2/5 290/2/5 291/2/5
f 295/6/5 294/6/5 293/6/5
f 296/6/5 294/6/5 295/6/5
f 297/6/6 298/6/6 299/6/6
f 299/6/6 298/6/6 300/6/6
f 301/3/6 302/3/6 303/3/6
f 303/3/6 302/3/6 304/3/6
f 305/1/6 306/1/6 309/1/6
f 309/1/6 306/1/6 310/1/6
f 307/1/6 308/1/6 311/1/6
f 311/1/6 308/1/6 312/1/6
f 313/2/6 314/2/6 318/2/6
f 318/2/6 314/2/6 319/2/6
f 315/2/6 316/2/6 320/2/6
f 320/2/6 321/2/6 322/2/6
f 315/2/6 320/2/6 322/2/6
f 322/2/6 321/2/6 323/2/6
f 317/2/6 318/2/6 324/2/6
f 324/2/6 318/2/6 325/2/6
f 323/2/6 321/2/6 326/2/6
f 326/2/6 321/2/6 327/2/6
f 328/2/6 329/2/6 331/2/6
f 330/2/6 331/2/6 332/2/6
f 331/2/6 329/2/6 333/2/6
f 332/2/6 331/2/6 333/2/6
f 333/2/6 329/2/6 334/2/6
f 330/2/6 332/2/6 336/2/6
f 336/2/6 332/2/6 337/2/6
f 334/2/6 335/2/6 338/2/6
f 333/2/6 334/2/6 338/2/6
f 338/2/6 335/2/6 339/2/6
f 340/2/6 341/2/6 342/2/6
f 342/2/6 341/2/6 343/2/6
f 344/6/6 345/6/6 346/6/6
f 346/6/6 345/6/6 347/6/6
f 346/7/6 347/7/6 348/7/6
f 348/7/6 347/7/6 349/7/6
