# MagicaVoxel @ Ephtracy

# group
o 

# material
mtllib ClothArrow_Dark.mtl
usemtl palette

# normals
vn -1 0 0
vn 1 0 0
vn 0 0 1
vn 0 0 -1
vn 0 -1 0
vn 0 1 0

# texcoords
vt 0.583984 0.5
vt 0.615234 0.5
vt 0.677734 0.5
vt 0.708984 0.5

# verts
v 0 0.2 0.1
v 0 0.2 -0.1
v 0 0.3 0.2
v 0 0.3 0.1
v 0 0.3 0
v 0 0.3 -0.1
v 0 0.3 -0.2
v 0 0.4 0.3
v 0 0.4 0.2
v 0 0.4 0.1
v 0 0.4 0
v 0 0.4 -0.1
v 0 0.4 -0.2
v 0 0.4 -0.3
v 0 0.5 0.4
v 0 0.5 0.3
v 0 0.5 0.2
v 0 0.5 0.1
v 0 0.5 -0.1
v 0 0.5 -0.2
v 0 0.5 -0.3
v 0 0.5 -0.4
v 0 0.6 0.5
v 0 0.6 0.4
v 0 0.6 0.3
v 0 0.6 0.2
v 0 0.6 -0.2
v 0 0.6 -0.3
v 0 0.6 -0.4
v 0 0.6 -0.5
v 0 0.7 0.6
v 0 0.7 0.5
v 0 0.7 0.4
v 0 0.7 0.3
v 0 0.7 0.2
v 0 0.7 0.1
v 0 0.7 -0.1
v 0 0.7 -0.2
v 0 0.7 -0.3
v 0 0.7 -0.4
v 0 0.7 -0.5
v 0 0.7 -0.6
v 0 0.8 0.7
v 0 0.8 0.6
v 0 0.8 0.5
v 0 0.8 0.4
v 0 0.8 0.3
v 0 0.8 0.2
v 0 0.8 0.1
v 0 0.8 -0.1
v 0 0.8 -0.2
v 0 0.8 -0.3
v 0 0.8 -0.4
v 0 0.8 -0.5
v 0 0.8 -0.6
v 0 0.8 -0.7
v 0 0.9 0.6
v 0 0.9 0.5
v 0 0.9 0.4
v 0 0.9 0.3
v 0 0.9 0.2
v 0 0.9 0.1
v 0 0.9 -0.1
v 0 0.9 -0.2
v 0 0.9 -0.3
v 0 0.9 -0.4
v 0 0.9 -0.5
v 0 0.9 -0.6
v 0 1 0.5
v 0 1 0.4
v 0 1 0.3
v 0 1 0.2
v 0 1 -0.2
v 0 1 -0.3
v 0 1 -0.4
v 0 1 -0.5
v 0 1.1 0.6
v 0 1.1 0.5
v 0 1.1 0.4
v 0 1.1 0.3
v 0 1.1 -0.3
v 0 1.1 -0.4
v 0 1.1 -0.5
v 0 1.1 -0.6
v 0 1.2 0.6
v 0 1.2 0.5
v 0 1.2 0.4
v 0 1.2 -0.4
v 0 1.2 -0.5
v 0 1.2 -0.6
v 0 1.3 0.7
v 0 1.3 0.5
v 0 1.3 -0.5
v 0 1.3 -0.7
v 0.1 0.2 0.1
v 0.1 0.2 -0.1
v 0.1 0.3 0.2
v 0.1 0.3 0.1
v 0.1 0.3 0
v 0.1 0.3 -0.1
v 0.1 0.3 -0.2
v 0.1 0.4 0.3
v 0.1 0.4 0.2
v 0.1 0.4 0.1
v 0.1 0.4 0
v 0.1 0.4 -0.1
v 0.1 0.4 -0.2
v 0.1 0.4 -0.3
v 0.1 0.5 0.4
v 0.1 0.5 0.3
v 0.1 0.5 0.2
v 0.1 0.5 0.1
v 0.1 0.5 -0.1
v 0.1 0.5 -0.2
v 0.1 0.5 -0.3
v 0.1 0.5 -0.4
v 0.1 0.6 0.5
v 0.1 0.6 0.4
v 0.1 0.6 0.3
v 0.1 0.6 0.2
v 0.1 0.6 -0.2
v 0.1 0.6 -0.3
v 0.1 0.6 -0.4
v 0.1 0.6 -0.5
v 0.1 0.7 0.6
v 0.1 0.7 0.5
v 0.1 0.7 0.4
v 0.1 0.7 0.3
v 0.1 0.7 0.2
v 0.1 0.7 0.1
v 0.1 0.7 -0.1
v 0.1 0.7 -0.2
v 0.1 0.7 -0.3
v 0.1 0.7 -0.4
v 0.1 0.7 -0.5
v 0.1 0.7 -0.6
v 0.1 0.8 0.7
v 0.1 0.8 0.6
v 0.1 0.8 0.5
v 0.1 0.8 0.4
v 0.1 0.8 0.3
v 0.1 0.8 0.2
v 0.1 0.8 0.1
v 0.1 0.8 -0.1
v 0.1 0.8 -0.2
v 0.1 0.8 -0.3
v 0.1 0.8 -0.4
v 0.1 0.8 -0.5
v 0.1 0.8 -0.6
v 0.1 0.8 -0.7
v 0.1 0.9 0.6
v 0.1 0.9 0.5
v 0.1 0.9 0.4
v 0.1 0.9 0.3
v 0.1 0.9 0.2
v 0.1 0.9 0.1
v 0.1 0.9 -0.1
v 0.1 0.9 -0.2
v 0.1 0.9 -0.3
v 0.1 0.9 -0.4
v 0.1 0.9 -0.5
v 0.1 0.9 -0.6
v 0.1 1 0.5
v 0.1 1 0.4
v 0.1 1 0.3
v 0.1 1 0.2
v 0.1 1 -0.2
v 0.1 1 -0.3
v 0.1 1 -0.4
v 0.1 1 -0.5
v 0.1 1.1 0.6
v 0.1 1.1 0.5
v 0.1 1.1 0.4
v 0.1 1.1 0.3
v 0.1 1.1 -0.3
v 0.1 1.1 -0.4
v 0.1 1.1 -0.5
v 0.1 1.1 -0.6
v 0.1 1.2 0.6
v 0.1 1.2 0.5
v 0.1 1.2 0.4
v 0.1 1.2 -0.4
v 0.1 1.2 -0.5
v 0.1 1.2 -0.6
v 0.1 1.3 0.7
v 0.1 1.3 0.5
v 0.1 1.3 -0.5
v 0.1 1.3 -0.7
v 0 0.8 0.7
v 0 1.3 0.7
v 0.1 0.8 0.7
v 0.1 1.3 0.7
v 0 0.7 0.6
v 0 0.8 0.6
v 0.1 0.7 0.6
v 0.1 0.8 0.6
v 0 0.6 0.5
v 0 0.7 0.5
v 0.1 0.6 0.5
v 0.1 0.7 0.5
v 0 0.5 0.4
v 0 0.6 0.4
v 0.1 0.5 0.4
v 0.1 0.6 0.4
v 0 0.4 0.3
v 0 0.5 0.3
v 0.1 0.4 0.3
v 0.1 0.5 0.3
v 0 0.3 0.2
v 0 0.4 0.2
v 0.1 0.3 0.2
v 0.1 0.4 0.2
v 0 0.2 0.1
v 0 0.3 0.1
v 0.1 0.2 0.1
v 0.1 0.3 0.1
v 0 0.8 -0.1
v 0 0.9 -0.1
v 0.1 0.8 -0.1
v 0.1 0.9 -0.1
v 0 0.9 -0.2
v 0 1 -0.2
v 0.1 0.9 -0.2
v 0.1 1 -0.2
v 0 1 -0.3
v 0 1.1 -0.3
v 0.1 1 -0.3
v 0.1 1.1 -0.3
v 0 1.1 -0.4
v 0 1.2 -0.4
v 0.1 1.1 -0.4
v 0.1 1.2 -0.4
v 0 1.2 -0.5
v 0 1.3 -0.5
v 0.1 1.2 -0.5
v 0.1 1.3 -0.5
v 0 1.2 0.5
v 0 1.3 0.5
v 0.1 1.2 0.5
v 0.1 1.3 0.5
v 0 1.1 0.4
v 0 1.2 0.4
v 0.1 1.1 0.4
v 0.1 1.2 0.4
v 0 1 0.3
v 0 1.1 0.3
v 0.1 1 0.3
v 0.1 1.1 0.3
v 0 0.9 0.2
v 0 1 0.2
v 0.1 0.9 0.2
v 0.1 1 0.2
v 0 0.8 0.1
v 0 0.9 0.1
v 0.1 0.8 0.1
v 0.1 0.9 0.1
v 0 0.2 -0.1
v 0 0.3 -0.1
v 0.1 0.2 -0.1
v 0.1 0.3 -0.1
v 0 0.3 -0.2
v 0 0.4 -0.2
v 0.1 0.3 -0.2
v 0.1 0.4 -0.2
v 0 0.4 -0.3
v 0 0.5 -0.3
v 0.1 0.4 -0.3
v 0.1 0.5 -0.3
v 0 0.5 -0.4
v 0 0.6 -0.4
v 0.1 0.5 -0.4
v 0.1 0.6 -0.4
v 0 0.6 -0.5
v 0 0.7 -0.5
v 0.1 0.6 -0.5
v 0.1 0.7 -0.5
v 0 0.7 -0.6
v 0 0.8 -0.6
v 0.1 0.7 -0.6
v 0.1 0.8 -0.6
v 0 0.8 -0.7
v 0 1.3 -0.7
v 0.1 0.8 -0.7
v 0.1 1.3 -0.7
v 0 0.2 0.1
v 0.1 0.2 0.1
v 0 0.2 -0.1
v 0.1 0.2 -0.1
v 0 0.3 0.2
v 0.1 0.3 0.2
v 0 0.3 0.1
v 0.1 0.3 0.1
v 0 0.3 -0.1
v 0.1 0.3 -0.1
v 0 0.3 -0.2
v 0.1 0.3 -0.2
v 0 0.4 0.3
v 0.1 0.4 0.3
v 0 0.4 0.2
v 0.1 0.4 0.2
v 0 0.4 -0.2
v 0.1 0.4 -0.2
v 0 0.4 -0.3
v 0.1 0.4 -0.3
v 0 0.5 0.4
v 0.1 0.5 0.4
v 0 0.5 0.3
v 0.1 0.5 0.3
v 0 0.5 -0.3
v 0.1 0.5 -0.3
v 0 0.5 -0.4
v 0.1 0.5 -0.4
v 0 0.6 0.5
v 0.1 0.6 0.5
v 0 0.6 0.4
v 0.1 0.6 0.4
v 0 0.6 -0.4
v 0.1 0.6 -0.4
v 0 0.6 -0.5
v 0.1 0.6 -0.5
v 0 0.7 0.6
v 0.1 0.7 0.6
v 0 0.7 0.5
v 0.1 0.7 0.5
v 0 0.7 -0.5
v 0.1 0.7 -0.5
v 0 0.7 -0.6
v 0.1 0.7 -0.6
v 0 0.8 0.7
v 0.1 0.8 0.7
v 0 0.8 0.6
v 0.1 0.8 0.6
v 0 0.8 -0.6
v 0.1 0.8 -0.6
v 0 0.8 -0.7
v 0.1 0.8 -0.7
v 0 0.8 0.1
v 0.1 0.8 0.1
v 0 0.8 -0.1
v 0.1 0.8 -0.1
v 0 0.9 0.2
v 0.1 0.9 0.2
v 0 0.9 0.1
v 0.1 0.9 0.1
v 0 0.9 -0.1
v 0.1 0.9 -0.1
v 0 0.9 -0.2
v 0.1 0.9 -0.2
v 0 1 0.3
v 0.1 1 0.3
v 0 1 0.2
v 0.1 1 0.2
v 0 1 -0.2
v 0.1 1 -0.2
v 0 1 -0.3
v 0.1 1 -0.3
v 0 1.1 0.4
v 0.1 1.1 0.4
v 0 1.1 0.3
v 0.1 1.1 0.3
v 0 1.1 -0.3
v 0.1 1.1 -0.3
v 0 1.1 -0.4
v 0.1 1.1 -0.4
v 0 1.2 0.5
v 0.1 1.2 0.5
v 0 1.2 0.4
v 0.1 1.2 0.4
v 0 1.2 -0.4
v 0.1 1.2 -0.4
v 0 1.2 -0.5
v 0.1 1.2 -0.5
v 0 1.3 0.7
v 0.1 1.3 0.7
v 0 1.3 0.5
v 0.1 1.3 0.5
v 0 1.3 -0.5
v 0.1 1.3 -0.5
v 0 1.3 -0.7
v 0.1 1.3 -0.7

# faces
f 4/1/1 2/1/1 1/1/1
f 5/1/1 2/1/1 4/1/1
f 6/1/1 2/1/1 5/1/1
f 9/1/1 4/1/1 3/1/1
f 10/2/1 5/2/1 4/2/1
f 10/1/1 4/1/1 9/1/1
f 11/4/1 6/4/1 5/4/1
f 11/2/1 5/2/1 10/2/1
f 12/1/1 7/1/1 6/1/1
f 12/4/1 6/4/1 11/4/1
f 13/1/1 7/1/1 12/1/1
f 16/1/1 9/1/1 8/1/1
f 17/2/1 10/2/1 9/2/1
f 17/1/1 9/1/1 16/1/1
f 18/3/1 11/3/1 10/3/1
f 18/2/1 10/2/1 17/2/1
f 18/3/1 12/3/1 11/3/1
f 19/4/1 13/4/1 12/4/1
f 19/3/1 12/3/1 18/3/1
f 20/1/1 14/1/1 13/1/1
f 20/4/1 13/4/1 19/4/1
f 21/1/1 14/1/1 20/1/1
f 24/1/1 16/1/1 15/1/1
f 25/2/1 17/2/1 16/2/1
f 25/1/1 16/1/1 24/1/1
f 26/3/1 19/3/1 18/3/1
f 26/2/1 17/2/1 25/2/1
f 26/3/1 18/3/1 17/3/1
f 26/3/1 20/3/1 19/3/1
f 27/4/1 21/4/1 20/4/1
f 27/3/1 20/3/1 26/3/1
f 28/1/1 22/1/1 21/1/1
f 28/4/1 21/4/1 27/4/1
f 29/1/1 22/1/1 28/1/1
f 32/1/1 24/1/1 23/1/1
f 33/2/1 25/2/1 24/2/1
f 33/1/1 24/1/1 32/1/1
f 34/3/1 27/3/1 26/3/1
f 34/2/1 25/2/1 33/2/1
f 34/3/1 26/3/1 25/3/1
f 34/3/1 28/3/1 27/3/1
f 35/3/1 28/3/1 34/3/1
f 36/3/1 28/3/1 35/3/1
f 37/3/1 28/3/1 36/3/1
f 38/3/1 28/3/1 37/3/1
f 39/4/1 29/4/1 28/4/1
f 39/3/1 28/3/1 38/3/1
f 40/1/1 30/1/1 29/1/1
f 40/4/1 29/4/1 39/4/1
f 41/1/1 30/1/1 40/1/1
f 44/1/1 32/1/1 31/1/1
f 45/2/1 33/2/1 32/2/1
f 45/1/1 32/1/1 44/1/1
f 46/3/1 34/3/1 33/3/1
f 46/2/1 33/2/1 45/2/1
f 46/3/1 35/3/1 34/3/1
f 47/3/1 35/3/1 46/3/1
f 48/4/1 36/4/1 35/4/1
f 48/3/1 35/3/1 47/3/1
f 49/1/1 37/1/1 36/1/1
f 49/4/1 36/4/1 48/4/1
f 50/2/1 38/2/1 37/2/1
f 50/1/1 37/1/1 49/1/1
f 51/3/1 39/3/1 38/3/1
f 51/2/1 38/2/1 50/2/1
f 51/3/1 40/3/1 39/3/1
f 52/3/1 40/3/1 51/3/1
f 53/4/1 41/4/1 40/4/1
f 53/3/1 40/3/1 52/3/1
f 54/1/1 42/1/1 41/1/1
f 54/4/1 41/4/1 53/4/1
f 55/1/1 42/1/1 54/1/1
f 57/1/1 44/1/1 43/1/1
f 57/2/1 45/2/1 44/2/1
f 58/3/1 47/3/1 46/3/1
f 58/2/1 45/2/1 57/2/1
f 58/3/1 46/3/1 45/3/1
f 59/3/1 47/3/1 58/3/1
f 60/4/1 48/4/1 47/4/1
f 60/3/1 47/3/1 59/3/1
f 61/1/1 49/1/1 48/1/1
f 61/4/1 48/4/1 60/4/1
f 62/1/1 49/1/1 61/1/1
f 63/1/1 51/1/1 50/1/1
f 64/2/1 52/2/1 51/2/1
f 64/1/1 51/1/1 63/1/1
f 65/3/1 53/3/1 52/3/1
f 65/2/1 52/2/1 64/2/1
f 65/3/1 54/3/1 53/3/1
f 66/3/1 54/3/1 65/3/1
f 67/4/1 55/4/1 54/4/1
f 67/3/1 54/3/1 66/3/1
f 68/1/1 56/1/1 55/1/1
f 68/4/1 55/4/1 67/4/1
f 69/3/1 59/3/1 58/3/1
f 69/3/1 58/3/1 57/3/1
f 70/4/1 60/4/1 59/4/1
f 70/3/1 59/3/1 69/3/1
f 71/1/1 61/1/1 60/1/1
f 71/4/1 60/4/1 70/4/1
f 72/1/1 61/1/1 71/1/1
f 73/1/1 65/1/1 64/1/1
f 74/2/1 66/2/1 65/2/1
f 74/1/1 65/1/1 73/1/1
f 75/3/1 67/3/1 66/3/1
f 75/2/1 66/2/1 74/2/1
f 75/3/1 68/3/1 67/3/1
f 76/3/1 68/3/1 75/3/1
f 77/3/1 69/3/1 57/3/1
f 77/1/1 57/1/1 43/1/1
f 78/4/1 70/4/1 69/4/1
f 78/3/1 69/3/1 77/3/1
f 79/1/1 71/1/1 70/1/1
f 79/4/1 70/4/1 78/4/1
f 80/1/1 71/1/1 79/1/1
f 81/1/1 75/1/1 74/1/1
f 82/2/1 76/2/1 75/2/1
f 82/1/1 75/1/1 81/1/1
f 83/3/1 68/3/1 76/3/1
f 83/2/1 76/2/1 82/2/1
f 84/1/1 56/1/1 68/1/1
f 84/3/1 68/3/1 83/3/1
f 85/1/1 77/1/1 43/1/1
f 85/4/1 78/4/1 77/4/1
f 86/1/1 79/1/1 78/1/1
f 86/4/1 78/4/1 85/4/1
f 87/1/1 79/1/1 86/1/1
f 88/1/1 83/1/1 82/1/1
f 89/2/1 84/2/1 83/2/1
f 89/1/1 83/1/1 88/1/1
f 90/1/1 56/1/1 84/1/1
f 90/2/1 84/2/1 89/2/1
f 91/1/1 85/1/1 43/1/1
f 91/1/1 86/1/1 85/1/1
f 92/1/1 86/1/1 91/1/1
f 93/1/1 90/1/1 89/1/1
f 94/1/1 56/1/1 90/1/1
f 94/1/1 90/1/1 93/1/1
f 95/1/2 96/1/2 98/1/2
f 98/1/2 96/1/2 99/1/2
f 99/1/2 96/1/2 100/1/2
f 97/1/2 98/1/2 103/1/2
f 98/2/2 99/2/2 104/2/2
f 103/1/2 98/1/2 104/1/2
f 99/4/2 100/4/2 105/4/2
f 104/2/2 99/2/2 105/2/2
f 100/1/2 101/1/2 106/1/2
f 105/4/2 100/4/2 106/4/2
f 106/1/2 101/1/2 107/1/2
f 102/1/2 103/1/2 110/1/2
f 103/2/2 104/2/2 111/2/2
f 110/1/2 103/1/2 111/1/2
f 104/3/2 105/3/2 112/3/2
f 111/2/2 104/2/2 112/2/2
f 105/3/2 106/3/2 112/3/2
f 106/4/2 107/4/2 113/4/2
f 112/3/2 106/3/2 113/3/2
f 107/1/2 108/1/2 114/1/2
f 113/4/2 107/4/2 114/4/2
f 114/1/2 108/1/2 115/1/2
f 109/1/2 110/1/2 118/1/2
f 110/2/2 111/2/2 119/2/2
f 118/1/2 110/1/2 119/1/2
f 112/3/2 113/3/2 120/3/2
f 119/2/2 111/2/2 120/2/2
f 111/3/2 112/3/2 120/3/2
f 113/3/2 114/3/2 120/3/2
f 114/4/2 115/4/2 121/4/2
f 120/3/2 114/3/2 121/3/2
f 115/1/2 116/1/2 122/1/2
f 121/4/2 115/4/2 122/4/2
f 122/1/2 116/1/2 123/1/2
f 117/1/2 118/1/2 126/1/2
f 118/2/2 119/2/2 127/2/2
f 126/1/2 118/1/2 127/1/2
f 120/3/2 121/3/2 128/3/2
f 127/2/2 119/2/2 128/2/2
f 119/3/2 120/3/2 128/3/2
f 121/3/2 122/3/2 128/3/2
f 128/3/2 122/3/2 129/3/2
f 129/3/2 122/3/2 130/3/2
f 130/3/2 122/3/2 131/3/2
f 131/3/2 122/3/2 132/3/2
f 122/4/2 123/4/2 133/4/2
f 132/3/2 122/3/2 133/3/2
f 123/1/2 124/1/2 134/1/2
f 133/4/2 123/4/2 134/4/2
f 134/1/2 124/1/2 135/1/2
f 125/1/2 126/1/2 138/1/2
f 126/2/2 127/2/2 139/2/2
f 138/1/2 126/1/2 139/1/2
f 127/3/2 128/3/2 140/3/2
f 139/2/2 127/2/2 140/2/2
f 128/3/2 129/3/2 140/3/2
f 140/3/2 129/3/2 141/3/2
f 129/4/2 130/4/2 142/4/2
f 141/3/2 129/3/2 142/3/2
f 130/1/2 131/1/2 143/1/2
f 142/4/2 130/4/2 143/4/2
f 131/2/2 132/2/2 144/2/2
f 143/1/2 131/1/2 144/1/2
f 132/3/2 133/3/2 145/3/2
f 144/2/2 132/2/2 145/2/2
f 133/3/2 134/3/2 145/3/2
f 145/3/2 134/3/2 146/3/2
f 134/4/2 135/4/2 147/4/2
f 146/3/2 134/3/2 147/3/2
f 135/1/2 136/1/2 148/1/2
f 147/4/2 135/4/2 148/4/2
f 148/1/2 136/1/2 149/1/2
f 137/1/2 138/1/2 151/1/2
f 138/2/2 139/2/2 151/2/2
f 140/3/2 141/3/2 152/3/2
f 151/2/2 139/2/2 152/2/2
f 139/3/2 140/3/2 152/3/2
f 152/3/2 141/3/2 153/3/2
f 141/4/2 142/4/2 154/4/2
f 153/3/2 141/3/2 154/3/2
f 142/1/2 143/1/2 155/1/2
f 154/4/2 142/4/2 155/4/2
f 155/1/2 143/1/2 156/1/2
f 144/1/2 145/1/2 157/1/2
f 145/2/2 146/2/2 158/2/2
f 157/1/2 145/1/2 158/1/2
f 146/3/2 147/3/2 159/3/2
f 158/2/2 146/2/2 159/2/2
f 147/3/2 148/3/2 159/3/2
f 159/3/2 148/3/2 160/3/2
f 148/4/2 149/4/2 161/4/2
f 160/3/2 148/3/2 161/3/2
f 149/1/2 150/1/2 162/1/2
f 161/4/2 149/4/2 162/4/2
f 152/3/2 153/3/2 163/3/2
f 151/3/2 152/3/2 163/3/2
f 153/4/2 154/4/2 164/4/2
f 163/3/2 153/3/2 164/3/2
f 154/1/2 155/1/2 165/1/2
f 164/4/2 154/4/2 165/4/2
f 165/1/2 155/1/2 166/1/2
f 158/1/2 159/1/2 167/1/2
f 159/2/2 160/2/2 168/2/2
f 167/1/2 159/1/2 168/1/2
f 160/3/2 161/3/2 169/3/2
f 168/2/2 160/2/2 169/2/2
f 161/3/2 162/3/2 169/3/2
f 169/3/2 162/3/2 170/3/2
f 151/3/2 163/3/2 171/3/2
f 137/1/2 151/1/2 171/1/2
f 163/4/2 164/4/2 172/4/2
f 171/3/2 163/3/2 172/3/2
f 164/1/2 165/1/2 173/1/2
f 172/4/2 164/4/2 173/4/2
f 173/1/2 165/1/2 174/1/2
f 168/1/2 169/1/2 175/1/2
f 169/2/2 170/2/2 176/2/2
f 175/1/2 169/1/2 176/1/2
f 170/3/2 162/3/2 177/3/2
f 176/2/2 170/2/2 177/2/2
f 162/1/2 150/1/2 178/1/2
f 177/3/2 162/3/2 178/3/2
f 137/1/2 171/1/2 179/1/2
f 171/4/2 172/4/2 179/4/2
f 172/1/2 173/1/2 180/1/2
f 179/4/2 172/4/2 180/4/2
f 180/1/2 173/1/2 181/1/2
f 176/1/2 177/1/2 182/1/2
f 177/2/2 178/2/2 183/2/2
f 182/1/2 177/1/2 183/1/2
f 178/1/2 150/1/2 184/1/2
f 183/2/2 178/2/2 184/2/2
f 137/1/2 179/1/2 185/1/2
f 179/1/2 180/1/2 185/1/2
f 185/1/2 180/1/2 186/1/2
f 183/1/2 184/1/2 187/1/2
f 184/1/2 150/1/2 188/1/2
f 187/1/2 184/1/2 188/1/2
f 191/1/3 190/1/3 189/1/3
f 192/1/3 190/1/3 191/1/3
f 195/1/3 194/1/3 193/1/3
f 196/1/3 194/1/3 195/1/3
f 199/1/3 198/1/3 197/1/3
f 200/1/3 198/1/3 199/1/3
f 203/1/3 202/1/3 201/1/3
f 204/1/3 202/1/3 203/1/3
f 207/1/3 206/1/3 205/1/3
f 208/1/3 206/1/3 207/1/3
f 211/1/3 210/1/3 209/1/3
f 212/1/3 210/1/3 211/1/3
f 215/1/3 214/1/3 213/1/3
f 216/1/3 214/1/3 215/1/3
f 219/1/3 218/1/3 217/1/3
f 220/1/3 218/1/3 219/1/3
f 223/1/3 222/1/3 221/1/3
f 224/1/3 222/1/3 223/1/3
f 227/1/3 226/1/3 225/1/3
f 228/1/3 226/1/3 227/1/3
f 231/1/3 230/1/3 229/1/3
f 232/1/3 230/1/3 231/1/3
f 235/1/3 234/1/3 233/1/3
f 236/1/3 234/1/3 235/1/3
f 237/1/4 238/1/4 239/1/4
f 239/1/4 238/1/4 240/1/4
f 241/1/4 242/1/4 243/1/4
f 243/1/4 242/1/4 244/1/4
f 245/1/4 246/1/4 247/1/4
f 247/1/4 246/1/4 248/1/4
f 249/1/4 250/1/4 251/1/4
f 251/1/4 250/1/4 252/1/4
f 253/1/4 254/1/4 255/1/4
f 255/1/4 254/1/4 256/1/4
f 257/1/4 258/1/4 259/1/4
f 259/1/4 258/1/4 260/1/4
f 261/1/4 262/1/4 263/1/4
f 263/1/4 262/1/4 264/1/4
f 265/1/4 266/1/4 267/1/4
f 267/1/4 266/1/4 268/1/4
f 269/1/4 270/1/4 271/1/4
f 271/1/4 270/1/4 272/1/4
f 273/1/4 274/1/4 275/1/4
f 275/1/4 274/1/4 276/1/4
f 277/1/4 278/1/4 279/1/4
f 279/1/4 278/1/4 280/1/4
f 281/1/4 282/1/4 283/1/4
f 283/1/4 282/1/4 284/1/4
f 287/1/5 286/1/5 285/1/5
f 288/1/5 286/1/5 287/1/5
f 291/1/5 290/1/5 289/1/5
f 292/1/5 290/1/5 291/1/5
f 295/1/5 294/1/5 293/1/5
f 296/1/5 294/1/5 295/1/5
f 299/1/5 298/1/5 297/1/5
f 300/1/5 298/1/5 299/1/5
f 303/1/5 302/1/5 301/1/5
f 304/1/5 302/1/5 303/1/5
f 307/1/5 306/1/5 305/1/5
f 308/1/5 306/1/5 307/1/5
f 311/1/5 310/1/5 309/1/5
f 312/1/5 310/1/5 311/1/5
f 315/1/5 314/1/5 313/1/5
f 316/1/5 314/1/5 315/1/5
f 319/1/5 318/1/5 317/1/5
f 320/1/5 318/1/5 319/1/5
f 323/1/5 322/1/5 321/1/5
f 324/1/5 322/1/5 323/1/5
f 327/1/5 326/1/5 325/1/5
f 328/1/5 326/1/5 327/1/5
f 331/1/5 330/1/5 329/1/5
f 332/1/5 330/1/5 331/1/5
f 335/1/5 334/1/5 333/1/5
f 336/1/5 334/1/5 335/1/5
f 337/1/6 338/1/6 339/1/6
f 339/1/6 338/1/6 340/1/6
f 341/1/6 342/1/6 343/1/6
f 343/1/6 342/1/6 344/1/6
f 345/1/6 346/1/6 347/1/6
f 347/1/6 346/1/6 348/1/6
f 349/1/6 350/1/6 351/1/6
f 351/1/6 350/1/6 352/1/6
f 353/1/6 354/1/6 355/1/6
f 355/1/6 354/1/6 356/1/6
f 357/1/6 358/1/6 359/1/6
f 359/1/6 358/1/6 360/1/6
f 361/1/6 362/1/6 363/1/6
f 363/1/6 362/1/6 364/1/6
f 365/1/6 366/1/6 367/1/6
f 367/1/6 366/1/6 368/1/6
f 369/1/6 370/1/6 371/1/6
f 371/1/6 370/1/6 372/1/6
f 373/1/6 374/1/6 375/1/6
f 375/1/6 374/1/6 376/1/6
f 377/1/6 378/1/6 379/1/6
f 379/1/6 378/1/6 380/1/6
