# MagicaVoxel @ Ephtracy

# group
o 

# material
mtllib RackItem32.mtl
usemtl palette

# normals
vn -1 0 0
vn 1 0 0
vn 0 0 1
vn 0 0 -1
vn 0 -1 0
vn 0 1 0

# texcoords
vt 0.666016 0.5
vt 0.802734 0.5

# verts
v -0.1 0.2 0.3
v -0.1 0.2 0.2
v -0.1 0.2 -0.2
v -0.1 0.2 -0.3
v -0.1 0.3 0.5
v -0.1 0.3 0.3
v -0.1 0.3 -0.3
v -0.1 0.3 -0.5
v -0.1 0.4 0.5
v -0.1 0.4 0.3
v -0.1 0.4 -0.3
v -0.1 0.4 -0.5
v -0.1 1 0.3
v -0.1 1 0.2
v -0.1 1 -0.2
v -0.1 1 -0.3
v -0.1 1.2 0.5
v -0.1 1.2 0.4
v -0.1 1.2 0.2
v -0.1 1.2 -0.2
v -0.1 1.2 -0.4
v -0.1 1.2 -0.5
v -0.1 1.3 0.4
v -0.1 1.3 0.2
v -0.1 1.3 -0.2
v -0.1 1.3 -0.4
v 0 0.2 0.3
v 0 0.2 0.2
v 0 0.2 -0.2
v 0 0.2 -0.3
v 0 0.3 0.5
v 0 0.3 0.3
v 0 0.3 -0.3
v 0 0.3 -0.5
v 0 0.4 0.5
v 0 0.4 0.3
v 0 0.4 -0.3
v 0 0.4 -0.5
v 0 1 0.3
v 0 1 0.2
v 0 1 -0.2
v 0 1 -0.3
v 0 1.2 0.5
v 0 1.2 0.4
v 0 1.2 0.2
v 0 1.2 -0.2
v 0 1.2 -0.4
v 0 1.2 -0.5
v 0 1.3 0.4
v 0 1.3 0.2
v 0 1.3 -0.2
v 0 1.3 -0.4
v -0.1 0.3 0.5
v -0.1 0.4 0.5
v -0.1 1.2 0.5
v 0 0.3 0.5
v 0 0.4 0.5
v 0 1.2 0.5
v -0.1 1.2 0.4
v -0.1 1.3 0.4
v 0 1.2 0.4
v 0 1.3 0.4
v -0.1 0.2 0.3
v -0.1 0.3 0.3
v 0 0.2 0.3
v 0 0.3 0.3
v -0.1 0.2 -0.3
v -0.1 0.3 -0.3
v 0 0.2 -0.3
v 0 0.3 -0.3
v -0.1 1.2 -0.4
v -0.1 1.3 -0.4
v 0 1.2 -0.4
v 0 1.3 -0.4
v -0.1 0.3 -0.5
v -0.1 0.4 -0.5
v -0.1 1.2 -0.5
v 0 0.3 -0.5
v 0 0.4 -0.5
v 0 1.2 -0.5
v -0.1 0.2 0.3
v 0 0.2 0.3
v -0.1 0.2 0.2
v 0 0.2 0.2
v -0.1 0.2 -0.2
v 0 0.2 -0.2
v -0.1 0.2 -0.3
v 0 0.2 -0.3
v -0.1 0.3 0.5
v 0 0.3 0.5
v -0.1 0.3 0.3
v 0 0.3 0.3
v -0.1 0.3 -0.3
v 0 0.3 -0.3
v -0.1 0.3 -0.5
v 0 0.3 -0.5
v -0.1 1.2 0.5
v 0 1.2 0.5
v -0.1 1.2 0.4
v 0 1.2 0.4
v -0.1 1.2 -0.4
v 0 1.2 -0.4
v -0.1 1.2 -0.5
v 0 1.2 -0.5
v -0.1 1.3 0.4
v 0 1.3 0.4
v -0.1 1.3 0.2
v 0 1.3 0.2
v -0.1 1.3 -0.2
v 0 1.3 -0.2
v -0.1 1.3 -0.4
v 0 1.3 -0.4

# faces
f 6/1/1 2/1/1 1/1/1
f 7/1/1 4/1/1 3/1/1
f 9/1/1 6/1/1 5/1/1
f 10/1/1 2/1/1 6/1/1
f 10/1/1 6/1/1 9/1/1
f 11/1/1 8/1/1 7/1/1
f 11/1/1 7/1/1 3/1/1
f 12/1/1 8/1/1 11/1/1
f 13/1/1 2/1/1 10/1/1
f 13/2/1 10/2/1 9/2/1
f 14/2/1 3/2/1 2/2/1
f 14/1/1 2/1/1 13/1/1
f 15/1/1 11/1/1 3/1/1
f 15/2/1 3/2/1 14/2/1
f 16/2/1 12/2/1 11/2/1
f 16/1/1 11/1/1 15/1/1
f 17/2/1 13/2/1 9/2/1
f 17/2/1 15/2/1 14/2/1
f 17/2/1 16/2/1 15/2/1
f 17/2/1 14/2/1 13/2/1
f 18/2/1 16/2/1 17/2/1
f 19/2/1 16/2/1 18/2/1
f 20/2/1 16/2/1 19/2/1
f 21/2/1 12/2/1 16/2/1
f 21/2/1 16/2/1 20/2/1
f 22/2/1 12/2/1 21/2/1
f 23/2/1 19/2/1 18/2/1
f 24/1/1 20/1/1 19/1/1
f 24/2/1 19/2/1 23/2/1
f 25/2/1 21/2/1 20/2/1
f 25/1/1 20/1/1 24/1/1
f 26/2/1 21/2/1 25/2/1
f 27/1/2 28/1/2 32/1/2
f 29/1/2 30/1/2 33/1/2
f 31/1/2 32/1/2 35/1/2
f 32/1/2 28/1/2 36/1/2
f 35/1/2 32/1/2 36/1/2
f 33/1/2 34/1/2 37/1/2
f 29/1/2 33/1/2 37/1/2
f 37/1/2 34/1/2 38/1/2
f 36/1/2 28/1/2 39/1/2
f 35/2/2 36/2/2 39/2/2
f 28/2/2 29/2/2 40/2/2
f 39/1/2 28/1/2 40/1/2
f 29/1/2 37/1/2 41/1/2
f 40/2/2 29/2/2 41/2/2
f 37/2/2 38/2/2 42/2/2
f 41/1/2 37/1/2 42/1/2
f 35/2/2 39/2/2 43/2/2
f 40/2/2 41/2/2 43/2/2
f 41/2/2 42/2/2 43/2/2
f 39/2/2 40/2/2 43/2/2
f 43/2/2 42/2/2 44/2/2
f 44/2/2 42/2/2 45/2/2
f 45/2/2 42/2/2 46/2/2
f 42/2/2 38/2/2 47/2/2
f 46/2/2 42/2/2 47/2/2
f 47/2/2 38/2/2 48/2/2
f 44/2/2 45/2/2 49/2/2
f 45/1/2 46/1/2 50/1/2
f 49/2/2 45/2/2 50/2/2
f 46/2/2 47/2/2 51/2/2
f 50/1/2 46/1/2 51/1/2
f 51/2/2 47/2/2 52/2/2
f 56/1/3 54/1/3 53/1/3
f 57/2/3 55/2/3 54/2/3
f 57/1/3 54/1/3 56/1/3
f 58/2/3 55/2/3 57/2/3
f 61/2/3 60/2/3 59/2/3
f 62/2/3 60/2/3 61/2/3
f 65/1/3 64/1/3 63/1/3
f 66/1/3 64/1/3 65/1/3
f 67/1/4 68/1/4 69/1/4
f 69/1/4 68/1/4 70/1/4
f 71/2/4 72/2/4 73/2/4
f 73/2/4 72/2/4 74/2/4
f 75/1/4 76/1/4 78/1/4
f 76/2/4 77/2/4 79/2/4
f 78/1/4 76/1/4 79/1/4
f 79/2/4 77/2/4 80/2/4
f 83/1/5 82/1/5 81/1/5
f 84/1/5 82/1/5 83/1/5
f 85/2/5 84/2/5 83/2/5
f 86/2/5 84/2/5 85/2/5
f 87/1/5 86/1/5 85/1/5
f 88/1/5 86/1/5 87/1/5
f 91/1/5 90/1/5 89/1/5
f 92/1/5 90/1/5 91/1/5
f 95/1/5 94/1/5 93/1/5
f 96/1/5 94/1/5 95/1/5
f 97/2/6 98/2/6 99/2/6
f 99/2/6 98/2/6 100/2/6
f 101/2/6 102/2/6 103/2/6
f 103/2/6 102/2/6 104/2/6
f 105/2/6 106/2/6 107/2/6
f 107/2/6 106/2/6 108/2/6
f 107/1/6 108/1/6 109/1/6
f 109/1/6 108/1/6 110/1/6
f 109/2/6 110/2/6 111/2/6
f 111/2/6 110/2/6 112/2/6
