# MagicaVoxel @ Ephtracy

# group
o 

# material
mtllib RackItem13.mtl
usemtl palette

# normals
vn -1 0 0
vn 1 0 0
vn 0 0 1
vn 0 0 -1
vn 0 -1 0
vn 0 1 0

# texcoords
vt 0.689453 0.5
vt 0.693359 0.5
vt 0.845703 0.5
vt 0.849609 0.5

# verts
v 0 0.2 0.3
v 0 0.2 0.2
v 0 0.2 -0.2
v 0 0.2 -0.3
v 0 0.8 0.5
v 0 0.8 0.3
v 0 0.8 0.2
v 0 0.8 -0.2
v 0 0.8 -0.3
v 0 0.8 -0.5
v 0 0.9 0.5
v 0 0.9 0.3
v 0 0.9 0.2
v 0 0.9 -0.2
v 0 0.9 -0.3
v 0 0.9 -0.5
v 0 1 0.3
v 0 1 0.2
v 0 1 -0.2
v 0 1 -0.3
v 0 1.1 0.5
v 0 1.1 0.4
v 0 1.1 0.1
v 0 1.1 -0.1
v 0 1.1 -0.4
v 0 1.1 -0.5
v 0 1.2 0.4
v 0 1.2 0.3
v 0 1.2 0.2
v 0 1.2 0.1
v 0 1.2 -0.1
v 0 1.2 -0.2
v 0 1.2 -0.3
v 0 1.2 -0.4
v 0 1.3 0.3
v 0 1.3 0.2
v 0 1.3 -0.2
v 0 1.3 -0.3
v 0.1 0.2 0.3
v 0.1 0.2 0.2
v 0.1 0.2 -0.2
v 0.1 0.2 -0.3
v 0.1 0.8 0.5
v 0.1 0.8 0.3
v 0.1 0.8 0.2
v 0.1 0.8 -0.2
v 0.1 0.8 -0.3
v 0.1 0.8 -0.5
v 0.1 0.9 0.5
v 0.1 0.9 0.3
v 0.1 0.9 0.2
v 0.1 0.9 -0.2
v 0.1 0.9 -0.3
v 0.1 0.9 -0.5
v 0.1 1 0.3
v 0.1 1 0.2
v 0.1 1 -0.2
v 0.1 1 -0.3
v 0.1 1.1 0.5
v 0.1 1.1 0.4
v 0.1 1.1 0.1
v 0.1 1.1 -0.1
v 0.1 1.1 -0.4
v 0.1 1.1 -0.5
v 0.1 1.2 0.4
v 0.1 1.2 0.3
v 0.1 1.2 0.2
v 0.1 1.2 0.1
v 0.1 1.2 -0.1
v 0.1 1.2 -0.2
v 0.1 1.2 -0.3
v 0.1 1.2 -0.4
v 0.1 1.3 0.3
v 0.1 1.3 0.2
v 0.1 1.3 -0.2
v 0.1 1.3 -0.3
v 0 0.8 0.5
v 0 0.9 0.5
v 0 1.1 0.5
v 0.1 0.8 0.5
v 0.1 0.9 0.5
v 0.1 1.1 0.5
v 0 1.1 0.4
v 0 1.2 0.4
v 0.1 1.1 0.4
v 0.1 1.2 0.4
v 0 0.2 0.3
v 0 0.8 0.3
v 0 1.2 0.3
v 0 1.3 0.3
v 0.1 0.2 0.3
v 0.1 0.8 0.3
v 0.1 1.2 0.3
v 0.1 1.3 0.3
v 0 0.2 -0.3
v 0 0.8 -0.3
v 0 1.2 -0.3
v 0 1.3 -0.3
v 0.1 0.2 -0.3
v 0.1 0.8 -0.3
v 0.1 1.2 -0.3
v 0.1 1.3 -0.3
v 0 1.1 -0.4
v 0 1.2 -0.4
v 0.1 1.1 -0.4
v 0.1 1.2 -0.4
v 0 0.8 -0.5
v 0 0.9 -0.5
v 0 1.1 -0.5
v 0.1 0.8 -0.5
v 0.1 0.9 -0.5
v 0.1 1.1 -0.5
v 0 0.2 0.3
v 0.1 0.2 0.3
v 0 0.2 0.2
v 0.1 0.2 0.2
v 0 0.2 -0.2
v 0.1 0.2 -0.2
v 0 0.2 -0.3
v 0.1 0.2 -0.3
v 0 0.8 0.5
v 0.1 0.8 0.5
v 0 0.8 0.3
v 0.1 0.8 0.3
v 0 0.8 -0.3
v 0.1 0.8 -0.3
v 0 0.8 -0.5
v 0.1 0.8 -0.5
v 0 1.1 0.5
v 0.1 1.1 0.5
v 0 1.1 0.4
v 0.1 1.1 0.4
v 0 1.1 -0.4
v 0.1 1.1 -0.4
v 0 1.1 -0.5
v 0.1 1.1 -0.5
v 0 1.2 0.4
v 0.1 1.2 0.4
v 0 1.2 0.3
v 0.1 1.2 0.3
v 0 1.2 -0.3
v 0.1 1.2 -0.3
v 0 1.2 -0.4
v 0.1 1.2 -0.4
v 0 1.3 0.3
v 0.1 1.3 0.3
v 0 1.3 0.2
v 0.1 1.3 0.2
v 0 1.3 -0.2
v 0.1 1.3 -0.2
v 0 1.3 -0.3
v 0.1 1.3 -0.3

# faces
f 6/2/1 2/2/1 1/2/1
f 7/4/1 3/4/1 2/4/1
f 7/2/1 2/2/1 6/2/1
f 8/2/1 4/2/1 3/2/1
f 8/4/1 3/4/1 7/4/1
f 9/2/1 4/2/1 8/2/1
f 11/4/1 6/4/1 5/4/1
f 12/2/1 7/2/1 6/2/1
f 12/4/1 6/4/1 11/4/1
f 13/3/1 8/3/1 7/3/1
f 13/2/1 7/2/1 12/2/1
f 14/2/1 9/2/1 8/2/1
f 14/3/1 8/3/1 13/3/1
f 15/4/1 10/4/1 9/4/1
f 15/2/1 9/2/1 14/2/1
f 16/4/1 10/4/1 15/4/1
f 17/3/1 12/3/1 11/3/1
f 17/1/1 13/1/1 12/1/1
f 18/3/1 14/3/1 13/3/1
f 18/1/1 13/1/1 17/1/1
f 19/1/1 15/1/1 14/1/1
f 19/3/1 14/3/1 18/3/1
f 20/3/1 16/3/1 15/3/1
f 20/1/1 15/1/1 19/1/1
f 21/3/1 17/3/1 11/3/1
f 21/3/1 19/3/1 18/3/1
f 21/3/1 20/3/1 19/3/1
f 21/3/1 18/3/1 17/3/1
f 22/3/1 20/3/1 21/3/1
f 23/3/1 20/3/1 22/3/1
f 24/3/1 20/3/1 23/3/1
f 25/3/1 16/3/1 20/3/1
f 25/3/1 20/3/1 24/3/1
f 26/3/1 16/3/1 25/3/1
f 27/3/1 23/3/1 22/3/1
f 28/3/1 23/3/1 27/3/1
f 29/3/1 23/3/1 28/3/1
f 30/1/1 24/1/1 23/1/1
f 30/3/1 23/3/1 29/3/1
f 31/3/1 25/3/1 24/3/1
f 31/1/1 24/1/1 30/1/1
f 32/3/1 25/3/1 31/3/1
f 33/3/1 25/3/1 32/3/1
f 34/3/1 25/3/1 33/3/1
f 35/3/1 29/3/1 28/3/1
f 36/1/1 30/1/1 29/1/1
f 36/3/1 29/3/1 35/3/1
f 36/1/1 31/1/1 30/1/1
f 36/1/1 32/1/1 31/1/1
f 37/3/1 33/3/1 32/3/1
f 37/1/1 32/1/1 36/1/1
f 38/3/1 33/3/1 37/3/1
f 39/2/2 40/2/2 44/2/2
f 40/4/2 41/4/2 45/4/2
f 44/2/2 40/2/2 45/2/2
f 41/2/2 42/2/2 46/2/2
f 45/4/2 41/4/2 46/4/2
f 46/2/2 42/2/2 47/2/2
f 43/4/2 44/4/2 49/4/2
f 44/2/2 45/2/2 50/2/2
f 49/4/2 44/4/2 50/4/2
f 45/3/2 46/3/2 51/3/2
f 50/2/2 45/2/2 51/2/2
f 46/2/2 47/2/2 52/2/2
f 51/3/2 46/3/2 52/3/2
f 47/4/2 48/4/2 53/4/2
f 52/2/2 47/2/2 53/2/2
f 53/4/2 48/4/2 54/4/2
f 49/3/2 50/3/2 55/3/2
f 50/1/2 51/1/2 55/1/2
f 51/3/2 52/3/2 56/3/2
f 55/1/2 51/1/2 56/1/2
f 52/1/2 53/1/2 57/1/2
f 56/3/2 52/3/2 57/3/2
f 53/3/2 54/3/2 58/3/2
f 57/1/2 53/1/2 58/1/2
f 49/3/2 55/3/2 59/3/2
f 56/3/2 57/3/2 59/3/2
f 57/3/2 58/3/2 59/3/2
f 55/3/2 56/3/2 59/3/2
f 59/3/2 58/3/2 60/3/2
f 60/3/2 58/3/2 61/3/2
f 61/3/2 58/3/2 62/3/2
f 58/3/2 54/3/2 63/3/2
f 62/3/2 58/3/2 63/3/2
f 63/3/2 54/3/2 64/3/2
f 60/3/2 61/3/2 65/3/2
f 65/3/2 61/3/2 66/3/2
f 66/3/2 61/3/2 67/3/2
f 61/1/2 62/1/2 68/1/2
f 67/3/2 61/3/2 68/3/2
f 62/3/2 63/3/2 69/3/2
f 68/1/2 62/1/2 69/1/2
f 69/3/2 63/3/2 70/3/2
f 70/3/2 63/3/2 71/3/2
f 71/3/2 63/3/2 72/3/2
f 66/3/2 67/3/2 73/3/2
f 67/1/2 68/1/2 74/1/2
f 73/3/2 67/3/2 74/3/2
f 68/1/2 69/1/2 74/1/2
f 69/1/2 70/1/2 74/1/2
f 70/3/2 71/3/2 75/3/2
f 74/1/2 70/1/2 75/1/2
f 75/3/2 71/3/2 76/3/2
f 80/4/3 78/4/3 77/4/3
f 81/3/3 79/3/3 78/3/3
f 81/4/3 78/4/3 80/4/3
f 82/3/3 79/3/3 81/3/3
f 85/3/3 84/3/3 83/3/3
f 86/3/3 84/3/3 85/3/3
f 91/2/3 88/2/3 87/2/3
f 92/2/3 88/2/3 91/2/3
f 93/3/3 90/3/3 89/3/3
f 94/3/3 90/3/3 93/3/3
f 95/2/4 96/2/4 99/2/4
f 99/2/4 96/2/4 100/2/4
f 97/3/4 98/3/4 101/3/4
f 101/3/4 98/3/4 102/3/4
f 103/3/4 104/3/4 105/3/4
f 105/3/4 104/3/4 106/3/4
f 107/4/4 108/4/4 110/4/4
f 108/3/4 109/3/4 111/3/4
f 110/4/4 108/4/4 111/4/4
f 111/3/4 109/3/4 112/3/4
f 115/2/5 114/2/5 113/2/5
f 116/2/5 114/2/5 115/2/5
f 117/4/5 116/4/5 115/4/5
f 118/4/5 116/4/5 117/4/5
f 119/2/5 118/2/5 117/2/5
f 120/2/5 118/2/5 119/2/5
f 123/4/5 122/4/5 121/4/5
f 124/4/5 122/4/5 123/4/5
f 127/4/5 126/4/5 125/4/5
f 128/4/5 126/4/5 127/4/5
f 129/3/6 130/3/6 131/3/6
f 131/3/6 130/3/6 132/3/6
f 133/3/6 134/3/6 135/3/6
f 135/3/6 134/3/6 136/3/6
f 137/3/6 138/3/6 139/3/6
f 139/3/6 138/3/6 140/3/6
f 141/3/6 142/3/6 143/3/6
f 143/3/6 142/3/6 144/3/6
f 145/3/6 146/3/6 147/3/6
f 147/3/6 146/3/6 148/3/6
f 147/1/6 148/1/6 149/1/6
f 149/1/6 148/1/6 150/1/6
f 149/3/6 150/3/6 151/3/6
f 151/3/6 150/3/6 152/3/6
