# MagicaVoxel @ Ephtracy

# group
o 

# material
mtllib RackItem25.mtl
usemtl palette

# normals
vn -1 0 0
vn 1 0 0
vn 0 0 1
vn 0 0 -1
vn 0 -1 0
vn 0 1 0

# texcoords
vt 0.845703 0.5
vt 0.849609 0.5

# verts
v 0 0.2 0.3
v 0 0.2 -0.3
v 0 0.8 0.5
v 0 0.8 0.3
v 0 0.8 -0.3
v 0 0.8 -0.5
v 0 0.9 0.5
v 0 0.9 0.3
v 0 0.9 -0.3
v 0 0.9 -0.5
v 0 1.1 0.5
v 0 1.1 0.4
v 0 1.1 -0.4
v 0 1.1 -0.5
v 0 1.2 0.4
v 0 1.2 0.3
v 0 1.2 0.2
v 0 1.2 -0.2
v 0 1.2 -0.3
v 0 1.2 -0.4
v 0 1.3 0.3
v 0 1.3 0.2
v 0 1.3 -0.2
v 0 1.3 -0.3
v 0.1 0.2 0.3
v 0.1 0.2 -0.3
v 0.1 0.8 0.5
v 0.1 0.8 0.3
v 0.1 0.8 -0.3
v 0.1 0.8 -0.5
v 0.1 0.9 0.5
v 0.1 0.9 0.3
v 0.1 0.9 -0.3
v 0.1 0.9 -0.5
v 0.1 1.1 0.5
v 0.1 1.1 0.4
v 0.1 1.1 -0.4
v 0.1 1.1 -0.5
v 0.1 1.2 0.4
v 0.1 1.2 0.3
v 0.1 1.2 0.2
v 0.1 1.2 -0.2
v 0.1 1.2 -0.3
v 0.1 1.2 -0.4
v 0.1 1.3 0.3
v 0.1 1.3 0.2
v 0.1 1.3 -0.2
v 0.1 1.3 -0.3
v 0 0.8 0.5
v 0 0.9 0.5
v 0 1.1 0.5
v 0.1 0.8 0.5
v 0.1 0.9 0.5
v 0.1 1.1 0.5
v 0 1.1 0.4
v 0 1.2 0.4
v 0.1 1.1 0.4
v 0.1 1.2 0.4
v 0 0.2 0.3
v 0 0.8 0.3
v 0 1.2 0.3
v 0 1.3 0.3
v 0.1 0.2 0.3
v 0.1 0.8 0.3
v 0.1 1.2 0.3
v 0.1 1.3 0.3
v 0 0.2 -0.3
v 0 0.8 -0.3
v 0 1.2 -0.3
v 0 1.3 -0.3
v 0.1 0.2 -0.3
v 0.1 0.8 -0.3
v 0.1 1.2 -0.3
v 0.1 1.3 -0.3
v 0 1.1 -0.4
v 0 1.2 -0.4
v 0.1 1.1 -0.4
v 0.1 1.2 -0.4
v 0 0.8 -0.5
v 0 0.9 -0.5
v 0 1.1 -0.5
v 0.1 0.8 -0.5
v 0.1 0.9 -0.5
v 0.1 1.1 -0.5
v 0 0.2 0.3
v 0.1 0.2 0.3
v 0 0.2 -0.3
v 0.1 0.2 -0.3
v 0 0.8 0.5
v 0.1 0.8 0.5
v 0 0.8 0.3
v 0.1 0.8 0.3
v 0 0.8 -0.3
v 0.1 0.8 -0.3
v 0 0.8 -0.5
v 0.1 0.8 -0.5
v 0 1.1 0.5
v 0.1 1.1 0.5
v 0 1.1 0.4
v 0.1 1.1 0.4
v 0 1.1 -0.4
v 0.1 1.1 -0.4
v 0 1.1 -0.5
v 0.1 1.1 -0.5
v 0 1.2 0.4
v 0.1 1.2 0.4
v 0 1.2 0.3
v 0.1 1.2 0.3
v 0 1.2 -0.3
v 0.1 1.2 -0.3
v 0 1.2 -0.4
v 0.1 1.2 -0.4
v 0 1.3 0.3
v 0.1 1.3 0.3
v 0 1.3 0.2
v 0.1 1.3 0.2
v 0 1.3 -0.2
v 0.1 1.3 -0.2
v 0 1.3 -0.3
v 0.1 1.3 -0.3

# faces
f 4/1/1 2/1/1 1/1/1
f 5/1/1 2/1/1 4/1/1
f 7/2/1 4/2/1 3/2/1
f 8/1/1 5/1/1 4/1/1
f 8/2/1 4/2/1 7/2/1
f 9/2/1 6/2/1 5/2/1
f 9/1/1 5/1/1 8/1/1
f 10/2/1 6/2/1 9/2/1
f 11/1/1 8/1/1 7/1/1
f 11/1/1 9/1/1 8/1/1
f 11/1/1 10/1/1 9/1/1
f 12/1/1 10/1/1 11/1/1
f 13/1/1 10/1/1 12/1/1
f 14/1/1 10/1/1 13/1/1
f 15/1/1 13/1/1 12/1/1
f 16/1/1 13/1/1 15/1/1
f 17/1/1 13/1/1 16/1/1
f 18/1/1 13/1/1 17/1/1
f 19/1/1 13/1/1 18/1/1
f 20/1/1 13/1/1 19/1/1
f 21/1/1 17/1/1 16/1/1
f 22/2/1 18/2/1 17/2/1
f 22/1/1 17/1/1 21/1/1
f 23/1/1 19/1/1 18/1/1
f 23/2/1 18/2/1 22/2/1
f 24/1/1 19/1/1 23/1/1
f 25/1/2 26/1/2 28/1/2
f 28/1/2 26/1/2 29/1/2
f 27/2/2 28/2/2 31/2/2
f 28/1/2 29/1/2 32/1/2
f 31/2/2 28/2/2 32/2/2
f 29/2/2 30/2/2 33/2/2
f 32/1/2 29/1/2 33/1/2
f 33/2/2 30/2/2 34/2/2
f 31/1/2 32/1/2 35/1/2
f 32/1/2 33/1/2 35/1/2
f 33/1/2 34/1/2 35/1/2
f 35/1/2 34/1/2 36/1/2
f 36/1/2 34/1/2 37/1/2
f 37/1/2 34/1/2 38/1/2
f 36/1/2 37/1/2 39/1/2
f 39/1/2 37/1/2 40/1/2
f 40/1/2 37/1/2 41/1/2
f 41/1/2 37/1/2 42/1/2
f 42/1/2 37/1/2 43/1/2
f 43/1/2 37/1/2 44/1/2
f 40/1/2 41/1/2 45/1/2
f 41/2/2 42/2/2 46/2/2
f 45/1/2 41/1/2 46/1/2
f 42/1/2 43/1/2 47/1/2
f 46/2/2 42/2/2 47/2/2
f 47/1/2 43/1/2 48/1/2
f 52/2/3 50/2/3 49/2/3
f 53/1/3 51/1/3 50/1/3
f 53/2/3 50/2/3 52/2/3
f 54/1/3 51/1/3 53/1/3
f 57/1/3 56/1/3 55/1/3
f 58/1/3 56/1/3 57/1/3
f 63/1/3 60/1/3 59/1/3
f 64/1/3 60/1/3 63/1/3
f 65/1/3 62/1/3 61/1/3
f 66/1/3 62/1/3 65/1/3
f 67/1/4 68/1/4 71/1/4
f 71/1/4 68/1/4 72/1/4
f 69/1/4 70/1/4 73/1/4
f 73/1/4 70/1/4 74/1/4
f 75/1/4 76/1/4 77/1/4
f 77/1/4 76/1/4 78/1/4
f 79/2/4 80/2/4 82/2/4
f 80/1/4 81/1/4 83/1/4
f 82/2/4 80/2/4 83/2/4
f 83/1/4 81/1/4 84/1/4
f 87/1/5 86/1/5 85/1/5
f 88/1/5 86/1/5 87/1/5
f 91/2/5 90/2/5 89/2/5
f 92/2/5 90/2/5 91/2/5
f 95/2/5 94/2/5 93/2/5
f 96/2/5 94/2/5 95/2/5
f 97/1/6 98/1/6 99/1/6
f 99/1/6 98/1/6 100/1/6
f 101/1/6 102/1/6 103/1/6
f 103/1/6 102/1/6 104/1/6
f 105/1/6 106/1/6 107/1/6
f 107/1/6 106/1/6 108/1/6
f 109/1/6 110/1/6 111/1/6
f 111/1/6 110/1/6 112/1/6
f 113/1/6 114/1/6 115/1/6
f 115/1/6 114/1/6 116/1/6
f 115/2/6 116/2/6 117/2/6
f 117/2/6 116/2/6 118/2/6
f 117/1/6 118/1/6 119/1/6
f 119/1/6 118/1/6 120/1/6
