# MagicaVoxel @ Ephtracy

# group
o 

# material
mtllib RackItem24.mtl
usemtl palette

# normals
vn -1 0 0
vn 1 0 0
vn 0 0 1
vn 0 0 -1
vn 0 -1 0
vn 0 1 0

# texcoords
vt 0.783203 0.5
vt 0.798828 0.5

# verts
v 0 0.2 0.3
v 0 0.2 -0.3
v 0 0.8 0.5
v 0 0.8 0.3
v 0 0.8 -0.3
v 0 0.8 -0.5
v 0 0.9 0.5
v 0 0.9 0.3
v 0 0.9 0.2
v 0 0.9 -0.2
v 0 0.9 -0.3
v 0 0.9 -0.5
v 0 1 0.3
v 0 1 0.2
v 0 1 -0.2
v 0 1 -0.3
v 0 1.1 0.5
v 0 1.1 0.4
v 0 1.1 0.1
v 0 1.1 -0.1
v 0 1.1 -0.4
v 0 1.1 -0.5
v 0 1.2 0.4
v 0 1.2 0.3
v 0 1.2 0.2
v 0 1.2 0.1
v 0 1.2 -0.1
v 0 1.2 -0.2
v 0 1.2 -0.3
v 0 1.2 -0.4
v 0 1.3 0.3
v 0 1.3 0.2
v 0 1.3 -0.2
v 0 1.3 -0.3
v 0.1 0.2 0.3
v 0.1 0.2 -0.3
v 0.1 0.8 0.5
v 0.1 0.8 0.3
v 0.1 0.8 -0.3
v 0.1 0.8 -0.5
v 0.1 0.9 0.5
v 0.1 0.9 0.3
v 0.1 0.9 0.2
v 0.1 0.9 -0.2
v 0.1 0.9 -0.3
v 0.1 0.9 -0.5
v 0.1 1 0.3
v 0.1 1 0.2
v 0.1 1 -0.2
v 0.1 1 -0.3
v 0.1 1.1 0.5
v 0.1 1.1 0.4
v 0.1 1.1 0.1
v 0.1 1.1 -0.1
v 0.1 1.1 -0.4
v 0.1 1.1 -0.5
v 0.1 1.2 0.4
v 0.1 1.2 0.3
v 0.1 1.2 0.2
v 0.1 1.2 0.1
v 0.1 1.2 -0.1
v 0.1 1.2 -0.2
v 0.1 1.2 -0.3
v 0.1 1.2 -0.4
v 0.1 1.3 0.3
v 0.1 1.3 0.2
v 0.1 1.3 -0.2
v 0.1 1.3 -0.3
v 0 0.8 0.5
v 0 0.9 0.5
v 0 1.1 0.5
v 0.1 0.8 0.5
v 0.1 0.9 0.5
v 0.1 1.1 0.5
v 0 1.1 0.4
v 0 1.2 0.4
v 0.1 1.1 0.4
v 0.1 1.2 0.4
v 0 0.2 0.3
v 0 0.8 0.3
v 0 1.2 0.3
v 0 1.3 0.3
v 0.1 0.2 0.3
v 0.1 0.8 0.3
v 0.1 1.2 0.3
v 0.1 1.3 0.3
v 0 0.2 -0.3
v 0 0.8 -0.3
v 0 1.2 -0.3
v 0 1.3 -0.3
v 0.1 0.2 -0.3
v 0.1 0.8 -0.3
v 0.1 1.2 -0.3
v 0.1 1.3 -0.3
v 0 1.1 -0.4
v 0 1.2 -0.4
v 0.1 1.1 -0.4
v 0.1 1.2 -0.4
v 0 0.8 -0.5
v 0 0.9 -0.5
v 0 1.1 -0.5
v 0.1 0.8 -0.5
v 0.1 0.9 -0.5
v 0.1 1.1 -0.5
v 0 0.2 0.3
v 0.1 0.2 0.3
v 0 0.2 -0.3
v 0.1 0.2 -0.3
v 0 0.8 0.5
v 0.1 0.8 0.5
v 0 0.8 0.3
v 0.1 0.8 0.3
v 0 0.8 -0.3
v 0.1 0.8 -0.3
v 0 0.8 -0.5
v 0.1 0.8 -0.5
v 0 1.1 0.5
v 0.1 1.1 0.5
v 0 1.1 0.4
v 0.1 1.1 0.4
v 0 1.1 -0.4
v 0.1 1.1 -0.4
v 0 1.1 -0.5
v 0.1 1.1 -0.5
v 0 1.2 0.4
v 0.1 1.2 0.4
v 0 1.2 0.3
v 0.1 1.2 0.3
v 0 1.2 -0.3
v 0.1 1.2 -0.3
v 0 1.2 -0.4
v 0.1 1.2 -0.4
v 0 1.3 0.3
v 0.1 1.3 0.3
v 0 1.3 0.2
v 0.1 1.3 0.2
v 0 1.3 -0.2
v 0.1 1.3 -0.2
v 0 1.3 -0.3
v 0.1 1.3 -0.3

# faces
f 4/2/1 2/2/1 1/2/1
f 5/2/1 2/2/1 4/2/1
f 7/1/1 4/1/1 3/1/1
f 8/2/1 5/2/1 4/2/1
f 8/1/1 4/1/1 7/1/1
f 9/2/1 5/2/1 8/2/1
f 10/2/1 5/2/1 9/2/1
f 11/1/1 6/1/1 5/1/1
f 11/2/1 5/2/1 10/2/1
f 12/1/1 6/1/1 11/1/1
f 13/2/1 8/2/1 7/2/1
f 13/1/1 9/1/1 8/1/1
f 14/2/1 10/2/1 9/2/1
f 14/1/1 9/1/1 13/1/1
f 15/1/1 11/1/1 10/1/1
f 15/2/1 10/2/1 14/2/1
f 16/2/1 12/2/1 11/2/1
f 16/1/1 11/1/1 15/1/1
f 17/2/1 13/2/1 7/2/1
f 17/2/1 15/2/1 14/2/1
f 17/2/1 16/2/1 15/2/1
f 17/2/1 14/2/1 13/2/1
f 18/2/1 16/2/1 17/2/1
f 19/2/1 16/2/1 18/2/1
f 20/2/1 16/2/1 19/2/1
f 21/2/1 12/2/1 16/2/1
f 21/2/1 16/2/1 20/2/1
f 22/2/1 12/2/1 21/2/1
f 23/2/1 19/2/1 18/2/1
f 24/2/1 19/2/1 23/2/1
f 25/2/1 19/2/1 24/2/1
f 26/1/1 20/1/1 19/1/1
f 26/2/1 19/2/1 25/2/1
f 27/2/1 21/2/1 20/2/1
f 27/1/1 20/1/1 26/1/1
f 28/2/1 21/2/1 27/2/1
f 29/2/1 21/2/1 28/2/1
f 30/2/1 21/2/1 29/2/1
f 31/2/1 25/2/1 24/2/1
f 32/1/1 26/1/1 25/1/1
f 32/2/1 25/2/1 31/2/1
f 32/1/1 27/1/1 26/1/1
f 32/1/1 28/1/1 27/1/1
f 33/2/1 29/2/1 28/2/1
f 33/1/1 28/1/1 32/1/1
f 34/2/1 29/2/1 33/2/1
f 35/2/2 36/2/2 38/2/2
f 38/2/2 36/2/2 39/2/2
f 37/1/2 38/1/2 41/1/2
f 38/2/2 39/2/2 42/2/2
f 41/1/2 38/1/2 42/1/2
f 42/2/2 39/2/2 43/2/2
f 43/2/2 39/2/2 44/2/2
f 39/1/2 40/1/2 45/1/2
f 44/2/2 39/2/2 45/2/2
f 45/1/2 40/1/2 46/1/2
f 41/2/2 42/2/2 47/2/2
f 42/1/2 43/1/2 47/1/2
f 43/2/2 44/2/2 48/2/2
f 47/1/2 43/1/2 48/1/2
f 44/1/2 45/1/2 49/1/2
f 48/2/2 44/2/2 49/2/2
f 45/2/2 46/2/2 50/2/2
f 49/1/2 45/1/2 50/1/2
f 41/2/2 47/2/2 51/2/2
f 48/2/2 49/2/2 51/2/2
f 49/2/2 50/2/2 51/2/2
f 47/2/2 48/2/2 51/2/2
f 51/2/2 50/2/2 52/2/2
f 52/2/2 50/2/2 53/2/2
f 53/2/2 50/2/2 54/2/2
f 50/2/2 46/2/2 55/2/2
f 54/2/2 50/2/2 55/2/2
f 55/2/2 46/2/2 56/2/2
f 52/2/2 53/2/2 57/2/2
f 57/2/2 53/2/2 58/2/2
f 58/2/2 53/2/2 59/2/2
f 53/1/2 54/1/2 60/1/2
f 59/2/2 53/2/2 60/2/2
f 54/2/2 55/2/2 61/2/2
f 60/1/2 54/1/2 61/1/2
f 61/2/2 55/2/2 62/2/2
f 62/2/2 55/2/2 63/2/2
f 63/2/2 55/2/2 64/2/2
f 58/2/2 59/2/2 65/2/2
f 59/1/2 60/1/2 66/1/2
f 65/2/2 59/2/2 66/2/2
f 60/1/2 61/1/2 66/1/2
f 61/1/2 62/1/2 66/1/2
f 62/2/2 63/2/2 67/2/2
f 66/1/2 62/1/2 67/1/2
f 67/2/2 63/2/2 68/2/2
f 72/1/3 70/1/3 69/1/3
f 73/2/3 71/2/3 70/2/3
f 73/1/3 70/1/3 72/1/3
f 74/2/3 71/2/3 73/2/3
f 77/2/3 76/2/3 75/2/3
f 78/2/3 76/2/3 77/2/3
f 83/2/3 80/2/3 79/2/3
f 84/2/3 80/2/3 83/2/3
f 85/2/3 82/2/3 81/2/3
f 86/2/3 82/2/3 85/2/3
f 87/2/4 88/2/4 91/2/4
f 91/2/4 88/2/4 92/2/4
f 89/2/4 90/2/4 93/2/4
f 93/2/4 90/2/4 94/2/4
f 95/2/4 96/2/4 97/2/4
f 97/2/4 96/2/4 98/2/4
f 99/1/4 100/1/4 102/1/4
f 100/2/4 101/2/4 103/2/4
f 102/1/4 100/1/4 103/1/4
f 103/2/4 101/2/4 104/2/4
f 107/2/5 106/2/5 105/2/5
f 108/2/5 106/2/5 107/2/5
f 111/1/5 110/1/5 109/1/5
f 112/1/5 110/1/5 111/1/5
f 115/1/5 114/1/5 113/1/5
f 116/1/5 114/1/5 115/1/5
f 117/2/6 118/2/6 119/2/6
f 119/2/6 118/2/6 120/2/6
f 121/2/6 122/2/6 123/2/6
f 123/2/6 122/2/6 124/2/6
f 125/2/6 126/2/6 127/2/6
f 127/2/6 126/2/6 128/2/6
f 129/2/6 130/2/6 131/2/6
f 131/2/6 130/2/6 132/2/6
f 133/2/6 134/2/6 135/2/6
f 135/2/6 134/2/6 136/2/6
f 135/1/6 136/1/6 137/1/6
f 137/1/6 136/1/6 138/1/6
f 137/2/6 138/2/6 139/2/6
f 139/2/6 138/2/6 140/2/6
