# MagicaVoxel @ Ephtracy

# group
o 

# material
mtllib RackItem9.mtl
usemtl palette

# normals
vn -1 0 0
vn 1 0 0
vn 0 0 1
vn 0 0 -1
vn 0 -1 0
vn 0 1 0

# texcoords
vt 0.505859 0.5
vt 0.537109 0.5
vt 0.630859 0.5
vt 0.658203 0.5
vt 0.662109 0.5
vt 0.666016 0.5

# verts
v -0.1 0.2 0.3
v -0.1 0.2 0.2
v -0.1 0.2 0
v -0.1 0.2 -0.1
v -0.1 0.2 -0.2
v -0.1 0.2 -0.3
v -0.1 0.3 0.5
v -0.1 0.3 0.4
v -0.1 0.3 0.3
v -0.1 0.3 0.1
v -0.1 0.3 0
v -0.1 0.3 -0.3
v -0.1 0.3 -0.4
v -0.1 0.3 -0.5
v -0.1 0.4 0.5
v -0.1 0.4 0.4
v -0.1 0.4 0.3
v -0.1 0.4 0.2
v -0.1 0.4 0.1
v -0.1 0.4 0
v -0.1 0.4 -0.2
v -0.1 0.4 -0.3
v -0.1 0.4 -0.4
v -0.1 0.4 -0.5
v -0.1 0.5 0.5
v -0.1 0.5 0.4
v -0.1 0.5 0.3
v -0.1 0.5 0.2
v -0.1 0.5 0.1
v -0.1 0.5 0
v -0.1 0.5 -0.2
v -0.1 0.5 -0.3
v -0.1 0.5 -0.4
v -0.1 0.5 -0.5
v -0.1 0.6 0.5
v -0.1 0.6 0.4
v -0.1 0.6 0.3
v -0.1 0.6 0.2
v -0.1 0.6 0.1
v -0.1 0.6 0
v -0.1 0.6 -0.2
v -0.1 0.6 -0.3
v -0.1 0.6 -0.4
v -0.1 0.6 -0.5
v -0.1 0.7 0.5
v -0.1 0.7 0.4
v -0.1 0.7 0.3
v -0.1 0.7 0.2
v -0.1 0.7 0.1
v -0.1 0.7 0
v -0.1 0.7 -0.2
v -0.1 0.7 -0.3
v -0.1 0.7 -0.4
v -0.1 0.7 -0.5
v -0.1 0.8 0.5
v -0.1 0.8 0.4
v -0.1 0.8 0.3
v -0.1 0.8 0.2
v -0.1 0.8 0.1
v -0.1 0.8 0
v -0.1 0.8 -0.2
v -0.1 0.8 -0.3
v -0.1 0.8 -0.4
v -0.1 0.8 -0.5
v -0.1 0.9 0.5
v -0.1 0.9 0.4
v -0.1 0.9 0.3
v -0.1 0.9 0.2
v -0.1 0.9 0.1
v -0.1 0.9 0
v -0.1 0.9 -0.2
v -0.1 0.9 -0.3
v -0.1 0.9 -0.4
v -0.1 0.9 -0.5
v -0.1 1 0.5
v -0.1 1 0.4
v -0.1 1 0.3
v -0.1 1 0.2
v -0.1 1 0.1
v -0.1 1 0
v -0.1 1 -0.2
v -0.1 1 -0.3
v -0.1 1 -0.4
v -0.1 1 -0.5
v -0.1 1.1 0.5
v -0.1 1.1 0.4
v -0.1 1.1 0.3
v -0.1 1.1 0.2
v -0.1 1.1 0.1
v -0.1 1.1 0
v -0.1 1.1 -0.2
v -0.1 1.1 -0.3
v -0.1 1.1 -0.4
v -0.1 1.1 -0.5
v -0.1 1.2 0.5
v -0.1 1.2 0.4
v -0.1 1.2 0.3
v -0.1 1.2 0.2
v -0.1 1.2 0.1
v -0.1 1.2 -0.1
v -0.1 1.2 -0.2
v -0.1 1.2 -0.3
v -0.1 1.2 -0.4
v -0.1 1.2 -0.5
v -0.1 1.3 0.4
v -0.1 1.3 0.3
v -0.1 1.3 0.1
v -0.1 1.3 -0.1
v -0.1 1.3 -0.3
v -0.1 1.3 -0.4
v -1.49012e-08 0.2 0.3
v -1.49012e-08 0.2 0.2
v -1.49012e-08 0.2 0
v -1.49012e-08 0.2 -0.1
v -1.49012e-08 0.2 -0.2
v -1.49012e-08 0.2 -0.3
v -1.49012e-08 0.3 0.5
v -1.49012e-08 0.3 0.4
v -1.49012e-08 0.3 0.3
v -1.49012e-08 0.3 0.1
v -1.49012e-08 0.3 0
v -1.49012e-08 0.3 -0.3
v -1.49012e-08 0.3 -0.4
v -1.49012e-08 0.3 -0.5
v -1.49012e-08 0.4 0.5
v -1.49012e-08 0.4 0.4
v -1.49012e-08 0.4 0.3
v -1.49012e-08 0.4 0.2
v -1.49012e-08 0.4 0.1
v -1.49012e-08 0.4 0
v -1.49012e-08 0.4 -0.2
v -1.49012e-08 0.4 -0.3
v -1.49012e-08 0.4 -0.4
v -1.49012e-08 0.4 -0.5
v -1.49012e-08 0.5 0.5
v -1.49012e-08 0.5 0.4
v -1.49012e-08 0.5 0.3
v -1.49012e-08 0.5 0.2
v -1.49012e-08 0.5 0.1
v -1.49012e-08 0.5 0
v -1.49012e-08 0.5 -0.2
v -1.49012e-08 0.5 -0.3
v -1.49012e-08 0.5 -0.4
v -1.49012e-08 0.5 -0.5
v -1.49012e-08 0.6 0.5
v -1.49012e-08 0.6 0.4
v -1.49012e-08 0.6 0.3
v -1.49012e-08 0.6 0.2
v -1.49012e-08 0.6 0.1
v -1.49012e-08 0.6 0
v -1.49012e-08 0.6 -0.2
v -1.49012e-08 0.6 -0.3
v -1.49012e-08 0.6 -0.4
v -1.49012e-08 0.6 -0.5
v -1.49012e-08 0.7 0.5
v -1.49012e-08 0.7 0.4
v -1.49012e-08 0.7 0.3
v -1.49012e-08 0.7 0.2
v -1.49012e-08 0.7 0.1
v -1.49012e-08 0.7 0
v -1.49012e-08 0.7 -0.2
v -1.49012e-08 0.7 -0.3
v -1.49012e-08 0.7 -0.4
v -1.49012e-08 0.7 -0.5
v -1.49012e-08 0.8 0.5
v -1.49012e-08 0.8 0.4
v -1.49012e-08 0.8 0.3
v -1.49012e-08 0.8 0.2
v -1.49012e-08 0.8 0.1
v -1.49012e-08 0.8 0
v -1.49012e-08 0.8 -0.2
v -1.49012e-08 0.8 -0.3
v -1.49012e-08 0.8 -0.4
v -1.49012e-08 0.8 -0.5
v -1.49012e-08 0.9 0.5
v -1.49012e-08 0.9 0.4
v -1.49012e-08 0.9 0.3
v -1.49012e-08 0.9 0.2
v -1.49012e-08 0.9 0.1
v -1.49012e-08 0.9 0
v -1.49012e-08 0.9 -0.2
v -1.49012e-08 0.9 -0.3
v -1.49012e-08 0.9 -0.4
v -1.49012e-08 0.9 -0.5
v -1.49012e-08 1 0.5
v -1.49012e-08 1 0.4
v -1.49012e-08 1 0.3
v -1.49012e-08 1 0.2
v -1.49012e-08 1 0.1
v -1.49012e-08 1 0
v -1.49012e-08 1 -0.2
v -1.49012e-08 1 -0.3
v -1.49012e-08 1 -0.4
v -1.49012e-08 1 -0.5
v -1.49012e-08 1.1 0.5
v -1.49012e-08 1.1 0.4
v -1.49012e-08 1.1 0.3
v -1.49012e-08 1.1 0.2
v -1.49012e-08 1.1 0.1
v -1.49012e-08 1.1 0
v -1.49012e-08 1.1 -0.2
v -1.49012e-08 1.1 -0.3
v -1.49012e-08 1.1 -0.4
v -1.49012e-08 1.1 -0.5
v -1.49012e-08 1.2 0.5
v -1.49012e-08 1.2 0.4
v -1.49012e-08 1.2 0.3
v -1.49012e-08 1.2 0.2
v -1.49012e-08 1.2 0.1
v -1.49012e-08 1.2 -0.1
v -1.49012e-08 1.2 -0.2
v -1.49012e-08 1.2 -0.3
v -1.49012e-08 1.2 -0.4
v -1.49012e-08 1.2 -0.5
v -1.49012e-08 1.3 0.4
v -1.49012e-08 1.3 0.3
v -1.49012e-08 1.3 0.1
v -1.49012e-08 1.3 -0.1
v -1.49012e-08 1.3 -0.3
v -1.49012e-08 1.3 -0.4
v -0.1 0.3 0.5
v -0.1 0.4 0.5
v -0.1 0.5 0.5
v -0.1 0.6 0.5
v -0.1 0.7 0.5
v -0.1 0.8 0.5
v -0.1 0.9 0.5
v -0.1 1 0.5
v -0.1 1.1 0.5
v -0.1 1.2 0.5
v -1.49012e-08 0.3 0.5
v -1.49012e-08 0.4 0.5
v -1.49012e-08 0.5 0.5
v -1.49012e-08 0.6 0.5
v -1.49012e-08 0.7 0.5
v -1.49012e-08 0.8 0.5
v -1.49012e-08 0.9 0.5
v -1.49012e-08 1 0.5
v -1.49012e-08 1.1 0.5
v -1.49012e-08 1.2 0.5
v -0.1 1.2 0.4
v -0.1 1.3 0.4
v -1.49012e-08 1.2 0.4
v -1.49012e-08 1.3 0.4
v -0.1 0.2 0.3
v -0.1 0.3 0.3
v -1.49012e-08 0.2 0.3
v -1.49012e-08 0.3 0.3
v -0.1 0.2 -0.3
v -0.1 0.3 -0.3
v -1.49012e-08 0.2 -0.3
v -1.49012e-08 0.3 -0.3
v -0.1 1.2 -0.4
v -0.1 1.3 -0.4
v -1.49012e-08 1.2 -0.4
v -1.49012e-08 1.3 -0.4
v -0.1 0.3 -0.5
v -0.1 0.4 -0.5
v -0.1 0.5 -0.5
v -0.1 0.6 -0.5
v -0.1 0.7 -0.5
v -0.1 0.8 -0.5
v -0.1 0.9 -0.5
v -0.1 1 -0.5
v -0.1 1.1 -0.5
v -0.1 1.2 -0.5
v -1.49012e-08 0.3 -0.5
v -1.49012e-08 0.4 -0.5
v -1.49012e-08 0.5 -0.5
v -1.49012e-08 0.6 -0.5
v -1.49012e-08 0.7 -0.5
v -1.49012e-08 0.8 -0.5
v -1.49012e-08 0.9 -0.5
v -1.49012e-08 1 -0.5
v -1.49012e-08 1.1 -0.5
v -1.49012e-08 1.2 -0.5
v -0.1 0.2 0.3
v -1.49012e-08 0.2 0.3
v -0.1 0.2 0.2
v -1.49012e-08 0.2 0.2
v -0.1 0.2 0
v -1.49012e-08 0.2 0
v -0.1 0.2 -0.1
v -1.49012e-08 0.2 -0.1
v -0.1 0.2 -0.2
v -1.49012e-08 0.2 -0.2
v -0.1 0.2 -0.3
v -1.49012e-08 0.2 -0.3
v -0.1 0.3 0.5
v -1.49012e-08 0.3 0.5
v -0.1 0.3 0.4
v -1.49012e-08 0.3 0.4
v -0.1 0.3 0.3
v -1.49012e-08 0.3 0.3
v -0.1 0.3 -0.3
v -1.49012e-08 0.3 -0.3
v -0.1 0.3 -0.4
v -1.49012e-08 0.3 -0.4
v -0.1 0.3 -0.5
v -1.49012e-08 0.3 -0.5
v -0.1 1.2 0.5
v -1.49012e-08 1.2 0.5
v -0.1 1.2 0.4
v -1.49012e-08 1.2 0.4
v -0.1 1.2 -0.4
v -1.49012e-08 1.2 -0.4
v -0.1 1.2 -0.5
v -1.49012e-08 1.2 -0.5
v -0.1 1.3 0.4
v -1.49012e-08 1.3 0.4
v -0.1 1.3 0.3
v -1.49012e-08 1.3 0.3
v -0.1 1.3 0.1
v -1.49012e-08 1.3 0.1
v -0.1 1.3 -0.1
v -1.49012e-08 1.3 -0.1
v -0.1 1.3 -0.3
v -1.49012e-08 1.3 -0.3
v -0.1 1.3 -0.4
v -1.49012e-08 1.3 -0.4

# faces
f 9/5/1 2/5/1 1/5/1
f 10/4/1 3/4/1 2/4/1
f 11/2/1 4/2/1 3/2/1
f 11/4/1 3/4/1 10/4/1
f 12/5/1 6/5/1 5/5/1
f 15/4/1 8/4/1 7/4/1
f 16/1/1 9/1/1 8/1/1
f 16/4/1 8/4/1 15/4/1
f 17/5/1 2/5/1 9/5/1
f 17/1/1 9/1/1 16/1/1
f 18/4/1 10/4/1 2/4/1
f 18/5/1 2/5/1 17/5/1
f 19/6/1 11/6/1 10/6/1
f 19/4/1 10/4/1 18/4/1
f 20/2/1 4/2/1 11/2/1
f 20/6/1 11/6/1 19/6/1
f 21/4/1 5/4/1 4/4/1
f 21/5/1 12/5/1 5/5/1
f 22/1/1 13/1/1 12/1/1
f 22/5/1 12/5/1 21/5/1
f 23/4/1 14/4/1 13/4/1
f 23/1/1 13/1/1 22/1/1
f 24/4/1 14/4/1 23/4/1
f 25/5/1 16/5/1 15/5/1
f 26/1/1 17/1/1 16/1/1
f 26/5/1 16/5/1 25/5/1
f 27/4/1 19/4/1 18/4/1
f 27/1/1 17/1/1 26/1/1
f 27/4/1 18/4/1 17/4/1
f 27/4/1 20/4/1 19/4/1
f 28/4/1 20/4/1 27/4/1
f 29/4/1 20/4/1 28/4/1
f 30/2/1 4/2/1 20/2/1
f 30/4/1 20/4/1 29/4/1
f 31/4/1 22/4/1 21/4/1
f 31/4/1 21/4/1 4/4/1
f 32/1/1 23/1/1 22/1/1
f 32/4/1 22/4/1 31/4/1
f 33/5/1 24/5/1 23/5/1
f 33/1/1 23/1/1 32/1/1
f 34/5/1 24/5/1 33/5/1
f 35/4/1 26/4/1 25/4/1
f 36/1/1 27/1/1 26/1/1
f 36/4/1 26/4/1 35/4/1
f 37/5/1 28/5/1 27/5/1
f 37/1/1 27/1/1 36/1/1
f 38/4/1 29/4/1 28/4/1
f 38/5/1 28/5/1 37/5/1
f 39/6/1 30/6/1 29/6/1
f 39/4/1 29/4/1 38/4/1
f 40/2/1 4/2/1 30/2/1
f 40/6/1 30/6/1 39/6/1
f 41/5/1 32/5/1 31/5/1
f 41/4/1 31/4/1 4/4/1
f 42/1/1 33/1/1 32/1/1
f 42/5/1 32/5/1 41/5/1
f 43/4/1 34/4/1 33/4/1
f 43/1/1 33/1/1 42/1/1
f 44/4/1 34/4/1 43/4/1
f 45/5/1 36/5/1 35/5/1
f 46/1/1 37/1/1 36/1/1
f 46/5/1 36/5/1 45/5/1
f 47/4/1 39/4/1 38/4/1
f 47/1/1 37/1/1 46/1/1
f 47/4/1 40/4/1 39/4/1
f 47/4/1 38/4/1 37/4/1
f 48/4/1 40/4/1 47/4/1
f 49/4/1 40/4/1 48/4/1
f 50/2/1 4/2/1 40/2/1
f 50/4/1 40/4/1 49/4/1
f 51/4/1 41/4/1 4/4/1
f 51/4/1 42/4/1 41/4/1
f 52/1/1 43/1/1 42/1/1
f 52/4/1 42/4/1 51/4/1
f 53/5/1 44/5/1 43/5/1
f 53/1/1 43/1/1 52/1/1
f 54/5/1 44/5/1 53/5/1
f 55/4/1 46/4/1 45/4/1
f 56/1/1 47/1/1 46/1/1
f 56/4/1 46/4/1 55/4/1
f 57/5/1 48/5/1 47/5/1
f 57/1/1 47/1/1 56/1/1
f 58/4/1 49/4/1 48/4/1
f 58/5/1 48/5/1 57/5/1
f 59/6/1 50/6/1 49/6/1
f 59/4/1 49/4/1 58/4/1
f 60/2/1 4/2/1 50/2/1
f 60/6/1 50/6/1 59/6/1
f 61/5/1 52/5/1 51/5/1
f 61/4/1 51/4/1 4/4/1
f 62/1/1 53/1/1 52/1/1
f 62/5/1 52/5/1 61/5/1
f 63/4/1 54/4/1 53/4/1
f 63/1/1 53/1/1 62/1/1
f 64/4/1 54/4/1 63/4/1
f 65/5/1 56/5/1 55/5/1
f 66/1/1 57/1/1 56/1/1
f 66/5/1 56/5/1 65/5/1
f 67/4/1 60/4/1 59/4/1
f 67/1/1 57/1/1 66/1/1
f 67/4/1 59/4/1 58/4/1
f 67/4/1 58/4/1 57/4/1
f 68/4/1 60/4/1 67/4/1
f 69/4/1 60/4/1 68/4/1
f 70/2/1 4/2/1 60/2/1
f 70/4/1 60/4/1 69/4/1
f 71/4/1 61/4/1 4/4/1
f 71/4/1 62/4/1 61/4/1
f 72/1/1 63/1/1 62/1/1
f 72/4/1 62/4/1 71/4/1
f 73/5/1 64/5/1 63/5/1
f 73/1/1 63/1/1 72/1/1
f 74/5/1 64/5/1 73/5/1
f 75/4/1 66/4/1 65/4/1
f 76/1/1 67/1/1 66/1/1
f 76/4/1 66/4/1 75/4/1
f 77/5/1 68/5/1 67/5/1
f 77/1/1 67/1/1 76/1/1
f 78/4/1 69/4/1 68/4/1
f 78/5/1 68/5/1 77/5/1
f 79/6/1 70/6/1 69/6/1
f 79/4/1 69/4/1 78/4/1
f 80/2/1 4/2/1 70/2/1
f 80/6/1 70/6/1 79/6/1
f 81/5/1 72/5/1 71/5/1
f 81/4/1 71/4/1 4/4/1
f 82/1/1 73/1/1 72/1/1
f 82/5/1 72/5/1 81/5/1
f 83/4/1 74/4/1 73/4/1
f 83/1/1 73/1/1 82/1/1
f 84/4/1 74/4/1 83/4/1
f 85/5/1 76/5/1 75/5/1
f 86/4/1 77/4/1 76/4/1
f 86/5/1 76/5/1 85/5/1
f 86/4/1 80/4/1 79/4/1
f 86/4/1 79/4/1 78/4/1
f 86/4/1 78/4/1 77/4/1
f 87/4/1 80/4/1 86/4/1
f 88/4/1 80/4/1 87/4/1
f 89/4/1 80/4/1 88/4/1
f 90/2/1 4/2/1 80/2/1
f 90/4/1 80/4/1 89/4/1
f 91/4/1 83/4/1 82/4/1
f 91/4/1 82/4/1 81/4/1
f 91/4/1 81/4/1 4/4/1
f 92/4/1 83/4/1 91/4/1
f 93/5/1 84/5/1 83/5/1
f 93/4/1 83/4/1 92/4/1
f 94/5/1 84/5/1 93/5/1
f 95/4/1 86/4/1 85/4/1
f 95/4/1 87/4/1 86/4/1
f 96/4/1 87/4/1 95/4/1
f 97/5/1 88/5/1 87/5/1
f 97/4/1 87/4/1 96/4/1
f 98/4/1 89/4/1 88/4/1
f 98/5/1 88/5/1 97/5/1
f 99/2/1 90/2/1 89/2/1
f 99/4/1 89/4/1 98/4/1
f 100/2/1 4/2/1 90/2/1
f 100/2/1 90/2/1 99/2/1
f 100/4/1 91/4/1 4/4/1
f 101/5/1 92/5/1 91/5/1
f 101/4/1 91/4/1 100/4/1
f 102/4/1 94/4/1 93/4/1
f 102/5/1 92/5/1 101/5/1
f 102/4/1 93/4/1 92/4/1
f 103/4/1 94/4/1 102/4/1
f 104/4/1 94/4/1 103/4/1
f 105/4/1 97/4/1 96/4/1
f 106/2/1 99/2/1 98/2/1
f 106/4/1 97/4/1 105/4/1
f 106/2/1 98/2/1 97/2/1
f 107/3/1 100/3/1 99/3/1
f 107/2/1 99/2/1 106/2/1
f 108/2/1 102/2/1 101/2/1
f 108/3/1 100/3/1 107/3/1
f 108/2/1 101/2/1 100/2/1
f 109/4/1 103/4/1 102/4/1
f 109/2/1 102/2/1 108/2/1
f 110/4/1 103/4/1 109/4/1
f 111/5/2 112/5/2 119/5/2
f 112/4/2 113/4/2 120/4/2
f 113/2/2 114/2/2 121/2/2
f 120/4/2 113/4/2 121/4/2
f 115/5/2 116/5/2 122/5/2
f 117/4/2 118/4/2 125/4/2
f 118/1/2 119/1/2 126/1/2
f 125/4/2 118/4/2 126/4/2
f 119/5/2 112/5/2 127/5/2
f 126/1/2 119/1/2 127/1/2
f 112/4/2 120/4/2 128/4/2
f 127/5/2 112/5/2 128/5/2
f 120/6/2 121/6/2 129/6/2
f 128/4/2 120/4/2 129/4/2
f 121/2/2 114/2/2 130/2/2
f 129/6/2 121/6/2 130/6/2
f 114/4/2 115/4/2 131/4/2
f 115/5/2 122/5/2 131/5/2
f 122/1/2 123/1/2 132/1/2
f 131/5/2 122/5/2 132/5/2
f 123/4/2 124/4/2 133/4/2
f 132/1/2 123/1/2 133/1/2
f 133/4/2 124/4/2 134/4/2
f 125/5/2 126/5/2 135/5/2
f 126/1/2 127/1/2 136/1/2
f 135/5/2 126/5/2 136/5/2
f 128/4/2 129/4/2 137/4/2
f 136/1/2 127/1/2 137/1/2
f 127/4/2 128/4/2 137/4/2
f 129/4/2 130/4/2 137/4/2
f 137/4/2 130/4/2 138/4/2
f 138/4/2 130/4/2 139/4/2
f 130/2/2 114/2/2 140/2/2
f 139/4/2 130/4/2 140/4/2
f 131/4/2 132/4/2 141/4/2
f 114/4/2 131/4/2 141/4/2
f 132/1/2 133/1/2 142/1/2
f 141/4/2 132/4/2 142/4/2
f 133/5/2 134/5/2 143/5/2
f 142/1/2 133/1/2 143/1/2
f 143/5/2 134/5/2 144/5/2
f 135/4/2 136/4/2 145/4/2
f 136/1/2 137/1/2 146/1/2
f 145/4/2 136/4/2 146/4/2
f 137/5/2 138/5/2 147/5/2
f 146/1/2 137/1/2 147/1/2
f 138/4/2 139/4/2 148/4/2
f 147/5/2 138/5/2 148/5/2
f 139/6/2 140/6/2 149/6/2
f 148/4/2 139/4/2 149/4/2
f 140/2/2 114/2/2 150/2/2
f 149/6/2 140/6/2 150/6/2
f 141/5/2 142/5/2 151/5/2
f 114/4/2 141/4/2 151/4/2
f 142/1/2 143/1/2 152/1/2
f 151/5/2 142/5/2 152/5/2
f 143/4/2 144/4/2 153/4/2
f 152/1/2 143/1/2 153/1/2
f 153/4/2 144/4/2 154/4/2
f 145/5/2 146/5/2 155/5/2
f 146/1/2 147/1/2 156/1/2
f 155/5/2 146/5/2 156/5/2
f 148/4/2 149/4/2 157/4/2
f 156/1/2 147/1/2 157/1/2
f 149/4/2 150/4/2 157/4/2
f 147/4/2 148/4/2 157/4/2
f 157/4/2 150/4/2 158/4/2
f 158/4/2 150/4/2 159/4/2
f 150/2/2 114/2/2 160/2/2
f 159/4/2 150/4/2 160/4/2
f 114/4/2 151/4/2 161/4/2
f 151/4/2 152/4/2 161/4/2
f 152/1/2 153/1/2 162/1/2
f 161/4/2 152/4/2 162/4/2
f 153/5/2 154/5/2 163/5/2
f 162/1/2 153/1/2 163/1/2
f 163/5/2 154/5/2 164/5/2
f 155/4/2 156/4/2 165/4/2
f 156/1/2 157/1/2 166/1/2
f 165/4/2 156/4/2 166/4/2
f 157/5/2 158/5/2 167/5/2
f 166/1/2 157/1/2 167/1/2
f 158/4/2 159/4/2 168/4/2
f 167/5/2 158/5/2 168/5/2
f 159/6/2 160/6/2 169/6/2
f 168/4/2 159/4/2 169/4/2
f 160/2/2 114/2/2 170/2/2
f 169/6/2 160/6/2 170/6/2
f 161/5/2 162/5/2 171/5/2
f 114/4/2 161/4/2 171/4/2
f 162/1/2 163/1/2 172/1/2
f 171/5/2 162/5/2 172/5/2
f 163/4/2 164/4/2 173/4/2
f 172/1/2 163/1/2 173/1/2
f 173/4/2 164/4/2 174/4/2
f 165/5/2 166/5/2 175/5/2
f 166/1/2 167/1/2 176/1/2
f 175/5/2 166/5/2 176/5/2
f 169/4/2 170/4/2 177/4/2
f 176/1/2 167/1/2 177/1/2
f 168/4/2 169/4/2 177/4/2
f 167/4/2 168/4/2 177/4/2
f 177/4/2 170/4/2 178/4/2
f 178/4/2 170/4/2 179/4/2
f 170/2/2 114/2/2 180/2/2
f 179/4/2 170/4/2 180/4/2
f 114/4/2 171/4/2 181/4/2
f 171/4/2 172/4/2 181/4/2
f 172/1/2 173/1/2 182/1/2
f 181/4/2 172/4/2 182/4/2
f 173/5/2 174/5/2 183/5/2
f 182/1/2 173/1/2 183/1/2
f 183/5/2 174/5/2 184/5/2
f 175/4/2 176/4/2 185/4/2
f 176/1/2 177/1/2 186/1/2
f 185/4/2 176/4/2 186/4/2
f 177/5/2 178/5/2 187/5/2
f 186/1/2 177/1/2 187/1/2
f 178/4/2 179/4/2 188/4/2
f 187/5/2 178/5/2 188/5/2
f 179/6/2 180/6/2 189/6/2
f 188/4/2 179/4/2 189/4/2
f 180/2/2 114/2/2 190/2/2
f 189/6/2 180/6/2 190/6/2
f 181/5/2 182/5/2 191/5/2
f 114/4/2 181/4/2 191/4/2
f 182/1/2 183/1/2 192/1/2
f 191/5/2 182/5/2 192/5/2
f 183/4/2 184/4/2 193/4/2
f 192/1/2 183/1/2 193/1/2
f 193/4/2 184/4/2 194/4/2
f 185/5/2 186/5/2 195/5/2
f 186/4/2 187/4/2 196/4/2
f 195/5/2 186/5/2 196/5/2
f 189/4/2 190/4/2 196/4/2
f 188/4/2 189/4/2 196/4/2
f 187/4/2 188/4/2 196/4/2
f 196/4/2 190/4/2 197/4/2
f 197/4/2 190/4/2 198/4/2
f 198/4/2 190/4/2 199/4/2
f 190/2/2 114/2/2 200/2/2
f 199/4/2 190/4/2 200/4/2
f 192/4/2 193/4/2 201/4/2
f 191/4/2 192/4/2 201/4/2
f 114/4/2 191/4/2 201/4/2
f 201/4/2 193/4/2 202/4/2
f 193/5/2 194/5/2 203/5/2
f 202/4/2 193/4/2 203/4/2
f 203/5/2 194/5/2 204/5/2
f 195/4/2 196/4/2 205/4/2
f 196/4/2 197/4/2 205/4/2
f 205/4/2 197/4/2 206/4/2
f 197/5/2 198/5/2 207/5/2
f 206/4/2 197/4/2 207/4/2
f 198/4/2 199/4/2 208/4/2
f 207/5/2 198/5/2 208/5/2
f 199/2/2 200/2/2 209/2/2
f 208/4/2 199/4/2 209/4/2
f 200/2/2 114/2/2 210/2/2
f 209/2/2 200/2/2 210/2/2
f 114/4/2 201/4/2 210/4/2
f 201/5/2 202/5/2 211/5/2
f 210/4/2 201/4/2 211/4/2
f 203/4/2 204/4/2 212/4/2
f 211/5/2 202/5/2 212/5/2
f 202/4/2 203/4/2 212/4/2
f 212/4/2 204/4/2 213/4/2
f 213/4/2 204/4/2 214/4/2
f 206/4/2 207/4/2 215/4/2
f 208/2/2 209/2/2 216/2/2
f 215/4/2 207/4/2 216/4/2
f 207/2/2 208/2/2 216/2/2
f 209/3/2 210/3/2 217/3/2
f 216/2/2 209/2/2 217/2/2
f 211/2/2 212/2/2 218/2/2
f 217/3/2 210/3/2 218/3/2
f 210/2/2 211/2/2 218/2/2
f 212/4/2 213/4/2 219/4/2
f 218/2/2 212/2/2 219/2/2
f 219/4/2 213/4/2 220/4/2
f 231/4/3 222/4/3 221/4/3
f 232/5/3 223/5/3 222/5/3
f 232/4/3 222/4/3 231/4/3
f 233/4/3 224/4/3 223/4/3
f 233/5/3 223/5/3 232/5/3
f 234/5/3 225/5/3 224/5/3
f 234/4/3 224/4/3 233/4/3
f 235/4/3 226/4/3 225/4/3
f 235/5/3 225/5/3 234/5/3
f 236/5/3 227/5/3 226/5/3
f 236/4/3 226/4/3 235/4/3
f 237/4/3 228/4/3 227/4/3
f 237/5/3 227/5/3 236/5/3
f 238/5/3 229/5/3 228/5/3
f 238/4/3 228/4/3 237/4/3
f 239/4/3 230/4/3 229/4/3
f 239/5/3 229/5/3 238/5/3
f 240/4/3 230/4/3 239/4/3
f 243/4/3 242/4/3 241/4/3
f 244/4/3 242/4/3 243/4/3
f 247/5/3 246/5/3 245/5/3
f 248/5/3 246/5/3 247/5/3
f 249/5/4 250/5/4 251/5/4
f 251/5/4 250/5/4 252/5/4
f 253/4/4 254/4/4 255/4/4
f 255/4/4 254/4/4 256/4/4
f 257/4/4 258/4/4 267/4/4
f 258/5/4 259/5/4 268/5/4
f 267/4/4 258/4/4 268/4/4
f 259/4/4 260/4/4 269/4/4
f 268/5/4 259/5/4 269/5/4
f 260/5/4 261/5/4 270/5/4
f 269/4/4 260/4/4 270/4/4
f 261/4/4 262/4/4 271/4/4
f 270/5/4 261/5/4 271/5/4
f 262/5/4 263/5/4 272/5/4
f 271/4/4 262/4/4 272/4/4
f 263/4/4 264/4/4 273/4/4
f 272/5/4 263/5/4 273/5/4
f 264/5/4 265/5/4 274/5/4
f 273/4/4 264/4/4 274/4/4
f 265/4/4 266/4/4 275/4/4
f 274/5/4 265/5/4 275/5/4
f 275/4/4 266/4/4 276/4/4
f 279/5/5 278/5/5 277/5/5
f 280/5/5 278/5/5 279/5/5
f 281/4/5 280/4/5 279/4/5
f 282/4/5 280/4/5 281/4/5
f 283/2/5 282/2/5 281/2/5
f 284/2/5 282/2/5 283/2/5
f 285/4/5 284/4/5 283/4/5
f 286/4/5 284/4/5 285/4/5
f 287/5/5 286/5/5 285/5/5
f 288/5/5 286/5/5 287/5/5
f 291/4/5 290/4/5 289/4/5
f 292/4/5 290/4/5 291/4/5
f 293/1/5 292/1/5 291/1/5
f 294/1/5 292/1/5 293/1/5
f 297/1/5 296/1/5 295/1/5
f 298/1/5 296/1/5 297/1/5
f 299/4/5 298/4/5 297/4/5
f 300/4/5 298/4/5 299/4/5
f 301/4/6 302/4/6 303/4/6
f 303/4/6 302/4/6 304/4/6
f 305/4/6 306/4/6 307/4/6
f 307/4/6 306/4/6 308/4/6
f 309/4/6 310/4/6 311/4/6
f 311/4/6 310/4/6 312/4/6
f 311/2/6 312/2/6 313/2/6
f 313/2/6 312/2/6 314/2/6
f 313/3/6 314/3/6 315/3/6
f 315/3/6 314/3/6 316/3/6
f 315/2/6 316/2/6 317/2/6
f 317/2/6 316/2/6 318/2/6
f 317/4/6 318/4/6 319/4/6
f 319/4/6 318/4/6 320/4/6
