# MagicaVoxel @ Ephtracy

# group
o 

# material
mtllib RackItem7.mtl
usemtl palette

# normals
vn -1 0 0
vn 1 0 0
vn 0 0 1
vn 0 0 -1
vn 0 -1 0
vn 0 1 0

# texcoords
vt 0.568359 0.5
vt 0.658203 0.5
vt 0.693359 0.5

# verts
v -7.45058e-09 0.2 0.3
v -7.45058e-09 0.2 -0.3
v -7.45058e-09 0.3 0.3
v -7.45058e-09 0.3 -0.3
v -7.45058e-09 0.4 0.3
v -7.45058e-09 0.4 -0.3
v -7.45058e-09 0.5 0.3
v -7.45058e-09 0.5 -0.3
v -7.45058e-09 0.6 0.3
v -7.45058e-09 0.6 -0.3
v -7.45058e-09 0.7 0.3
v -7.45058e-09 0.7 -0.3
v -7.45058e-09 0.8 0.5
v -7.45058e-09 0.8 0.3
v -7.45058e-09 0.8 -0.3
v -7.45058e-09 0.8 -0.5
v -7.45058e-09 0.9 0.5
v -7.45058e-09 0.9 -0.5
v -7.45058e-09 1 0.5
v -7.45058e-09 1 -0.5
v -7.45058e-09 1.1 0.5
v -7.45058e-09 1.1 0.4
v -7.45058e-09 1.1 0.2
v -7.45058e-09 1.1 0.1
v -7.45058e-09 1.1 -0.1
v -7.45058e-09 1.1 -0.2
v -7.45058e-09 1.1 -0.4
v -7.45058e-09 1.1 -0.5
v -7.45058e-09 1.2 0.4
v -7.45058e-09 1.2 0.3
v -7.45058e-09 1.2 0.2
v -7.45058e-09 1.2 0.1
v -7.45058e-09 1.2 -0.1
v -7.45058e-09 1.2 -0.2
v -7.45058e-09 1.2 -0.3
v -7.45058e-09 1.2 -0.4
v -7.45058e-09 1.3 0.3
v -7.45058e-09 1.3 0.2
v -7.45058e-09 1.3 -0.2
v -7.45058e-09 1.3 -0.3
v 0.1 0.2 0.3
v 0.1 0.2 -0.3
v 0.1 0.3 0.3
v 0.1 0.3 -0.3
v 0.1 0.4 0.3
v 0.1 0.4 -0.3
v 0.1 0.5 0.3
v 0.1 0.5 -0.3
v 0.1 0.6 0.3
v 0.1 0.6 -0.3
v 0.1 0.7 0.3
v 0.1 0.7 -0.3
v 0.1 0.8 0.5
v 0.1 0.8 0.3
v 0.1 0.8 -0.3
v 0.1 0.8 -0.5
v 0.1 0.9 0.5
v 0.1 0.9 -0.5
v 0.1 1 0.5
v 0.1 1 -0.5
v 0.1 1.1 0.5
v 0.1 1.1 0.4
v 0.1 1.1 0.2
v 0.1 1.1 0.1
v 0.1 1.1 -0.1
v 0.1 1.1 -0.2
v 0.1 1.1 -0.4
v 0.1 1.1 -0.5
v 0.1 1.2 0.4
v 0.1 1.2 0.3
v 0.1 1.2 0.2
v 0.1 1.2 0.1
v 0.1 1.2 -0.1
v 0.1 1.2 -0.2
v 0.1 1.2 -0.3
v 0.1 1.2 -0.4
v 0.1 1.3 0.3
v 0.1 1.3 0.2
v 0.1 1.3 -0.2
v 0.1 1.3 -0.3
v -7.45058e-09 0.8 0.5
v -7.45058e-09 0.9 0.5
v -7.45058e-09 1 0.5
v -7.45058e-09 1.1 0.5
v 0.1 0.8 0.5
v 0.1 0.9 0.5
v 0.1 1 0.5
v 0.1 1.1 0.5
v -7.45058e-09 1.1 0.4
v -7.45058e-09 1.2 0.4
v 0.1 1.1 0.4
v 0.1 1.2 0.4
v -7.45058e-09 0.2 0.3
v -7.45058e-09 0.3 0.3
v -7.45058e-09 0.4 0.3
v -7.45058e-09 0.5 0.3
v -7.45058e-09 0.6 0.3
v -7.45058e-09 0.7 0.3
v -7.45058e-09 0.8 0.3
v -7.45058e-09 1.2 0.3
v -7.45058e-09 1.3 0.3
v 0.1 0.2 0.3
v 0.1 0.3 0.3
v 0.1 0.4 0.3
v 0.1 0.5 0.3
v 0.1 0.6 0.3
v 0.1 0.7 0.3
v 0.1 0.8 0.3
v 0.1 1.2 0.3
v 0.1 1.3 0.3
v -7.45058e-09 0.2 -0.3
v -7.45058e-09 0.3 -0.3
v -7.45058e-09 0.4 -0.3
v -7.45058e-09 0.5 -0.3
v -7.45058e-09 0.6 -0.3
v -7.45058e-09 0.7 -0.3
v -7.45058e-09 0.8 -0.3
v -7.45058e-09 1.2 -0.3
v -7.45058e-09 1.3 -0.3
v 0.1 0.2 -0.3
v 0.1 0.3 -0.3
v 0.1 0.4 -0.3
v 0.1 0.5 -0.3
v 0.1 0.6 -0.3
v 0.1 0.7 -0.3
v 0.1 0.8 -0.3
v 0.1 1.2 -0.3
v 0.1 1.3 -0.3
v -7.45058e-09 1.1 -0.4
v -7.45058e-09 1.2 -0.4
v 0.1 1.1 -0.4
v 0.1 1.2 -0.4
v -7.45058e-09 0.8 -0.5
v -7.45058e-09 0.9 -0.5
v -7.45058e-09 1 -0.5
v -7.45058e-09 1.1 -0.5
v 0.1 0.8 -0.5
v 0.1 0.9 -0.5
v 0.1 1 -0.5
v 0.1 1.1 -0.5
v -7.45058e-09 0.2 0.3
v 0.1 0.2 0.3
v -7.45058e-09 0.2 -0.3
v 0.1 0.2 -0.3
v -7.45058e-09 0.8 0.5
v 0.1 0.8 0.5
v -7.45058e-09 0.8 0.3
v 0.1 0.8 0.3
v -7.45058e-09 0.8 -0.3
v 0.1 0.8 -0.3
v -7.45058e-09 0.8 -0.5
v 0.1 0.8 -0.5
v -7.45058e-09 1.1 0.5
v 0.1 1.1 0.5
v -7.45058e-09 1.1 0.4
v 0.1 1.1 0.4
v -7.45058e-09 1.1 -0.4
v 0.1 1.1 -0.4
v -7.45058e-09 1.1 -0.5
v 0.1 1.1 -0.5
v -7.45058e-09 1.2 0.4
v 0.1 1.2 0.4
v -7.45058e-09 1.2 0.3
v 0.1 1.2 0.3
v -7.45058e-09 1.2 -0.3
v 0.1 1.2 -0.3
v -7.45058e-09 1.2 -0.4
v 0.1 1.2 -0.4
v -7.45058e-09 1.3 0.3
v 0.1 1.3 0.3
v -7.45058e-09 1.3 0.2
v 0.1 1.3 0.2
v -7.45058e-09 1.3 -0.2
v 0.1 1.3 -0.2
v -7.45058e-09 1.3 -0.3
v 0.1 1.3 -0.3

# faces
f 3/3/1 2/3/1 1/3/1
f 4/3/1 2/3/1 3/3/1
f 5/2/1 4/2/1 3/2/1
f 6/2/1 4/2/1 5/2/1
f 7/3/1 6/3/1 5/3/1
f 8/3/1 6/3/1 7/3/1
f 9/2/1 8/2/1 7/2/1
f 10/2/1 8/2/1 9/2/1
f 11/3/1 10/3/1 9/3/1
f 12/3/1 10/3/1 11/3/1
f 14/2/1 12/2/1 11/2/1
f 15/2/1 12/2/1 14/2/1
f 17/3/1 15/3/1 14/3/1
f 17/3/1 16/3/1 15/3/1
f 17/3/1 14/3/1 13/3/1
f 18/3/1 16/3/1 17/3/1
f 19/2/1 18/2/1 17/2/1
f 20/2/1 18/2/1 19/2/1
f 21/3/1 20/3/1 19/3/1
f 22/3/1 20/3/1 21/3/1
f 23/3/1 20/3/1 22/3/1
f 24/3/1 20/3/1 23/3/1
f 25/3/1 20/3/1 24/3/1
f 26/3/1 20/3/1 25/3/1
f 27/3/1 20/3/1 26/3/1
f 28/3/1 20/3/1 27/3/1
f 29/2/1 23/2/1 22/2/1
f 30/2/1 23/2/1 29/2/1
f 31/3/1 24/3/1 23/3/1
f 31/2/1 23/2/1 30/2/1
f 32/1/1 25/1/1 24/1/1
f 32/3/1 24/3/1 31/3/1
f 33/3/1 26/3/1 25/3/1
f 33/1/1 25/1/1 32/1/1
f 34/2/1 27/2/1 26/2/1
f 34/3/1 26/3/1 33/3/1
f 35/2/1 27/2/1 34/2/1
f 36/2/1 27/2/1 35/2/1
f 37/3/1 31/3/1 30/3/1
f 38/1/1 33/1/1 32/1/1
f 38/3/1 31/3/1 37/3/1
f 38/1/1 32/1/1 31/1/1
f 38/1/1 34/1/1 33/1/1
f 39/3/1 35/3/1 34/3/1
f 39/1/1 34/1/1 38/1/1
f 40/3/1 35/3/1 39/3/1
f 41/3/2 42/3/2 43/3/2
f 43/3/2 42/3/2 44/3/2
f 43/2/2 44/2/2 45/2/2
f 45/2/2 44/2/2 46/2/2
f 45/3/2 46/3/2 47/3/2
f 47/3/2 46/3/2 48/3/2
f 47/2/2 48/2/2 49/2/2
f 49/2/2 48/2/2 50/2/2
f 49/3/2 50/3/2 51/3/2
f 51/3/2 50/3/2 52/3/2
f 51/2/2 52/2/2 54/2/2
f 54/2/2 52/2/2 55/2/2
f 54/3/2 55/3/2 57/3/2
f 55/3/2 56/3/2 57/3/2
f 53/3/2 54/3/2 57/3/2
f 57/3/2 56/3/2 58/3/2
f 57/2/2 58/2/2 59/2/2
f 59/2/2 58/2/2 60/2/2
f 59/3/2 60/3/2 61/3/2
f 61/3/2 60/3/2 62/3/2
f 62/3/2 60/3/2 63/3/2
f 63/3/2 60/3/2 64/3/2
f 64/3/2 60/3/2 65/3/2
f 65/3/2 60/3/2 66/3/2
f 66/3/2 60/3/2 67/3/2
f 67/3/2 60/3/2 68/3/2
f 62/2/2 63/2/2 69/2/2
f 69/2/2 63/2/2 70/2/2
f 63/3/2 64/3/2 71/3/2
f 70/2/2 63/2/2 71/2/2
f 64/1/2 65/1/2 72/1/2
f 71/3/2 64/3/2 72/3/2
f 65/3/2 66/3/2 73/3/2
f 72/1/2 65/1/2 73/1/2
f 66/2/2 67/2/2 74/2/2
f 73/3/2 66/3/2 74/3/2
f 74/2/2 67/2/2 75/2/2
f 75/2/2 67/2/2 76/2/2
f 70/3/2 71/3/2 77/3/2
f 72/1/2 73/1/2 78/1/2
f 77/3/2 71/3/2 78/3/2
f 71/1/2 72/1/2 78/1/2
f 73/1/2 74/1/2 78/1/2
f 74/3/2 75/3/2 79/3/2
f 78/1/2 74/1/2 79/1/2
f 79/3/2 75/3/2 80/3/2
f 85/3/3 82/3/3 81/3/3
f 86/2/3 83/2/3 82/2/3
f 86/3/3 82/3/3 85/3/3
f 87/3/3 84/3/3 83/3/3
f 87/2/3 83/2/3 86/2/3
f 88/3/3 84/3/3 87/3/3
f 91/2/3 90/2/3 89/2/3
f 92/2/3 90/2/3 91/2/3
f 102/3/3 94/3/3 93/3/3
f 103/2/3 95/2/3 94/2/3
f 103/3/3 94/3/3 102/3/3
f 104/3/3 96/3/3 95/3/3
f 104/2/3 95/2/3 103/2/3
f 105/2/3 97/2/3 96/2/3
f 105/3/3 96/3/3 104/3/3
f 106/3/3 98/3/3 97/3/3
f 106/2/3 97/2/3 105/2/3
f 107/2/3 99/2/3 98/2/3
f 107/3/3 98/3/3 106/3/3
f 108/2/3 99/2/3 107/2/3
f 109/3/3 101/3/3 100/3/3
f 110/3/3 101/3/3 109/3/3
f 111/3/4 112/3/4 120/3/4
f 112/2/4 113/2/4 121/2/4
f 120/3/4 112/3/4 121/3/4
f 113/3/4 114/3/4 122/3/4
f 121/2/4 113/2/4 122/2/4
f 114/2/4 115/2/4 123/2/4
f 122/3/4 114/3/4 123/3/4
f 115/3/4 116/3/4 124/3/4
f 123/2/4 115/2/4 124/2/4
f 116/2/4 117/2/4 125/2/4
f 124/3/4 116/3/4 125/3/4
f 125/2/4 117/2/4 126/2/4
f 118/3/4 119/3/4 127/3/4
f 127/3/4 119/3/4 128/3/4
f 129/2/4 130/2/4 131/2/4
f 131/2/4 130/2/4 132/2/4
f 133/3/4 134/3/4 137/3/4
f 134/2/4 135/2/4 138/2/4
f 137/3/4 134/3/4 138/3/4
f 135/3/4 136/3/4 139/3/4
f 138/2/4 135/2/4 139/2/4
f 139/3/4 136/3/4 140/3/4
f 143/3/5 142/3/5 141/3/5
f 144/3/5 142/3/5 143/3/5
f 147/3/5 146/3/5 145/3/5
f 148/3/5 146/3/5 147/3/5
f 151/3/5 150/3/5 149/3/5
f 152/3/5 150/3/5 151/3/5
f 153/3/6 154/3/6 155/3/6
f 155/3/6 154/3/6 156/3/6
f 157/3/6 158/3/6 159/3/6
f 159/3/6 158/3/6 160/3/6
f 161/2/6 162/2/6 163/2/6
f 163/2/6 162/2/6 164/2/6
f 165/2/6 166/2/6 167/2/6
f 167/2/6 166/2/6 168/2/6
f 169/3/6 170/3/6 171/3/6
f 171/3/6 170/3/6 172/3/6
f 171/1/6 172/1/6 173/1/6
f 173/1/6 172/1/6 174/1/6
f 173/3/6 174/3/6 175/3/6
f 175/3/6 174/3/6 176/3/6
