# MagicaVoxel @ Ephtracy

# group
o 

# material
mtllib RackItem31.mtl
usemtl palette

# normals
vn -1 0 0
vn 1 0 0
vn 0 0 1
vn 0 0 -1
vn 0 -1 0
vn 0 1 0

# texcoords
vt 0.775391 0.5
vt 0.779297 0.5
vt 0.802734 0.5
vt 0.810547 0.5

# verts
v -0.1 0.2 0.3
v -0.1 0.2 0.2
v -0.1 0.2 -0.1
v -0.1 0.2 -0.2
v -0.1 0.2 -0.3
v -0.1 0.3 0.5
v -0.1 0.3 0.3
v -0.1 0.3 0.2
v -0.1 0.3 -0.1
v -0.1 0.3 -0.2
v -0.1 0.3 -0.3
v -0.1 0.3 -0.5
v -0.1 0.4 0.5
v -0.1 0.4 0.3
v -0.1 0.4 0.2
v -0.1 0.4 -0.2
v -0.1 0.5 0.3
v -0.1 0.5 0.2
v -0.1 0.5 -0.1
v -0.1 0.5 -0.2
v -0.1 0.5 -0.3
v -0.1 0.5 -0.5
v -0.1 0.6 0.5
v -0.1 0.6 0.3
v -0.1 0.6 0.2
v -0.1 0.6 -0.1
v -0.1 0.6 -0.2
v -0.1 0.6 -0.3
v -0.1 0.6 -0.5
v -0.1 0.7 0.5
v -0.1 0.7 0.3
v -0.1 0.7 0.2
v -0.1 0.7 -0.2
v -0.1 0.8 0.3
v -0.1 0.8 0.2
v -0.1 0.8 -0.1
v -0.1 0.8 -0.2
v -0.1 0.8 -0.3
v -0.1 0.8 -0.5
v -0.1 0.9 0.5
v -0.1 0.9 0.3
v -0.1 0.9 0.2
v -0.1 0.9 -0.1
v -0.1 0.9 -0.2
v -0.1 0.9 -0.3
v -0.1 0.9 -0.5
v -0.1 1 0.5
v -0.1 1 0.3
v -0.1 1 0.2
v -0.1 1 -0.2
v -0.1 1.1 0.3
v -0.1 1.1 0.2
v -0.1 1.1 -0.2
v -0.1 1.1 -0.3
v -0.1 1.1 -0.5
v -0.1 1.2 0.5
v -0.1 1.2 0.4
v -0.1 1.2 0.3
v -0.1 1.2 0.2
v -0.1 1.2 -0.2
v -0.1 1.2 -0.3
v -0.1 1.2 -0.4
v -0.1 1.2 -0.5
v -0.1 1.3 0.4
v -0.1 1.3 0.3
v -0.1 1.3 0.2
v -0.1 1.3 -0.2
v -0.1 1.3 -0.3
v -0.1 1.3 -0.4
v 0 0.2 0.3
v 0 0.2 0.2
v 0 0.2 -0.1
v 0 0.2 -0.2
v 0 0.2 -0.3
v 0 0.3 0.5
v 0 0.3 0.3
v 0 0.3 0.2
v 0 0.3 -0.1
v 0 0.3 -0.2
v 0 0.3 -0.3
v 0 0.3 -0.5
v 0 0.4 0.5
v 0 0.4 0.3
v 0 0.4 0.2
v 0 0.4 -0.2
v 0 0.5 0.3
v 0 0.5 0.2
v 0 0.5 -0.1
v 0 0.5 -0.2
v 0 0.5 -0.3
v 0 0.5 -0.5
v 0 0.6 0.5
v 0 0.6 0.3
v 0 0.6 0.2
v 0 0.6 -0.1
v 0 0.6 -0.2
v 0 0.6 -0.3
v 0 0.6 -0.5
v 0 0.7 0.5
v 0 0.7 0.3
v 0 0.7 0.2
v 0 0.7 -0.2
v 0 0.8 0.3
v 0 0.8 0.2
v 0 0.8 -0.1
v 0 0.8 -0.2
v 0 0.8 -0.3
v 0 0.8 -0.5
v 0 0.9 0.5
v 0 0.9 0.3
v 0 0.9 0.2
v 0 0.9 -0.1
v 0 0.9 -0.2
v 0 0.9 -0.3
v 0 0.9 -0.5
v 0 1 0.5
v 0 1 0.3
v 0 1 0.2
v 0 1 -0.2
v 0 1.1 0.3
v 0 1.1 0.2
v 0 1.1 -0.2
v 0 1.1 -0.3
v 0 1.1 -0.5
v 0 1.2 0.5
v 0 1.2 0.4
v 0 1.2 0.3
v 0 1.2 0.2
v 0 1.2 -0.2
v 0 1.2 -0.3
v 0 1.2 -0.4
v 0 1.2 -0.5
v 0 1.3 0.4
v 0 1.3 0.3
v 0 1.3 0.2
v 0 1.3 -0.2
v 0 1.3 -0.3
v 0 1.3 -0.4
v -0.1 0.3 0.5
v -0.1 0.4 0.5
v -0.1 0.6 0.5
v -0.1 0.7 0.5
v -0.1 0.9 0.5
v -0.1 1 0.5
v -0.1 1.2 0.5
v 0 0.3 0.5
v 0 0.4 0.5
v 0 0.6 0.5
v 0 0.7 0.5
v 0 0.9 0.5
v 0 1 0.5
v 0 1.2 0.5
v -0.1 1.2 0.4
v -0.1 1.3 0.4
v 0 1.2 0.4
v 0 1.3 0.4
v -0.1 0.2 0.3
v -0.1 0.3 0.3
v 0 0.2 0.3
v 0 0.3 0.3
v -0.1 0.2 -0.3
v -0.1 0.3 -0.3
v 0 0.2 -0.3
v 0 0.3 -0.3
v -0.1 1.2 -0.4
v -0.1 1.3 -0.4
v 0 1.2 -0.4
v 0 1.3 -0.4
v -0.1 0.3 -0.5
v -0.1 0.5 -0.5
v -0.1 0.6 -0.5
v -0.1 0.8 -0.5
v -0.1 0.9 -0.5
v -0.1 1.1 -0.5
v -0.1 1.2 -0.5
v 0 0.3 -0.5
v 0 0.5 -0.5
v 0 0.6 -0.5
v 0 0.8 -0.5
v 0 0.9 -0.5
v 0 1.1 -0.5
v 0 1.2 -0.5
v -0.1 0.2 0.3
v 0 0.2 0.3
v -0.1 0.2 0.2
v 0 0.2 0.2
v -0.1 0.2 -0.1
v 0 0.2 -0.1
v -0.1 0.2 -0.2
v 0 0.2 -0.2
v -0.1 0.2 -0.3
v 0 0.2 -0.3
v -0.1 0.3 0.5
v 0 0.3 0.5
v -0.1 0.3 0.3
v 0 0.3 0.3
v -0.1 0.3 -0.3
v 0 0.3 -0.3
v -0.1 0.3 -0.5
v 0 0.3 -0.5
v -0.1 1.2 0.5
v 0 1.2 0.5
v -0.1 1.2 0.4
v 0 1.2 0.4
v -0.1 1.2 -0.4
v 0 1.2 -0.4
v -0.1 1.2 -0.5
v 0 1.2 -0.5
v -0.1 1.3 0.4
v 0 1.3 0.4
v -0.1 1.3 0.3
v 0 1.3 0.3
v -0.1 1.3 0.2
v 0 1.3 0.2
v -0.1 1.3 -0.2
v 0 1.3 -0.2
v -0.1 1.3 -0.3
v 0 1.3 -0.3
v -0.1 1.3 -0.4
v 0 1.3 -0.4

# faces
f 7/1/1 2/1/1 1/1/1
f 8/4/1 3/4/1 2/4/1
f 8/1/1 2/1/1 7/1/1
f 9/3/1 4/3/1 3/3/1
f 9/4/1 3/4/1 8/4/1
f 10/2/1 5/2/1 4/2/1
f 10/3/1 4/3/1 9/3/1
f 11/2/1 5/2/1 10/2/1
f 13/3/1 7/3/1 6/3/1
f 14/2/1 8/2/1 7/2/1
f 14/3/1 7/3/1 13/3/1
f 15/4/1 9/4/1 8/4/1
f 15/2/1 8/2/1 14/2/1
f 15/4/1 10/4/1 9/4/1
f 16/1/1 11/1/1 10/1/1
f 16/4/1 10/4/1 15/4/1
f 17/4/1 14/4/1 13/4/1
f 17/2/1 15/2/1 14/2/1
f 18/3/1 16/3/1 15/3/1
f 18/2/1 15/2/1 17/2/1
f 19/3/1 16/3/1 18/3/1
f 20/1/1 11/1/1 16/1/1
f 20/3/1 16/3/1 19/3/1
f 21/4/1 12/4/1 11/4/1
f 21/1/1 11/1/1 20/1/1
f 22/4/1 12/4/1 21/4/1
f 23/4/1 17/4/1 13/4/1
f 24/1/1 18/1/1 17/1/1
f 24/4/1 17/4/1 23/4/1
f 25/4/1 19/4/1 18/4/1
f 25/1/1 18/1/1 24/1/1
f 26/3/1 20/3/1 19/3/1
f 26/4/1 19/4/1 25/4/1
f 27/2/1 21/2/1 20/2/1
f 27/3/1 20/3/1 26/3/1
f 28/3/1 22/3/1 21/3/1
f 28/2/1 21/2/1 27/2/1
f 29/3/1 22/3/1 28/3/1
f 30/3/1 24/3/1 23/3/1
f 31/2/1 25/2/1 24/2/1
f 31/3/1 24/3/1 30/3/1
f 32/4/1 26/4/1 25/4/1
f 32/2/1 25/2/1 31/2/1
f 32/4/1 27/4/1 26/4/1
f 33/1/1 28/1/1 27/1/1
f 33/4/1 27/4/1 32/4/1
f 34/4/1 31/4/1 30/4/1
f 34/2/1 32/2/1 31/2/1
f 35/3/1 33/3/1 32/3/1
f 35/2/1 32/2/1 34/2/1
f 36/3/1 33/3/1 35/3/1
f 37/1/1 28/1/1 33/1/1
f 37/3/1 33/3/1 36/3/1
f 38/4/1 29/4/1 28/4/1
f 38/1/1 28/1/1 37/1/1
f 39/4/1 29/4/1 38/4/1
f 40/4/1 34/4/1 30/4/1
f 41/1/1 35/1/1 34/1/1
f 41/4/1 34/4/1 40/4/1
f 42/4/1 36/4/1 35/4/1
f 42/1/1 35/1/1 41/1/1
f 43/3/1 37/3/1 36/3/1
f 43/4/1 36/4/1 42/4/1
f 44/2/1 38/2/1 37/2/1
f 44/3/1 37/3/1 43/3/1
f 45/3/1 39/3/1 38/3/1
f 45/2/1 38/2/1 44/2/1
f 46/3/1 39/3/1 45/3/1
f 47/3/1 41/3/1 40/3/1
f 48/2/1 42/2/1 41/2/1
f 48/3/1 41/3/1 47/3/1
f 49/4/1 43/4/1 42/4/1
f 49/2/1 42/2/1 48/2/1
f 49/4/1 44/4/1 43/4/1
f 50/1/1 45/1/1 44/1/1
f 50/4/1 44/4/1 49/4/1
f 51/4/1 48/4/1 47/4/1
f 51/2/1 49/2/1 48/2/1
f 52/3/1 50/3/1 49/3/1
f 52/2/1 49/2/1 51/2/1
f 53/1/1 45/1/1 50/1/1
f 53/3/1 50/3/1 52/3/1
f 54/4/1 46/4/1 45/4/1
f 54/1/1 45/1/1 53/1/1
f 55/4/1 46/4/1 54/4/1
f 56/4/1 52/4/1 51/4/1
f 56/4/1 51/4/1 47/4/1
f 57/4/1 52/4/1 56/4/1
f 58/4/1 52/4/1 57/4/1
f 59/1/1 53/1/1 52/1/1
f 59/4/1 52/4/1 58/4/1
f 60/3/1 55/3/1 54/3/1
f 60/1/1 53/1/1 59/1/1
f 60/3/1 54/3/1 53/3/1
f 61/3/1 55/3/1 60/3/1
f 62/3/1 55/3/1 61/3/1
f 63/3/1 55/3/1 62/3/1
f 64/4/1 58/4/1 57/4/1
f 65/1/1 59/1/1 58/1/1
f 65/4/1 58/4/1 64/4/1
f 66/2/1 60/2/1 59/2/1
f 66/1/1 59/1/1 65/1/1
f 67/1/1 61/1/1 60/1/1
f 67/2/1 60/2/1 66/2/1
f 68/4/1 62/4/1 61/4/1
f 68/1/1 61/1/1 67/1/1
f 69/4/1 62/4/1 68/4/1
f 70/1/2 71/1/2 76/1/2
f 71/4/2 72/4/2 77/4/2
f 76/1/2 71/1/2 77/1/2
f 72/3/2 73/3/2 78/3/2
f 77/4/2 72/4/2 78/4/2
f 73/2/2 74/2/2 79/2/2
f 78/3/2 73/3/2 79/3/2
f 79/2/2 74/2/2 80/2/2
f 75/3/2 76/3/2 82/3/2
f 76/2/2 77/2/2 83/2/2
f 82/3/2 76/3/2 83/3/2
f 77/4/2 78/4/2 84/4/2
f 83/2/2 77/2/2 84/2/2
f 78/4/2 79/4/2 84/4/2
f 79/1/2 80/1/2 85/1/2
f 84/4/2 79/4/2 85/4/2
f 82/4/2 83/4/2 86/4/2
f 83/2/2 84/2/2 86/2/2
f 84/3/2 85/3/2 87/3/2
f 86/2/2 84/2/2 87/2/2
f 87/3/2 85/3/2 88/3/2
f 85/1/2 80/1/2 89/1/2
f 88/3/2 85/3/2 89/3/2
f 80/4/2 81/4/2 90/4/2
f 89/1/2 80/1/2 90/1/2
f 90/4/2 81/4/2 91/4/2
f 82/4/2 86/4/2 92/4/2
f 86/1/2 87/1/2 93/1/2
f 92/4/2 86/4/2 93/4/2
f 87/4/2 88/4/2 94/4/2
f 93/1/2 87/1/2 94/1/2
f 88/3/2 89/3/2 95/3/2
f 94/4/2 88/4/2 95/4/2
f 89/2/2 90/2/2 96/2/2
f 95/3/2 89/3/2 96/3/2
f 90/3/2 91/3/2 97/3/2
f 96/2/2 90/2/2 97/2/2
f 97/3/2 91/3/2 98/3/2
f 92/3/2 93/3/2 99/3/2
f 93/2/2 94/2/2 100/2/2
f 99/3/2 93/3/2 100/3/2
f 94/4/2 95/4/2 101/4/2
f 100/2/2 94/2/2 101/2/2
f 95/4/2 96/4/2 101/4/2
f 96/1/2 97/1/2 102/1/2
f 101/4/2 96/4/2 102/4/2
f 99/4/2 100/4/2 103/4/2
f 100/2/2 101/2/2 103/2/2
f 101/3/2 102/3/2 104/3/2
f 103/2/2 101/2/2 104/2/2
f 104/3/2 102/3/2 105/3/2
f 102/1/2 97/1/2 106/1/2
f 105/3/2 102/3/2 106/3/2
f 97/4/2 98/4/2 107/4/2
f 106/1/2 97/1/2 107/1/2
f 107/4/2 98/4/2 108/4/2
f 99/4/2 103/4/2 109/4/2
f 103/1/2 104/1/2 110/1/2
f 109/4/2 103/4/2 110/4/2
f 104/4/2 105/4/2 111/4/2
f 110/1/2 104/1/2 111/1/2
f 105/3/2 106/3/2 112/3/2
f 111/4/2 105/4/2 112/4/2
f 106/2/2 107/2/2 113/2/2
f 112/3/2 106/3/2 113/3/2
f 107/3/2 108/3/2 114/3/2
f 113/2/2 107/2/2 114/2/2
f 114/3/2 108/3/2 115/3/2
f 109/3/2 110/3/2 116/3/2
f 110/2/2 111/2/2 117/2/2
f 116/3/2 110/3/2 117/3/2
f 111/4/2 112/4/2 118/4/2
f 117/2/2 111/2/2 118/2/2
f 112/4/2 113/4/2 118/4/2
f 113/1/2 114/1/2 119/1/2
f 118/4/2 113/4/2 119/4/2
f 116/4/2 117/4/2 120/4/2
f 117/2/2 118/2/2 120/2/2
f 118/3/2 119/3/2 121/3/2
f 120/2/2 118/2/2 121/2/2
f 119/1/2 114/1/2 122/1/2
f 121/3/2 119/3/2 122/3/2
f 114/4/2 115/4/2 123/4/2
f 122/1/2 114/1/2 123/1/2
f 123/4/2 115/4/2 124/4/2
f 120/4/2 121/4/2 125/4/2
f 116/4/2 120/4/2 125/4/2
f 125/4/2 121/4/2 126/4/2
f 126/4/2 121/4/2 127/4/2
f 121/1/2 122/1/2 128/1/2
f 127/4/2 121/4/2 128/4/2
f 123/3/2 124/3/2 129/3/2
f 128/1/2 122/1/2 129/1/2
f 122/3/2 123/3/2 129/3/2
f 129/3/2 124/3/2 130/3/2
f 130/3/2 124/3/2 131/3/2
f 131/3/2 124/3/2 132/3/2
f 126/4/2 127/4/2 133/4/2
f 127/1/2 128/1/2 134/1/2
f 133/4/2 127/4/2 134/4/2
f 128/2/2 129/2/2 135/2/2
f 134/1/2 128/1/2 135/1/2
f 129/1/2 130/1/2 136/1/2
f 135/2/2 129/2/2 136/2/2
f 130/4/2 131/4/2 137/4/2
f 136/1/2 130/1/2 137/1/2
f 137/4/2 131/4/2 138/4/2
f 146/3/3 140/3/3 139/3/3
f 147/4/3 141/4/3 140/4/3
f 147/3/3 140/3/3 146/3/3
f 148/3/3 142/3/3 141/3/3
f 148/4/3 141/4/3 147/4/3
f 149/4/3 143/4/3 142/4/3
f 149/3/3 142/3/3 148/3/3
f 150/3/3 144/3/3 143/3/3
f 150/4/3 143/4/3 149/4/3
f 151/4/3 145/4/3 144/4/3
f 151/3/3 144/3/3 150/3/3
f 152/4/3 145/4/3 151/4/3
f 155/4/3 154/4/3 153/4/3
f 156/4/3 154/4/3 155/4/3
f 159/1/3 158/1/3 157/1/3
f 160/1/3 158/1/3 159/1/3
f 161/2/4 162/2/4 163/2/4
f 163/2/4 162/2/4 164/2/4
f 165/4/4 166/4/4 167/4/4
f 167/4/4 166/4/4 168/4/4
f 169/4/4 170/4/4 176/4/4
f 170/3/4 171/3/4 177/3/4
f 176/4/4 170/4/4 177/4/4
f 171/4/4 172/4/4 178/4/4
f 177/3/4 171/3/4 178/3/4
f 172/3/4 173/3/4 179/3/4
f 178/4/4 172/4/4 179/4/4
f 173/4/4 174/4/4 180/4/4
f 179/3/4 173/3/4 180/3/4
f 174/3/4 175/3/4 181/3/4
f 180/4/4 174/4/4 181/4/4
f 181/3/4 175/3/4 182/3/4
f 185/1/5 184/1/5 183/1/5
f 186/1/5 184/1/5 185/1/5
f 187/4/5 186/4/5 185/4/5
f 188/4/5 186/4/5 187/4/5
f 189/3/5 188/3/5 187/3/5
f 190/3/5 188/3/5 189/3/5
f 191/2/5 190/2/5 189/2/5
f 192/2/5 190/2/5 191/2/5
f 195/3/5 194/3/5 193/3/5
f 196/3/5 194/3/5 195/3/5
f 199/4/5 198/4/5 197/4/5
f 200/4/5 198/4/5 199/4/5
f 201/4/6 202/4/6 203/4/6
f 203/4/6 202/4/6 204/4/6
f 205/3/6 206/3/6 207/3/6
f 207/3/6 206/3/6 208/3/6
f 209/4/6 210/4/6 211/4/6
f 211/4/6 210/4/6 212/4/6
f 211/1/6 212/1/6 213/1/6
f 213/1/6 212/1/6 214/1/6
f 213/2/6 214/2/6 215/2/6
f 215/2/6 214/2/6 216/2/6
f 215/1/6 216/1/6 217/1/6
f 217/1/6 216/1/6 218/1/6
f 217/4/6 218/4/6 219/4/6
f 219/4/6 218/4/6 220/4/6
