# MagicaVoxel @ Ephtracy

# group
o 

# material
mtllib RackItem10.mtl
usemtl palette

# normals
vn -1 0 0
vn 1 0 0
vn 0 0 1
vn 0 0 -1
vn 0 -1 0
vn 0 1 0

# texcoords
vt 0.537109 0.5
vt 0.658203 0.5
vt 0.662109 0.5

# verts
v -7.45058e-09 0.2 0.3
v -7.45058e-09 0.2 0
v -7.45058e-09 0.2 -0.1
v -7.45058e-09 0.2 -0.3
v -7.45058e-09 0.4 0.1
v -7.45058e-09 0.4 0
v -7.45058e-09 0.5 0.1
v -7.45058e-09 0.5 0
v -7.45058e-09 0.6 0.1
v -7.45058e-09 0.6 0
v -7.45058e-09 0.7 0.1
v -7.45058e-09 0.7 0
v -7.45058e-09 0.8 0.5
v -7.45058e-09 0.8 0.3
v -7.45058e-09 0.8 0.1
v -7.45058e-09 0.8 0
v -7.45058e-09 0.8 -0.3
v -7.45058e-09 0.8 -0.5
v -7.45058e-09 0.9 0.5
v -7.45058e-09 0.9 0.3
v -7.45058e-09 0.9 0.1
v -7.45058e-09 0.9 0
v -7.45058e-09 0.9 -0.3
v -7.45058e-09 0.9 -0.5
v -7.45058e-09 1 0.1
v -7.45058e-09 1 0
v -7.45058e-09 1.1 0.5
v -7.45058e-09 1.1 0.4
v -7.45058e-09 1.1 0.3
v -7.45058e-09 1.1 0.1
v -7.45058e-09 1.1 -0.1
v -7.45058e-09 1.1 -0.3
v -7.45058e-09 1.1 -0.4
v -7.45058e-09 1.1 -0.5
v -7.45058e-09 1.2 0.4
v -7.45058e-09 1.2 0.3
v -7.45058e-09 1.2 0.2
v -7.45058e-09 1.2 0.1
v -7.45058e-09 1.2 -0.1
v -7.45058e-09 1.2 -0.2
v -7.45058e-09 1.2 -0.3
v -7.45058e-09 1.2 -0.4
v -7.45058e-09 1.3 0.3
v -7.45058e-09 1.3 0.2
v -7.45058e-09 1.3 -0.2
v -7.45058e-09 1.3 -0.3
v 0.1 0.2 0.3
v 0.1 0.2 0
v 0.1 0.2 -0.1
v 0.1 0.2 -0.3
v 0.1 0.4 0.1
v 0.1 0.4 0
v 0.1 0.5 0.1
v 0.1 0.5 0
v 0.1 0.6 0.1
v 0.1 0.6 0
v 0.1 0.7 0.1
v 0.1 0.7 0
v 0.1 0.8 0.5
v 0.1 0.8 0.3
v 0.1 0.8 0.1
v 0.1 0.8 0
v 0.1 0.8 -0.3
v 0.1 0.8 -0.5
v 0.1 0.9 0.5
v 0.1 0.9 0.3
v 0.1 0.9 0.1
v 0.1 0.9 0
v 0.1 0.9 -0.3
v 0.1 0.9 -0.5
v 0.1 1 0.1
v 0.1 1 0
v 0.1 1.1 0.5
v 0.1 1.1 0.4
v 0.1 1.1 0.3
v 0.1 1.1 0.1
v 0.1 1.1 -0.1
v 0.1 1.1 -0.3
v 0.1 1.1 -0.4
v 0.1 1.1 -0.5
v 0.1 1.2 0.4
v 0.1 1.2 0.3
v 0.1 1.2 0.2
v 0.1 1.2 0.1
v 0.1 1.2 -0.1
v 0.1 1.2 -0.2
v 0.1 1.2 -0.3
v 0.1 1.2 -0.4
v 0.1 1.3 0.3
v 0.1 1.3 0.2
v 0.1 1.3 -0.2
v 0.1 1.3 -0.3
v -7.45058e-09 0.8 0.5
v -7.45058e-09 0.9 0.5
v -7.45058e-09 1.1 0.5
v 0.1 0.8 0.5
v 0.1 0.9 0.5
v 0.1 1.1 0.5
v -7.45058e-09 1.1 0.4
v -7.45058e-09 1.2 0.4
v 0.1 1.1 0.4
v 0.1 1.2 0.4
v -7.45058e-09 0.2 0.3
v -7.45058e-09 0.8 0.3
v -7.45058e-09 1.2 0.3
v -7.45058e-09 1.3 0.3
v 0.1 0.2 0.3
v 0.1 0.8 0.3
v 0.1 1.2 0.3
v 0.1 1.3 0.3
v -7.45058e-09 0.2 -0.3
v -7.45058e-09 0.8 -0.3
v -7.45058e-09 1.2 -0.3
v -7.45058e-09 1.3 -0.3
v 0.1 0.2 -0.3
v 0.1 0.8 -0.3
v 0.1 1.2 -0.3
v 0.1 1.3 -0.3
v -7.45058e-09 1.1 -0.4
v -7.45058e-09 1.2 -0.4
v 0.1 1.1 -0.4
v 0.1 1.2 -0.4
v -7.45058e-09 0.8 -0.5
v -7.45058e-09 0.9 -0.5
v -7.45058e-09 1.1 -0.5
v 0.1 0.8 -0.5
v 0.1 0.9 -0.5
v 0.1 1.1 -0.5
v -7.45058e-09 0.2 0.3
v 0.1 0.2 0.3
v -7.45058e-09 0.2 0
v 0.1 0.2 0
v -7.45058e-09 0.2 -0.1
v 0.1 0.2 -0.1
v -7.45058e-09 0.2 -0.3
v 0.1 0.2 -0.3
v -7.45058e-09 0.8 0.5
v 0.1 0.8 0.5
v -7.45058e-09 0.8 0.3
v 0.1 0.8 0.3
v -7.45058e-09 0.8 -0.3
v 0.1 0.8 -0.3
v -7.45058e-09 0.8 -0.5
v 0.1 0.8 -0.5
v -7.45058e-09 1.1 0.5
v 0.1 1.1 0.5
v -7.45058e-09 1.1 0.4
v 0.1 1.1 0.4
v -7.45058e-09 1.1 -0.4
v 0.1 1.1 -0.4
v -7.45058e-09 1.1 -0.5
v 0.1 1.1 -0.5
v -7.45058e-09 1.2 0.4
v 0.1 1.2 0.4
v -7.45058e-09 1.2 0.3
v 0.1 1.2 0.3
v -7.45058e-09 1.2 -0.3
v 0.1 1.2 -0.3
v -7.45058e-09 1.2 -0.4
v 0.1 1.2 -0.4
v -7.45058e-09 1.3 0.3
v 0.1 1.3 0.3
v -7.45058e-09 1.3 0.2
v 0.1 1.3 0.2
v -7.45058e-09 1.3 -0.2
v 0.1 1.3 -0.2
v -7.45058e-09 1.3 -0.3
v 0.1 1.3 -0.3

# faces
f 5/3/1 2/3/1 1/3/1
f 6/1/1 3/1/1 2/1/1
f 6/3/1 2/3/1 5/3/1
f 7/3/1 5/3/1 1/3/1
f 7/2/1 6/2/1 5/2/1
f 8/1/1 3/1/1 6/1/1
f 8/2/1 6/2/1 7/2/1
f 9/3/1 7/3/1 1/3/1
f 9/3/1 8/3/1 7/3/1
f 10/1/1 3/1/1 8/1/1
f 10/3/1 8/3/1 9/3/1
f 11/3/1 9/3/1 1/3/1
f 11/2/1 10/2/1 9/2/1
f 12/1/1 3/1/1 10/1/1
f 12/2/1 10/2/1 11/2/1
f 14/3/1 11/3/1 1/3/1
f 14/3/1 12/3/1 11/3/1
f 15/3/1 12/3/1 14/3/1
f 16/1/1 3/1/1 12/1/1
f 16/3/1 12/3/1 15/3/1
f 17/3/1 4/3/1 3/3/1
f 19/1/1 14/1/1 13/1/1
f 20/3/1 15/3/1 14/3/1
f 20/1/1 14/1/1 19/1/1
f 21/2/1 16/2/1 15/2/1
f 21/3/1 15/3/1 20/3/1
f 22/1/1 3/1/1 16/1/1
f 22/2/1 16/2/1 21/2/1
f 23/1/1 18/1/1 17/1/1
f 23/3/1 17/3/1 3/3/1
f 24/1/1 18/1/1 23/1/1
f 25/3/1 21/3/1 20/3/1
f 25/3/1 20/3/1 19/3/1
f 25/3/1 22/3/1 21/3/1
f 26/1/1 3/1/1 22/1/1
f 26/3/1 22/3/1 25/3/1
f 27/3/1 25/3/1 19/3/1
f 28/3/1 25/3/1 27/3/1
f 29/3/1 25/3/1 28/3/1
f 30/1/1 26/1/1 25/1/1
f 30/3/1 25/3/1 29/3/1
f 31/1/1 3/1/1 26/1/1
f 31/1/1 26/1/1 30/1/1
f 31/3/1 24/3/1 23/3/1
f 31/3/1 23/3/1 3/3/1
f 32/3/1 24/3/1 31/3/1
f 33/3/1 24/3/1 32/3/1
f 34/3/1 24/3/1 33/3/1
f 35/3/1 29/3/1 28/3/1
f 36/1/1 30/1/1 29/1/1
f 36/3/1 29/3/1 35/3/1
f 37/1/1 30/1/1 36/1/1
f 38/3/1 31/3/1 30/3/1
f 38/1/1 30/1/1 37/1/1
f 39/1/1 32/1/1 31/1/1
f 39/3/1 31/3/1 38/3/1
f 40/1/1 32/1/1 39/1/1
f 41/3/1 33/3/1 32/3/1
f 41/1/1 32/1/1 40/1/1
f 42/3/1 33/3/1 41/3/1
f 43/3/1 37/3/1 36/3/1
f 44/1/1 40/1/1 39/1/1
f 44/3/1 37/3/1 43/3/1
f 44/1/1 38/1/1 37/1/1
f 44/1/1 39/1/1 38/1/1
f 45/3/1 41/3/1 40/3/1
f 45/1/1 40/1/1 44/1/1
f 46/3/1 41/3/1 45/3/1
f 47/3/2 48/3/2 51/3/2
f 48/1/2 49/1/2 52/1/2
f 51/3/2 48/3/2 52/3/2
f 47/3/2 51/3/2 53/3/2
f 51/2/2 52/2/2 53/2/2
f 52/1/2 49/1/2 54/1/2
f 53/2/2 52/2/2 54/2/2
f 47/3/2 53/3/2 55/3/2
f 53/3/2 54/3/2 55/3/2
f 54/1/2 49/1/2 56/1/2
f 55/3/2 54/3/2 56/3/2
f 47/3/2 55/3/2 57/3/2
f 55/2/2 56/2/2 57/2/2
f 56/1/2 49/1/2 58/1/2
f 57/2/2 56/2/2 58/2/2
f 47/3/2 57/3/2 60/3/2
f 57/3/2 58/3/2 60/3/2
f 60/3/2 58/3/2 61/3/2
f 58/1/2 49/1/2 62/1/2
f 61/3/2 58/3/2 62/3/2
f 49/3/2 50/3/2 63/3/2
f 59/1/2 60/1/2 65/1/2
f 60/3/2 61/3/2 66/3/2
f 65/1/2 60/1/2 66/1/2
f 61/2/2 62/2/2 67/2/2
f 66/3/2 61/3/2 67/3/2
f 62/1/2 49/1/2 68/1/2
f 67/2/2 62/2/2 68/2/2
f 63/1/2 64/1/2 69/1/2
f 49/3/2 63/3/2 69/3/2
f 69/1/2 64/1/2 70/1/2
f 66/3/2 67/3/2 71/3/2
f 65/3/2 66/3/2 71/3/2
f 67/3/2 68/3/2 71/3/2
f 68/1/2 49/1/2 72/1/2
f 71/3/2 68/3/2 72/3/2
f 65/3/2 71/3/2 73/3/2
f 73/3/2 71/3/2 74/3/2
f 74/3/2 71/3/2 75/3/2
f 71/1/2 72/1/2 76/1/2
f 75/3/2 71/3/2 76/3/2
f 72/1/2 49/1/2 77/1/2
f 76/1/2 72/1/2 77/1/2
f 69/3/2 70/3/2 77/3/2
f 49/3/2 69/3/2 77/3/2
f 77/3/2 70/3/2 78/3/2
f 78/3/2 70/3/2 79/3/2
f 79/3/2 70/3/2 80/3/2
f 74/3/2 75/3/2 81/3/2
f 75/1/2 76/1/2 82/1/2
f 81/3/2 75/3/2 82/3/2
f 82/1/2 76/1/2 83/1/2
f 76/3/2 77/3/2 84/3/2
f 83/1/2 76/1/2 84/1/2
f 77/1/2 78/1/2 85/1/2
f 84/3/2 77/3/2 85/3/2
f 85/1/2 78/1/2 86/1/2
f 78/3/2 79/3/2 87/3/2
f 86/1/2 78/1/2 87/1/2
f 87/3/2 79/3/2 88/3/2
f 82/3/2 83/3/2 89/3/2
f 85/1/2 86/1/2 90/1/2
f 89/3/2 83/3/2 90/3/2
f 83/1/2 84/1/2 90/1/2
f 84/1/2 85/1/2 90/1/2
f 86/3/2 87/3/2 91/3/2
f 90/1/2 86/1/2 91/1/2
f 91/3/2 87/3/2 92/3/2
f 96/1/3 94/1/3 93/1/3
f 97/3/3 95/3/3 94/3/3
f 97/1/3 94/1/3 96/1/3
f 98/3/3 95/3/3 97/3/3
f 101/3/3 100/3/3 99/3/3
f 102/3/3 100/3/3 101/3/3
f 107/3/3 104/3/3 103/3/3
f 108/3/3 104/3/3 107/3/3
f 109/3/3 106/3/3 105/3/3
f 110/3/3 106/3/3 109/3/3
f 111/3/4 112/3/4 115/3/4
f 115/3/4 112/3/4 116/3/4
f 113/3/4 114/3/4 117/3/4
f 117/3/4 114/3/4 118/3/4
f 119/3/4 120/3/4 121/3/4
f 121/3/4 120/3/4 122/3/4
f 123/1/4 124/1/4 126/1/4
f 124/3/4 125/3/4 127/3/4
f 126/1/4 124/1/4 127/1/4
f 127/3/4 125/3/4 128/3/4
f 131/3/5 130/3/5 129/3/5
f 132/3/5 130/3/5 131/3/5
f 133/1/5 132/1/5 131/1/5
f 134/1/5 132/1/5 133/1/5
f 135/3/5 134/3/5 133/3/5
f 136/3/5 134/3/5 135/3/5
f 139/1/5 138/1/5 137/1/5
f 140/1/5 138/1/5 139/1/5
f 143/1/5 142/1/5 141/1/5
f 144/1/5 142/1/5 143/1/5
f 145/3/6 146/3/6 147/3/6
f 147/3/6 146/3/6 148/3/6
f 149/3/6 150/3/6 151/3/6
f 151/3/6 150/3/6 152/3/6
f 153/3/6 154/3/6 155/3/6
f 155/3/6 154/3/6 156/3/6
f 157/3/6 158/3/6 159/3/6
f 159/3/6 158/3/6 160/3/6
f 161/3/6 162/3/6 163/3/6
f 163/3/6 162/3/6 164/3/6
f 163/1/6 164/1/6 165/1/6
f 165/1/6 164/1/6 166/1/6
f 165/3/6 166/3/6 167/3/6
f 167/3/6 166/3/6 168/3/6
