# MagicaVoxel @ Ephtracy

# group
o 

# material
mtllib RackItem14.mtl
usemtl palette

# normals
vn -1 0 0
vn 1 0 0
vn 0 0 1
vn 0 0 -1
vn 0 -1 0
vn 0 1 0

# texcoords
vt 0.568359 0.5
vt 0.693359 0.5

# verts
v 0 0.2 0.3
v 0 0.2 -0.3
v 0 0.8 0.5
v 0 0.8 0.3
v 0 0.8 -0.3
v 0 0.8 -0.5
v 0 0.9 0.5
v 0 0.9 0.3
v 0 0.9 -0.3
v 0 0.9 -0.5
v 0 1 0.1
v 0 1 -0.1
v 0 1.1 0.5
v 0 1.1 0.4
v 0 1.1 0.3
v 0 1.1 0.1
v 0 1.1 -0.1
v 0 1.1 -0.3
v 0 1.1 -0.4
v 0 1.1 -0.5
v 0 1.2 0.4
v 0 1.2 0.3
v 0 1.2 0.2
v 0 1.2 0.1
v 0 1.2 -0.1
v 0 1.2 -0.2
v 0 1.2 -0.3
v 0 1.2 -0.4
v 0 1.3 0.3
v 0 1.3 0.2
v 0 1.3 -0.2
v 0 1.3 -0.3
v 0.1 0.2 0.3
v 0.1 0.2 -0.3
v 0.1 0.8 0.5
v 0.1 0.8 0.3
v 0.1 0.8 -0.3
v 0.1 0.8 -0.5
v 0.1 0.9 0.5
v 0.1 0.9 0.3
v 0.1 0.9 -0.3
v 0.1 0.9 -0.5
v 0.1 1 0.1
v 0.1 1 -0.1
v 0.1 1.1 0.5
v 0.1 1.1 0.4
v 0.1 1.1 0.3
v 0.1 1.1 0.1
v 0.1 1.1 -0.1
v 0.1 1.1 -0.3
v 0.1 1.1 -0.4
v 0.1 1.1 -0.5
v 0.1 1.2 0.4
v 0.1 1.2 0.3
v 0.1 1.2 0.2
v 0.1 1.2 0.1
v 0.1 1.2 -0.1
v 0.1 1.2 -0.2
v 0.1 1.2 -0.3
v 0.1 1.2 -0.4
v 0.1 1.3 0.3
v 0.1 1.3 0.2
v 0.1 1.3 -0.2
v 0.1 1.3 -0.3
v 0 0.8 0.5
v 0 0.9 0.5
v 0 1.1 0.5
v 0.1 0.8 0.5
v 0.1 0.9 0.5
v 0.1 1.1 0.5
v 0 1.1 0.4
v 0 1.2 0.4
v 0.1 1.1 0.4
v 0.1 1.2 0.4
v 0 0.2 0.3
v 0 0.8 0.3
v 0 1.2 0.3
v 0 1.3 0.3
v 0.1 0.2 0.3
v 0.1 0.8 0.3
v 0.1 1.2 0.3
v 0.1 1.3 0.3
v 0 0.2 -0.3
v 0 0.8 -0.3
v 0 1.2 -0.3
v 0 1.3 -0.3
v 0.1 0.2 -0.3
v 0.1 0.8 -0.3
v 0.1 1.2 -0.3
v 0.1 1.3 -0.3
v 0 1.1 -0.4
v 0 1.2 -0.4
v 0.1 1.1 -0.4
v 0.1 1.2 -0.4
v 0 0.8 -0.5
v 0 0.9 -0.5
v 0 1.1 -0.5
v 0.1 0.8 -0.5
v 0.1 0.9 -0.5
v 0.1 1.1 -0.5
v 0 0.2 0.3
v 0.1 0.2 0.3
v 0 0.2 -0.3
v 0.1 0.2 -0.3
v 0 0.8 0.5
v 0.1 0.8 0.5
v 0 0.8 0.3
v 0.1 0.8 0.3
v 0 0.8 -0.3
v 0.1 0.8 -0.3
v 0 0.8 -0.5
v 0.1 0.8 -0.5
v 0 1.1 0.5
v 0.1 1.1 0.5
v 0 1.1 0.4
v 0.1 1.1 0.4
v 0 1.1 -0.4
v 0.1 1.1 -0.4
v 0 1.1 -0.5
v 0.1 1.1 -0.5
v 0 1.2 0.4
v 0.1 1.2 0.4
v 0 1.2 0.3
v 0.1 1.2 0.3
v 0 1.2 -0.3
v 0.1 1.2 -0.3
v 0 1.2 -0.4
v 0.1 1.2 -0.4
v 0 1.3 0.3
v 0.1 1.3 0.3
v 0 1.3 0.2
v 0.1 1.3 0.2
v 0 1.3 -0.2
v 0.1 1.3 -0.2
v 0 1.3 -0.3
v 0.1 1.3 -0.3

# faces
f 4/2/1 2/2/1 1/2/1
f 5/2/1 2/2/1 4/2/1
f 7/1/1 4/1/1 3/1/1
f 8/2/1 5/2/1 4/2/1
f 8/1/1 4/1/1 7/1/1
f 9/1/1 6/1/1 5/1/1
f 9/2/1 5/2/1 8/2/1
f 10/1/1 6/1/1 9/1/1
f 11/2/1 8/2/1 7/2/1
f 11/2/1 9/2/1 8/2/1
f 11/2/1 10/2/1 9/2/1
f 12/2/1 10/2/1 11/2/1
f 13/2/1 11/2/1 7/2/1
f 14/2/1 11/2/1 13/2/1
f 15/2/1 11/2/1 14/2/1
f 16/1/1 12/1/1 11/1/1
f 16/2/1 11/2/1 15/2/1
f 17/2/1 10/2/1 12/2/1
f 17/1/1 12/1/1 16/1/1
f 18/2/1 10/2/1 17/2/1
f 19/2/1 10/2/1 18/2/1
f 20/2/1 10/2/1 19/2/1
f 21/2/1 15/2/1 14/2/1
f 22/1/1 16/1/1 15/1/1
f 22/2/1 15/2/1 21/2/1
f 23/1/1 16/1/1 22/1/1
f 24/2/1 17/2/1 16/2/1
f 24/1/1 16/1/1 23/1/1
f 25/1/1 18/1/1 17/1/1
f 25/2/1 17/2/1 24/2/1
f 26/1/1 18/1/1 25/1/1
f 27/2/1 19/2/1 18/2/1
f 27/1/1 18/1/1 26/1/1
f 28/2/1 19/2/1 27/2/1
f 29/2/1 23/2/1 22/2/1
f 30/1/1 26/1/1 25/1/1
f 30/2/1 23/2/1 29/2/1
f 30/1/1 24/1/1 23/1/1
f 30/1/1 25/1/1 24/1/1
f 31/2/1 27/2/1 26/2/1
f 31/1/1 26/1/1 30/1/1
f 32/2/1 27/2/1 31/2/1
f 33/2/2 34/2/2 36/2/2
f 36/2/2 34/2/2 37/2/2
f 35/1/2 36/1/2 39/1/2
f 36/2/2 37/2/2 40/2/2
f 39/1/2 36/1/2 40/1/2
f 37/1/2 38/1/2 41/1/2
f 40/2/2 37/2/2 41/2/2
f 41/1/2 38/1/2 42/1/2
f 39/2/2 40/2/2 43/2/2
f 40/2/2 41/2/2 43/2/2
f 41/2/2 42/2/2 43/2/2
f 43/2/2 42/2/2 44/2/2
f 39/2/2 43/2/2 45/2/2
f 45/2/2 43/2/2 46/2/2
f 46/2/2 43/2/2 47/2/2
f 43/1/2 44/1/2 48/1/2
f 47/2/2 43/2/2 48/2/2
f 44/2/2 42/2/2 49/2/2
f 48/1/2 44/1/2 49/1/2
f 49/2/2 42/2/2 50/2/2
f 50/2/2 42/2/2 51/2/2
f 51/2/2 42/2/2 52/2/2
f 46/2/2 47/2/2 53/2/2
f 47/1/2 48/1/2 54/1/2
f 53/2/2 47/2/2 54/2/2
f 54/1/2 48/1/2 55/1/2
f 48/2/2 49/2/2 56/2/2
f 55/1/2 48/1/2 56/1/2
f 49/1/2 50/1/2 57/1/2
f 56/2/2 49/2/2 57/2/2
f 57/1/2 50/1/2 58/1/2
f 50/2/2 51/2/2 59/2/2
f 58/1/2 50/1/2 59/1/2
f 59/2/2 51/2/2 60/2/2
f 54/2/2 55/2/2 61/2/2
f 57/1/2 58/1/2 62/1/2
f 61/2/2 55/2/2 62/2/2
f 55/1/2 56/1/2 62/1/2
f 56/1/2 57/1/2 62/1/2
f 58/2/2 59/2/2 63/2/2
f 62/1/2 58/1/2 63/1/2
f 63/2/2 59/2/2 64/2/2
f 68/1/3 66/1/3 65/1/3
f 69/2/3 67/2/3 66/2/3
f 69/1/3 66/1/3 68/1/3
f 70/2/3 67/2/3 69/2/3
f 73/2/3 72/2/3 71/2/3
f 74/2/3 72/2/3 73/2/3
f 79/2/3 76/2/3 75/2/3
f 80/2/3 76/2/3 79/2/3
f 81/2/3 78/2/3 77/2/3
f 82/2/3 78/2/3 81/2/3
f 83/2/4 84/2/4 87/2/4
f 87/2/4 84/2/4 88/2/4
f 85/2/4 86/2/4 89/2/4
f 89/2/4 86/2/4 90/2/4
f 91/2/4 92/2/4 93/2/4
f 93/2/4 92/2/4 94/2/4
f 95/1/4 96/1/4 98/1/4
f 96/2/4 97/2/4 99/2/4
f 98/1/4 96/1/4 99/1/4
f 99/2/4 97/2/4 100/2/4
f 103/2/5 102/2/5 101/2/5
f 104/2/5 102/2/5 103/2/5
f 107/1/5 106/1/5 105/1/5
f 108/1/5 106/1/5 107/1/5
f 111/1/5 110/1/5 109/1/5
f 112/1/5 110/1/5 111/1/5
f 113/2/6 114/2/6 115/2/6
f 115/2/6 114/2/6 116/2/6
f 117/2/6 118/2/6 119/2/6
f 119/2/6 118/2/6 120/2/6
f 121/2/6 122/2/6 123/2/6
f 123/2/6 122/2/6 124/2/6
f 125/2/6 126/2/6 127/2/6
f 127/2/6 126/2/6 128/2/6
f 129/2/6 130/2/6 131/2/6
f 131/2/6 130/2/6 132/2/6
f 131/1/6 132/1/6 133/1/6
f 133/1/6 132/1/6 134/1/6
f 133/2/6 134/2/6 135/2/6
f 135/2/6 134/2/6 136/2/6
