# MagicaVoxel @ Ephtracy

# group
o 

# material
mtllib RackItem5.mtl
usemtl palette

# normals
vn -1 0 0
vn 1 0 0
vn 0 0 1
vn 0 0 -1
vn 0 -1 0
vn 0 1 0

# texcoords
vt 0.544922 0.5
vt 0.576172 0.5
vt 0.658203 0.5
vt 0.701172 0.5

# verts
v -0.1 0.2 0.3
v -0.1 0.2 -0.3
v -0.1 0.3 0.5
v -0.1 0.3 0.3
v -0.1 0.3 -0.3
v -0.1 0.3 -0.5
v -0.1 0.4 0.5
v -0.1 0.4 0.4
v -0.1 0.4 -0.4
v -0.1 0.4 -0.5
v -0.1 0.5 0.3
v -0.1 0.5 -0.3
v -0.1 0.6 0.5
v -0.1 0.6 0.4
v -0.1 0.6 0.3
v -0.1 0.6 -0.3
v -0.1 0.6 -0.4
v -0.1 0.6 -0.5
v -0.1 0.7 0.5
v -0.1 0.7 0.3
v -0.1 0.7 -0.3
v -0.1 0.7 -0.5
v -0.1 0.8 0.5
v -0.1 0.8 0.3
v -0.1 0.8 -0.3
v -0.1 0.8 -0.5
v -0.1 0.9 0.5
v -0.1 0.9 0.3
v -0.1 0.9 -0.3
v -0.1 0.9 -0.5
v -0.1 1 0.5
v -0.1 1 0.3
v -0.1 1 -0.3
v -0.1 1 -0.5
v -0.1 1.1 0.5
v -0.1 1.1 0.3
v -0.1 1.1 -0.3
v -0.1 1.1 -0.5
v -0.1 1.2 0.5
v -0.1 1.2 0.4
v -0.1 1.2 0.2
v -0.1 1.2 -0.2
v -0.1 1.2 -0.4
v -0.1 1.2 -0.5
v -0.1 1.3 0.4
v -0.1 1.3 0.2
v -0.1 1.3 -0.2
v -0.1 1.3 -0.4
v -1.49012e-08 0.2 0.3
v -1.49012e-08 0.2 -0.3
v -1.49012e-08 0.3 0.5
v -1.49012e-08 0.3 0.3
v -1.49012e-08 0.3 -0.3
v -1.49012e-08 0.3 -0.5
v -1.49012e-08 0.4 0.5
v -1.49012e-08 0.4 0.4
v -1.49012e-08 0.4 -0.4
v -1.49012e-08 0.4 -0.5
v -1.49012e-08 0.5 0.3
v -1.49012e-08 0.5 -0.3
v -1.49012e-08 0.6 0.5
v -1.49012e-08 0.6 0.4
v -1.49012e-08 0.6 0.3
v -1.49012e-08 0.6 -0.3
v -1.49012e-08 0.6 -0.4
v -1.49012e-08 0.6 -0.5
v -1.49012e-08 0.7 0.5
v -1.49012e-08 0.7 0.3
v -1.49012e-08 0.7 -0.3
v -1.49012e-08 0.7 -0.5
v -1.49012e-08 0.8 0.5
v -1.49012e-08 0.8 0.3
v -1.49012e-08 0.8 -0.3
v -1.49012e-08 0.8 -0.5
v -1.49012e-08 0.9 0.5
v -1.49012e-08 0.9 0.3
v -1.49012e-08 0.9 -0.3
v -1.49012e-08 0.9 -0.5
v -1.49012e-08 1 0.5
v -1.49012e-08 1 0.3
v -1.49012e-08 1 -0.3
v -1.49012e-08 1 -0.5
v -1.49012e-08 1.1 0.5
v -1.49012e-08 1.1 0.3
v -1.49012e-08 1.1 -0.3
v -1.49012e-08 1.1 -0.5
v -1.49012e-08 1.2 0.5
v -1.49012e-08 1.2 0.4
v -1.49012e-08 1.2 0.2
v -1.49012e-08 1.2 -0.2
v -1.49012e-08 1.2 -0.4
v -1.49012e-08 1.2 -0.5
v -1.49012e-08 1.3 0.4
v -1.49012e-08 1.3 0.2
v -1.49012e-08 1.3 -0.2
v -1.49012e-08 1.3 -0.4
v -0.1 0.3 0.5
v -0.1 0.4 0.5
v -0.1 0.6 0.5
v -0.1 0.7 0.5
v -0.1 0.8 0.5
v -0.1 0.9 0.5
v -0.1 1 0.5
v -0.1 1.1 0.5
v -0.1 1.2 0.5
v -1.49012e-08 0.3 0.5
v -1.49012e-08 0.4 0.5
v -1.49012e-08 0.6 0.5
v -1.49012e-08 0.7 0.5
v -1.49012e-08 0.8 0.5
v -1.49012e-08 0.9 0.5
v -1.49012e-08 1 0.5
v -1.49012e-08 1.1 0.5
v -1.49012e-08 1.2 0.5
v -0.1 1.2 0.4
v -0.1 1.3 0.4
v -1.49012e-08 1.2 0.4
v -1.49012e-08 1.3 0.4
v -0.1 0.2 0.3
v -0.1 0.3 0.3
v -1.49012e-08 0.2 0.3
v -1.49012e-08 0.3 0.3
v -0.1 0.2 -0.3
v -0.1 0.3 -0.3
v -1.49012e-08 0.2 -0.3
v -1.49012e-08 0.3 -0.3
v -0.1 1.2 -0.4
v -0.1 1.3 -0.4
v -1.49012e-08 1.2 -0.4
v -1.49012e-08 1.3 -0.4
v -0.1 0.3 -0.5
v -0.1 0.4 -0.5
v -0.1 0.6 -0.5
v -0.1 0.7 -0.5
v -0.1 0.8 -0.5
v -0.1 0.9 -0.5
v -0.1 1 -0.5
v -0.1 1.1 -0.5
v -0.1 1.2 -0.5
v -1.49012e-08 0.3 -0.5
v -1.49012e-08 0.4 -0.5
v -1.49012e-08 0.6 -0.5
v -1.49012e-08 0.7 -0.5
v -1.49012e-08 0.8 -0.5
v -1.49012e-08 0.9 -0.5
v -1.49012e-08 1 -0.5
v -1.49012e-08 1.1 -0.5
v -1.49012e-08 1.2 -0.5
v -0.1 0.2 0.3
v -1.49012e-08 0.2 0.3
v -0.1 0.2 -0.3
v -1.49012e-08 0.2 -0.3
v -0.1 0.3 0.5
v -1.49012e-08 0.3 0.5
v -0.1 0.3 0.3
v -1.49012e-08 0.3 0.3
v -0.1 0.3 -0.3
v -1.49012e-08 0.3 -0.3
v -0.1 0.3 -0.5
v -1.49012e-08 0.3 -0.5
v -0.1 1.2 0.5
v -1.49012e-08 1.2 0.5
v -0.1 1.2 0.4
v -1.49012e-08 1.2 0.4
v -0.1 1.2 -0.4
v -1.49012e-08 1.2 -0.4
v -0.1 1.2 -0.5
v -1.49012e-08 1.2 -0.5
v -0.1 1.3 0.4
v -1.49012e-08 1.3 0.4
v -0.1 1.3 0.2
v -1.49012e-08 1.3 0.2
v -0.1 1.3 -0.2
v -1.49012e-08 1.3 -0.2
v -0.1 1.3 -0.4
v -1.49012e-08 1.3 -0.4

# faces
f 4/4/1 2/4/1 1/4/1
f 5/4/1 2/4/1 4/4/1
f 7/2/1 4/2/1 3/2/1
f 8/2/1 4/2/1 7/2/1
f 9/2/1 6/2/1 5/2/1
f 10/2/1 6/2/1 9/2/1
f 11/2/1 4/2/1 8/2/1
f 11/4/1 5/4/1 4/4/1
f 12/2/1 9/2/1 5/2/1
f 12/4/1 5/4/1 11/4/1
f 13/4/1 8/4/1 7/4/1
f 14/2/1 11/2/1 8/2/1
f 14/4/1 8/4/1 13/4/1
f 15/1/1 12/1/1 11/1/1
f 15/2/1 11/2/1 14/2/1
f 16/2/1 9/2/1 12/2/1
f 16/1/1 12/1/1 15/1/1
f 17/4/1 10/4/1 9/4/1
f 17/2/1 9/2/1 16/2/1
f 18/4/1 10/4/1 17/4/1
f 19/1/1 15/1/1 14/1/1
f 19/1/1 14/1/1 13/1/1
f 20/4/1 16/4/1 15/4/1
f 20/1/1 15/1/1 19/1/1
f 21/1/1 18/1/1 17/1/1
f 21/4/1 16/4/1 20/4/1
f 21/1/1 17/1/1 16/1/1
f 22/1/1 18/1/1 21/1/1
f 23/4/1 20/4/1 19/4/1
f 24/3/1 21/3/1 20/3/1
f 24/4/1 20/4/1 23/4/1
f 25/4/1 22/4/1 21/4/1
f 25/3/1 21/3/1 24/3/1
f 26/4/1 22/4/1 25/4/1
f 27/3/1 24/3/1 23/3/1
f 28/4/1 25/4/1 24/4/1
f 28/3/1 24/3/1 27/3/1
f 29/3/1 26/3/1 25/3/1
f 29/4/1 25/4/1 28/4/1
f 30/3/1 26/3/1 29/3/1
f 31/4/1 28/4/1 27/4/1
f 32/1/1 29/1/1 28/1/1
f 32/4/1 28/4/1 31/4/1
f 33/4/1 30/4/1 29/4/1
f 33/1/1 29/1/1 32/1/1
f 34/4/1 30/4/1 33/4/1
f 35/1/1 32/1/1 31/1/1
f 36/4/1 33/4/1 32/4/1
f 36/1/1 32/1/1 35/1/1
f 37/1/1 34/1/1 33/1/1
f 37/4/1 33/4/1 36/4/1
f 38/1/1 34/1/1 37/1/1
f 39/4/1 36/4/1 35/4/1
f 39/4/1 37/4/1 36/4/1
f 39/4/1 38/4/1 37/4/1
f 40/4/1 38/4/1 39/4/1
f 41/4/1 38/4/1 40/4/1
f 42/4/1 38/4/1 41/4/1
f 43/4/1 38/4/1 42/4/1
f 44/4/1 38/4/1 43/4/1
f 45/4/1 41/4/1 40/4/1
f 46/2/1 42/2/1 41/2/1
f 46/4/1 41/4/1 45/4/1
f 47/4/1 43/4/1 42/4/1
f 47/2/1 42/2/1 46/2/1
f 48/4/1 43/4/1 47/4/1
f 49/4/2 50/4/2 52/4/2
f 52/4/2 50/4/2 53/4/2
f 51/2/2 52/2/2 55/2/2
f 55/2/2 52/2/2 56/2/2
f 53/2/2 54/2/2 57/2/2
f 57/2/2 54/2/2 58/2/2
f 56/2/2 52/2/2 59/2/2
f 52/4/2 53/4/2 59/4/2
f 53/2/2 57/2/2 60/2/2
f 59/4/2 53/4/2 60/4/2
f 55/4/2 56/4/2 61/4/2
f 56/2/2 59/2/2 62/2/2
f 61/4/2 56/4/2 62/4/2
f 59/1/2 60/1/2 63/1/2
f 62/2/2 59/2/2 63/2/2
f 60/2/2 57/2/2 64/2/2
f 63/1/2 60/1/2 64/1/2
f 57/4/2 58/4/2 65/4/2
f 64/2/2 57/2/2 65/2/2
f 65/4/2 58/4/2 66/4/2
f 62/1/2 63/1/2 67/1/2
f 61/1/2 62/1/2 67/1/2
f 63/4/2 64/4/2 68/4/2
f 67/1/2 63/1/2 68/1/2
f 65/1/2 66/1/2 69/1/2
f 68/4/2 64/4/2 69/4/2
f 64/1/2 65/1/2 69/1/2
f 69/1/2 66/1/2 70/1/2
f 67/4/2 68/4/2 71/4/2
f 68/3/2 69/3/2 72/3/2
f 71/4/2 68/4/2 72/4/2
f 69/4/2 70/4/2 73/4/2
f 72/3/2 69/3/2 73/3/2
f 73/4/2 70/4/2 74/4/2
f 71/3/2 72/3/2 75/3/2
f 72/4/2 73/4/2 76/4/2
f 75/3/2 72/3/2 76/3/2
f 73/3/2 74/3/2 77/3/2
f 76/4/2 73/4/2 77/4/2
f 77/3/2 74/3/2 78/3/2
f 75/4/2 76/4/2 79/4/2
f 76/1/2 77/1/2 80/1/2
f 79/4/2 76/4/2 80/4/2
f 77/4/2 78/4/2 81/4/2
f 80/1/2 77/1/2 81/1/2
f 81/4/2 78/4/2 82/4/2
f 79/1/2 80/1/2 83/1/2
f 80/4/2 81/4/2 84/4/2
f 83/1/2 80/1/2 84/1/2
f 81/1/2 82/1/2 85/1/2
f 84/4/2 81/4/2 85/4/2
f 85/1/2 82/1/2 86/1/2
f 83/4/2 84/4/2 87/4/2
f 84/4/2 85/4/2 87/4/2
f 85/4/2 86/4/2 87/4/2
f 87/4/2 86/4/2 88/4/2
f 88/4/2 86/4/2 89/4/2
f 89/4/2 86/4/2 90/4/2
f 90/4/2 86/4/2 91/4/2
f 91/4/2 86/4/2 92/4/2
f 88/4/2 89/4/2 93/4/2
f 89/2/2 90/2/2 94/2/2
f 93/4/2 89/4/2 94/4/2
f 90/4/2 91/4/2 95/4/2
f 94/2/2 90/2/2 95/2/2
f 95/4/2 91/4/2 96/4/2
f 106/2/3 98/2/3 97/2/3
f 107/4/3 99/4/3 98/4/3
f 107/2/3 98/2/3 106/2/3
f 108/1/3 100/1/3 99/1/3
f 108/4/3 99/4/3 107/4/3
f 109/4/3 101/4/3 100/4/3
f 109/1/3 100/1/3 108/1/3
f 110/3/3 102/3/3 101/3/3
f 110/4/3 101/4/3 109/4/3
f 111/4/3 103/4/3 102/4/3
f 111/3/3 102/3/3 110/3/3
f 112/1/3 104/1/3 103/1/3
f 112/4/3 103/4/3 111/4/3
f 113/4/3 105/4/3 104/4/3
f 113/1/3 104/1/3 112/1/3
f 114/4/3 105/4/3 113/4/3
f 117/4/3 116/4/3 115/4/3
f 118/4/3 116/4/3 117/4/3
f 121/4/3 120/4/3 119/4/3
f 122/4/3 120/4/3 121/4/3
f 123/4/4 124/4/4 125/4/4
f 125/4/4 124/4/4 126/4/4
f 127/4/4 128/4/4 129/4/4
f 129/4/4 128/4/4 130/4/4
f 131/2/4 132/2/4 140/2/4
f 132/4/4 133/4/4 141/4/4
f 140/2/4 132/2/4 141/2/4
f 133/1/4 134/1/4 142/1/4
f 141/4/4 133/4/4 142/4/4
f 134/4/4 135/4/4 143/4/4
f 142/1/4 134/1/4 143/1/4
f 135/3/4 136/3/4 144/3/4
f 143/4/4 135/4/4 144/4/4
f 136/4/4 137/4/4 145/4/4
f 144/3/4 136/3/4 145/3/4
f 137/1/4 138/1/4 146/1/4
f 145/4/4 137/4/4 146/4/4
f 138/4/4 139/4/4 147/4/4
f 146/1/4 138/1/4 147/1/4
f 147/4/4 139/4/4 148/4/4
f 151/4/5 150/4/5 149/4/5
f 152/4/5 150/4/5 151/4/5
f 155/2/5 154/2/5 153/2/5
f 156/2/5 154/2/5 155/2/5
f 159/2/5 158/2/5 157/2/5
f 160/2/5 158/2/5 159/2/5
f 161/4/6 162/4/6 163/4/6
f 163/4/6 162/4/6 164/4/6
f 165/4/6 166/4/6 167/4/6
f 167/4/6 166/4/6 168/4/6
f 169/4/6 170/4/6 171/4/6
f 171/4/6 170/4/6 172/4/6
f 171/2/6 172/2/6 173/2/6
f 173/2/6 172/2/6 174/2/6
f 173/4/6 174/4/6 175/4/6
f 175/4/6 174/4/6 176/4/6
