# MagicaVoxel @ Ephtracy

# group
o 

# material
mtllib RackItem35.mtl
usemtl palette

# normals
vn -1 0 0
vn 1 0 0
vn 0 0 1
vn 0 0 -1
vn 0 -1 0
vn 0 1 0

# texcoords
vt 0.798828 0.5
vt 0.810547 0.5
vt 0.982422 0.5

# verts
v 0 0.2 0.3
v 0 0.2 0
v 0 0.2 -0.1
v 0 0.2 -0.3
v 0 0.4 0.1
v 0 0.4 0
v 0 0.5 0.1
v 0 0.5 0
v 0 0.6 0.1
v 0 0.6 0
v 0 0.7 0.1
v 0 0.7 0
v 0 0.8 0.5
v 0 0.8 0.3
v 0 0.8 0.1
v 0 0.8 0
v 0 0.8 -0.3
v 0 0.8 -0.5
v 0 0.9 0.5
v 0 0.9 0.3
v 0 0.9 0.1
v 0 0.9 0
v 0 0.9 -0.3
v 0 0.9 -0.5
v 0 1 0.1
v 0 1 0
v 0 1.1 0.5
v 0 1.1 0.4
v 0 1.1 0.3
v 0 1.1 0.2
v 0 1.1 0.1
v 0 1.1 -0.1
v 0 1.1 -0.2
v 0 1.1 -0.3
v 0 1.1 -0.4
v 0 1.1 -0.5
v 0 1.2 0.4
v 0 1.2 0.3
v 0 1.2 0.2
v 0 1.2 -0.2
v 0 1.2 -0.3
v 0 1.2 -0.4
v 0 1.3 0.3
v 0 1.3 0.2
v 0 1.3 -0.2
v 0 1.3 -0.3
v 0.1 0.2 0.3
v 0.1 0.2 0
v 0.1 0.2 -0.1
v 0.1 0.2 -0.3
v 0.1 0.4 0.1
v 0.1 0.4 0
v 0.1 0.5 0.1
v 0.1 0.5 0
v 0.1 0.6 0.1
v 0.1 0.6 0
v 0.1 0.7 0.1
v 0.1 0.7 0
v 0.1 0.8 0.5
v 0.1 0.8 0.3
v 0.1 0.8 0.1
v 0.1 0.8 0
v 0.1 0.8 -0.3
v 0.1 0.8 -0.5
v 0.1 0.9 0.5
v 0.1 0.9 0.3
v 0.1 0.9 0.1
v 0.1 0.9 0
v 0.1 0.9 -0.3
v 0.1 0.9 -0.5
v 0.1 1 0.1
v 0.1 1 0
v 0.1 1.1 0.5
v 0.1 1.1 0.4
v 0.1 1.1 0.3
v 0.1 1.1 0.2
v 0.1 1.1 0.1
v 0.1 1.1 -0.1
v 0.1 1.1 -0.2
v 0.1 1.1 -0.3
v 0.1 1.1 -0.4
v 0.1 1.1 -0.5
v 0.1 1.2 0.4
v 0.1 1.2 0.3
v 0.1 1.2 0.2
v 0.1 1.2 -0.2
v 0.1 1.2 -0.3
v 0.1 1.2 -0.4
v 0.1 1.3 0.3
v 0.1 1.3 0.2
v 0.1 1.3 -0.2
v 0.1 1.3 -0.3
v 0 0.8 0.5
v 0 0.9 0.5
v 0 1.1 0.5
v 0.1 0.8 0.5
v 0.1 0.9 0.5
v 0.1 1.1 0.5
v 0 1.1 0.4
v 0 1.2 0.4
v 0.1 1.1 0.4
v 0.1 1.2 0.4
v 0 0.2 0.3
v 0 0.8 0.3
v 0 1.2 0.3
v 0 1.3 0.3
v 0.1 0.2 0.3
v 0.1 0.8 0.3
v 0.1 1.2 0.3
v 0.1 1.3 0.3
v 0 0.2 -0.3
v 0 0.8 -0.3
v 0 1.2 -0.3
v 0 1.3 -0.3
v 0.1 0.2 -0.3
v 0.1 0.8 -0.3
v 0.1 1.2 -0.3
v 0.1 1.3 -0.3
v 0 1.1 -0.4
v 0 1.2 -0.4
v 0.1 1.1 -0.4
v 0.1 1.2 -0.4
v 0 0.8 -0.5
v 0 0.9 -0.5
v 0 1.1 -0.5
v 0.1 0.8 -0.5
v 0.1 0.9 -0.5
v 0.1 1.1 -0.5
v 0 0.2 0.3
v 0.1 0.2 0.3
v 0 0.2 0
v 0.1 0.2 0
v 0 0.2 -0.1
v 0.1 0.2 -0.1
v 0 0.2 -0.3
v 0.1 0.2 -0.3
v 0 0.8 0.5
v 0.1 0.8 0.5
v 0 0.8 0.3
v 0.1 0.8 0.3
v 0 0.8 -0.3
v 0.1 0.8 -0.3
v 0 0.8 -0.5
v 0.1 0.8 -0.5
v 0 1.1 0.5
v 0.1 1.1 0.5
v 0 1.1 0.4
v 0.1 1.1 0.4
v 0 1.1 -0.4
v 0.1 1.1 -0.4
v 0 1.1 -0.5
v 0.1 1.1 -0.5
v 0 1.2 0.4
v 0.1 1.2 0.4
v 0 1.2 0.3
v 0.1 1.2 0.3
v 0 1.2 -0.3
v 0.1 1.2 -0.3
v 0 1.2 -0.4
v 0.1 1.2 -0.4
v 0 1.3 0.3
v 0.1 1.3 0.3
v 0 1.3 0.2
v 0.1 1.3 0.2
v 0 1.3 -0.2
v 0.1 1.3 -0.2
v 0 1.3 -0.3
v 0.1 1.3 -0.3

# faces
f 5/2/1 2/2/1 1/2/1
f 6/3/1 3/3/1 2/3/1
f 6/2/1 2/2/1 5/2/1
f 7/2/1 5/2/1 1/2/1
f 7/1/1 6/1/1 5/1/1
f 8/3/1 3/3/1 6/3/1
f 8/1/1 6/1/1 7/1/1
f 9/2/1 7/2/1 1/2/1
f 9/2/1 8/2/1 7/2/1
f 10/3/1 3/3/1 8/3/1
f 10/2/1 8/2/1 9/2/1
f 11/2/1 9/2/1 1/2/1
f 11/1/1 10/1/1 9/1/1
f 12/3/1 3/3/1 10/3/1
f 12/1/1 10/1/1 11/1/1
f 14/2/1 11/2/1 1/2/1
f 14/2/1 12/2/1 11/2/1
f 15/2/1 12/2/1 14/2/1
f 16/3/1 3/3/1 12/3/1
f 16/2/1 12/2/1 15/2/1
f 17/2/1 4/2/1 3/2/1
f 19/3/1 14/3/1 13/3/1
f 20/2/1 15/2/1 14/2/1
f 20/3/1 14/3/1 19/3/1
f 21/1/1 16/1/1 15/1/1
f 21/2/1 15/2/1 20/2/1
f 22/3/1 3/3/1 16/3/1
f 22/1/1 16/1/1 21/1/1
f 23/3/1 18/3/1 17/3/1
f 23/2/1 17/2/1 3/2/1
f 24/3/1 18/3/1 23/3/1
f 25/2/1 21/2/1 20/2/1
f 25/2/1 20/2/1 19/2/1
f 25/2/1 22/2/1 21/2/1
f 26/3/1 3/3/1 22/3/1
f 26/2/1 22/2/1 25/2/1
f 27/2/1 25/2/1 19/2/1
f 28/2/1 25/2/1 27/2/1
f 29/2/1 25/2/1 28/2/1
f 30/2/1 25/2/1 29/2/1
f 31/3/1 26/3/1 25/3/1
f 31/2/1 25/2/1 30/2/1
f 32/3/1 3/3/1 26/3/1
f 32/3/1 26/3/1 31/3/1
f 32/2/1 24/2/1 23/2/1
f 32/2/1 23/2/1 3/2/1
f 33/2/1 24/2/1 32/2/1
f 34/2/1 24/2/1 33/2/1
f 35/2/1 24/2/1 34/2/1
f 36/2/1 24/2/1 35/2/1
f 37/2/1 29/2/1 28/2/1
f 38/3/1 30/3/1 29/3/1
f 38/2/1 29/2/1 37/2/1
f 39/2/1 31/2/1 30/2/1
f 39/3/1 30/3/1 38/3/1
f 39/2/1 32/2/1 31/2/1
f 39/2/1 33/2/1 32/2/1
f 40/3/1 34/3/1 33/3/1
f 40/2/1 33/2/1 39/2/1
f 41/2/1 35/2/1 34/2/1
f 41/3/1 34/3/1 40/3/1
f 42/2/1 35/2/1 41/2/1
f 43/2/1 39/2/1 38/2/1
f 44/3/1 40/3/1 39/3/1
f 44/2/1 39/2/1 43/2/1
f 45/2/1 41/2/1 40/2/1
f 45/3/1 40/3/1 44/3/1
f 46/2/1 41/2/1 45/2/1
f 47/2/2 48/2/2 51/2/2
f 48/3/2 49/3/2 52/3/2
f 51/2/2 48/2/2 52/2/2
f 47/2/2 51/2/2 53/2/2
f 51/1/2 52/1/2 53/1/2
f 52/3/2 49/3/2 54/3/2
f 53/1/2 52/1/2 54/1/2
f 47/2/2 53/2/2 55/2/2
f 53/2/2 54/2/2 55/2/2
f 54/3/2 49/3/2 56/3/2
f 55/2/2 54/2/2 56/2/2
f 47/2/2 55/2/2 57/2/2
f 55/1/2 56/1/2 57/1/2
f 56/3/2 49/3/2 58/3/2
f 57/1/2 56/1/2 58/1/2
f 47/2/2 57/2/2 60/2/2
f 57/2/2 58/2/2 60/2/2
f 60/2/2 58/2/2 61/2/2
f 58/3/2 49/3/2 62/3/2
f 61/2/2 58/2/2 62/2/2
f 49/2/2 50/2/2 63/2/2
f 59/3/2 60/3/2 65/3/2
f 60/2/2 61/2/2 66/2/2
f 65/3/2 60/3/2 66/3/2
f 61/1/2 62/1/2 67/1/2
f 66/2/2 61/2/2 67/2/2
f 62/3/2 49/3/2 68/3/2
f 67/1/2 62/1/2 68/1/2
f 63/3/2 64/3/2 69/3/2
f 49/2/2 63/2/2 69/2/2
f 69/3/2 64/3/2 70/3/2
f 66/2/2 67/2/2 71/2/2
f 65/2/2 66/2/2 71/2/2
f 67/2/2 68/2/2 71/2/2
f 68/3/2 49/3/2 72/3/2
f 71/2/2 68/2/2 72/2/2
f 65/2/2 71/2/2 73/2/2
f 73/2/2 71/2/2 74/2/2
f 74/2/2 71/2/2 75/2/2
f 75/2/2 71/2/2 76/2/2
f 71/3/2 72/3/2 77/3/2
f 76/2/2 71/2/2 77/2/2
f 72/3/2 49/3/2 78/3/2
f 77/3/2 72/3/2 78/3/2
f 69/2/2 70/2/2 78/2/2
f 49/2/2 69/2/2 78/2/2
f 78/2/2 70/2/2 79/2/2
f 79/2/2 70/2/2 80/2/2
f 80/2/2 70/2/2 81/2/2
f 81/2/2 70/2/2 82/2/2
f 74/2/2 75/2/2 83/2/2
f 75/3/2 76/3/2 84/3/2
f 83/2/2 75/2/2 84/2/2
f 76/2/2 77/2/2 85/2/2
f 84/3/2 76/3/2 85/3/2
f 77/2/2 78/2/2 85/2/2
f 78/2/2 79/2/2 85/2/2
f 79/3/2 80/3/2 86/3/2
f 85/2/2 79/2/2 86/2/2
f 80/2/2 81/2/2 87/2/2
f 86/3/2 80/3/2 87/3/2
f 87/2/2 81/2/2 88/2/2
f 84/2/2 85/2/2 89/2/2
f 85/3/2 86/3/2 90/3/2
f 89/2/2 85/2/2 90/2/2
f 86/2/2 87/2/2 91/2/2
f 90/3/2 86/3/2 91/3/2
f 91/2/2 87/2/2 92/2/2
f 96/3/3 94/3/3 93/3/3
f 97/2/3 95/2/3 94/2/3
f 97/3/3 94/3/3 96/3/3
f 98/2/3 95/2/3 97/2/3
f 101/2/3 100/2/3 99/2/3
f 102/2/3 100/2/3 101/2/3
f 107/2/3 104/2/3 103/2/3
f 108/2/3 104/2/3 107/2/3
f 109/2/3 106/2/3 105/2/3
f 110/2/3 106/2/3 109/2/3
f 111/2/4 112/2/4 115/2/4
f 115/2/4 112/2/4 116/2/4
f 113/2/4 114/2/4 117/2/4
f 117/2/4 114/2/4 118/2/4
f 119/2/4 120/2/4 121/2/4
f 121/2/4 120/2/4 122/2/4
f 123/3/4 124/3/4 126/3/4
f 124/2/4 125/2/4 127/2/4
f 126/3/4 124/3/4 127/3/4
f 127/2/4 125/2/4 128/2/4
f 131/2/5 130/2/5 129/2/5
f 132/2/5 130/2/5 131/2/5
f 133/3/5 132/3/5 131/3/5
f 134/3/5 132/3/5 133/3/5
f 135/2/5 134/2/5 133/2/5
f 136/2/5 134/2/5 135/2/5
f 139/3/5 138/3/5 137/3/5
f 140/3/5 138/3/5 139/3/5
f 143/3/5 142/3/5 141/3/5
f 144/3/5 142/3/5 143/3/5
f 145/2/6 146/2/6 147/2/6
f 147/2/6 146/2/6 148/2/6
f 149/2/6 150/2/6 151/2/6
f 151/2/6 150/2/6 152/2/6
f 153/2/6 154/2/6 155/2/6
f 155/2/6 154/2/6 156/2/6
f 157/2/6 158/2/6 159/2/6
f 159/2/6 158/2/6 160/2/6
f 161/2/6 162/2/6 163/2/6
f 163/2/6 162/2/6 164/2/6
f 163/3/6 164/3/6 165/3/6
f 165/3/6 164/3/6 166/3/6
f 165/2/6 166/2/6 167/2/6
f 167/2/6 166/2/6 168/2/6
