# MagicaVoxel @ Ephtracy

# group
o 

# material
mtllib RackItem34.mtl
usemtl palette

# normals
vn -1 0 0
vn 1 0 0
vn 0 0 1
vn 0 0 -1
vn 0 -1 0
vn 0 1 0

# texcoords
vt 0.533203 0.5
vt 0.798828 0.5

# verts
v -0.1 0.2 0.3
v -0.1 0.2 -0.3
v -0.1 0.3 0.5
v -0.1 0.3 0.3
v -0.1 0.3 0.2
v -0.1 0.3 -0.2
v -0.1 0.3 -0.3
v -0.1 0.3 -0.5
v -0.1 0.4 0.5
v -0.1 0.4 0.3
v -0.1 0.4 -0.3
v -0.1 0.4 -0.5
v -0.1 0.9 0.4
v -0.1 0.9 0.3
v -0.1 0.9 0.2
v -0.1 0.9 -0.2
v -0.1 0.9 -0.3
v -0.1 0.9 -0.4
v -0.1 1 0.4
v -0.1 1 0.3
v -0.1 1 -0.3
v -0.1 1 -0.4
v -0.1 1.1 0.1
v -0.1 1.1 -0.1
v -0.1 1.2 0.5
v -0.1 1.2 0.4
v -0.1 1.2 0.2
v -0.1 1.2 0.1
v -0.1 1.2 -0.1
v -0.1 1.2 -0.2
v -0.1 1.2 -0.4
v -0.1 1.2 -0.5
v -0.1 1.3 0.4
v -0.1 1.3 0.2
v -0.1 1.3 -0.2
v -0.1 1.3 -0.4
v 0 0.2 0.3
v 0 0.2 -0.3
v 0 0.3 0.5
v 0 0.3 0.3
v 0 0.3 0.2
v 0 0.3 -0.2
v 0 0.3 -0.3
v 0 0.3 -0.5
v 0 0.4 0.5
v 0 0.4 0.3
v 0 0.4 -0.3
v 0 0.4 -0.5
v 0 0.9 0.4
v 0 0.9 0.3
v 0 0.9 0.2
v 0 0.9 -0.2
v 0 0.9 -0.3
v 0 0.9 -0.4
v 0 1 0.4
v 0 1 0.3
v 0 1 -0.3
v 0 1 -0.4
v 0 1.1 0.1
v 0 1.1 -0.1
v 0 1.2 0.5
v 0 1.2 0.4
v 0 1.2 0.2
v 0 1.2 0.1
v 0 1.2 -0.1
v 0 1.2 -0.2
v 0 1.2 -0.4
v 0 1.2 -0.5
v 0 1.3 0.4
v 0 1.3 0.2
v 0 1.3 -0.2
v 0 1.3 -0.4
v -0.1 0.3 0.5
v -0.1 0.4 0.5
v -0.1 1.2 0.5
v 0 0.3 0.5
v 0 0.4 0.5
v 0 1.2 0.5
v -0.1 1.2 0.4
v -0.1 1.3 0.4
v 0 1.2 0.4
v 0 1.3 0.4
v -0.1 0.2 0.3
v -0.1 0.3 0.3
v 0 0.2 0.3
v 0 0.3 0.3
v -0.1 0.2 -0.3
v -0.1 0.3 -0.3
v 0 0.2 -0.3
v 0 0.3 -0.3
v -0.1 1.2 -0.4
v -0.1 1.3 -0.4
v 0 1.2 -0.4
v 0 1.3 -0.4
v -0.1 0.3 -0.5
v -0.1 0.4 -0.5
v -0.1 1.2 -0.5
v 0 0.3 -0.5
v 0 0.4 -0.5
v 0 1.2 -0.5
v -0.1 0.2 0.3
v 0 0.2 0.3
v -0.1 0.2 -0.3
v 0 0.2 -0.3
v -0.1 0.3 0.5
v 0 0.3 0.5
v -0.1 0.3 0.3
v 0 0.3 0.3
v -0.1 0.3 -0.3
v 0 0.3 -0.3
v -0.1 0.3 -0.5
v 0 0.3 -0.5
v -0.1 1.2 0.5
v 0 1.2 0.5
v -0.1 1.2 0.4
v 0 1.2 0.4
v -0.1 1.2 -0.4
v 0 1.2 -0.4
v -0.1 1.2 -0.5
v 0 1.2 -0.5
v -0.1 1.3 0.4
v 0 1.3 0.4
v -0.1 1.3 0.2
v 0 1.3 0.2
v -0.1 1.3 -0.2
v 0 1.3 -0.2
v -0.1 1.3 -0.4
v 0 1.3 -0.4

# faces
f 4/2/1 2/2/1 1/2/1
f 5/2/1 2/2/1 4/2/1
f 6/2/1 2/2/1 5/2/1
f 7/2/1 2/2/1 6/2/1
f 9/2/1 4/2/1 3/2/1
f 9/2/1 5/2/1 4/2/1
f 10/2/1 5/2/1 9/2/1
f 11/2/1 8/2/1 7/2/1
f 11/2/1 7/2/1 6/2/1
f 12/2/1 8/2/1 11/2/1
f 13/1/1 10/1/1 9/1/1
f 14/2/1 5/2/1 10/2/1
f 14/1/1 10/1/1 13/1/1
f 15/1/1 6/1/1 5/1/1
f 15/2/1 5/2/1 14/2/1
f 16/2/1 11/2/1 6/2/1
f 16/1/1 6/1/1 15/1/1
f 17/1/1 12/1/1 11/1/1
f 17/2/1 11/2/1 16/2/1
f 18/1/1 12/1/1 17/1/1
f 19/1/1 13/1/1 9/1/1
f 19/2/1 14/2/1 13/2/1
f 20/1/1 15/1/1 14/1/1
f 20/2/1 14/2/1 19/2/1
f 20/1/1 16/1/1 15/1/1
f 20/1/1 17/1/1 16/1/1
f 21/2/1 18/2/1 17/2/1
f 21/1/1 17/1/1 20/1/1
f 22/1/1 12/1/1 18/1/1
f 22/2/1 18/2/1 21/2/1
f 23/1/1 21/1/1 20/1/1
f 23/1/1 20/1/1 19/1/1
f 23/1/1 22/1/1 21/1/1
f 24/1/1 22/1/1 23/1/1
f 25/1/1 19/1/1 9/1/1
f 25/1/1 23/1/1 19/1/1
f 26/1/1 23/1/1 25/1/1
f 27/1/1 23/1/1 26/1/1
f 28/2/1 24/2/1 23/2/1
f 28/1/1 23/1/1 27/1/1
f 29/1/1 22/1/1 24/1/1
f 29/2/1 24/2/1 28/2/1
f 30/1/1 22/1/1 29/1/1
f 31/1/1 12/1/1 22/1/1
f 31/1/1 22/1/1 30/1/1
f 32/1/1 12/1/1 31/1/1
f 33/1/1 27/1/1 26/1/1
f 34/2/1 30/2/1 29/2/1
f 34/1/1 27/1/1 33/1/1
f 34/2/1 28/2/1 27/2/1
f 34/2/1 29/2/1 28/2/1
f 35/1/1 31/1/1 30/1/1
f 35/2/1 30/2/1 34/2/1
f 36/1/1 31/1/1 35/1/1
f 37/2/2 38/2/2 40/2/2
f 40/2/2 38/2/2 41/2/2
f 41/2/2 38/2/2 42/2/2
f 42/2/2 38/2/2 43/2/2
f 39/2/2 40/2/2 45/2/2
f 40/2/2 41/2/2 45/2/2
f 45/2/2 41/2/2 46/2/2
f 43/2/2 44/2/2 47/2/2
f 42/2/2 43/2/2 47/2/2
f 47/2/2 44/2/2 48/2/2
f 45/1/2 46/1/2 49/1/2
f 46/2/2 41/2/2 50/2/2
f 49/1/2 46/1/2 50/1/2
f 41/1/2 42/1/2 51/1/2
f 50/2/2 41/2/2 51/2/2
f 42/2/2 47/2/2 52/2/2
f 51/1/2 42/1/2 52/1/2
f 47/1/2 48/1/2 53/1/2
f 52/2/2 47/2/2 53/2/2
f 53/1/2 48/1/2 54/1/2
f 45/1/2 49/1/2 55/1/2
f 49/2/2 50/2/2 55/2/2
f 50/1/2 51/1/2 56/1/2
f 55/2/2 50/2/2 56/2/2
f 51/1/2 52/1/2 56/1/2
f 52/1/2 53/1/2 56/1/2
f 53/2/2 54/2/2 57/2/2
f 56/1/2 53/1/2 57/1/2
f 54/1/2 48/1/2 58/1/2
f 57/2/2 54/2/2 58/2/2
f 56/1/2 57/1/2 59/1/2
f 55/1/2 56/1/2 59/1/2
f 57/1/2 58/1/2 59/1/2
f 59/1/2 58/1/2 60/1/2
f 45/1/2 55/1/2 61/1/2
f 55/1/2 59/1/2 61/1/2
f 61/1/2 59/1/2 62/1/2
f 62/1/2 59/1/2 63/1/2
f 59/2/2 60/2/2 64/2/2
f 63/1/2 59/1/2 64/1/2
f 60/1/2 58/1/2 65/1/2
f 64/2/2 60/2/2 65/2/2
f 65/1/2 58/1/2 66/1/2
f 58/1/2 48/1/2 67/1/2
f 66/1/2 58/1/2 67/1/2
f 67/1/2 48/1/2 68/1/2
f 62/1/2 63/1/2 69/1/2
f 65/2/2 66/2/2 70/2/2
f 69/1/2 63/1/2 70/1/2
f 63/2/2 64/2/2 70/2/2
f 64/2/2 65/2/2 70/2/2
f 66/1/2 67/1/2 71/1/2
f 70/2/2 66/2/2 71/2/2
f 71/1/2 67/1/2 72/1/2
f 76/2/3 74/2/3 73/2/3
f 77/1/3 75/1/3 74/1/3
f 77/2/3 74/2/3 76/2/3
f 78/1/3 75/1/3 77/1/3
f 81/1/3 80/1/3 79/1/3
f 82/1/3 80/1/3 81/1/3
f 85/2/3 84/2/3 83/2/3
f 86/2/3 84/2/3 85/2/3
f 87/2/4 88/2/4 89/2/4
f 89/2/4 88/2/4 90/2/4
f 91/1/4 92/1/4 93/1/4
f 93/1/4 92/1/4 94/1/4
f 95/2/4 96/2/4 98/2/4
f 96/1/4 97/1/4 99/1/4
f 98/2/4 96/2/4 99/2/4
f 99/1/4 97/1/4 100/1/4
f 103/2/5 102/2/5 101/2/5
f 104/2/5 102/2/5 103/2/5
f 107/2/5 106/2/5 105/2/5
f 108/2/5 106/2/5 107/2/5
f 111/2/5 110/2/5 109/2/5
f 112/2/5 110/2/5 111/2/5
f 113/1/6 114/1/6 115/1/6
f 115/1/6 114/1/6 116/1/6
f 117/1/6 118/1/6 119/1/6
f 119/1/6 118/1/6 120/1/6
f 121/1/6 122/1/6 123/1/6
f 123/1/6 122/1/6 124/1/6
f 123/2/6 124/2/6 125/2/6
f 125/2/6 124/2/6 126/2/6
f 125/1/6 126/1/6 127/1/6
f 127/1/6 126/1/6 128/1/6
