# MagicaVoxel @ Ephtracy

# group
o 

# material
mtllib RackItem38.mtl
usemtl palette

# normals
vn -1 0 0
vn 1 0 0
vn 0 0 1
vn 0 0 -1
vn 0 -1 0
vn 0 1 0

# texcoords
vt 0.505859 0.5
vt 0.533203 0.5
vt 0.537109 0.5
vt 0.666016 0.5

# verts
v -0.1 0.2 0.3
v -0.1 0.2 0
v -0.1 0.2 -0.1
v -0.1 0.2 -0.3
v -0.1 0.3 0.5
v -0.1 0.3 0.4
v -0.1 0.3 0.3
v -0.1 0.3 -0.3
v -0.1 0.3 -0.4
v -0.1 0.3 -0.5
v -0.1 0.6 0
v -0.1 0.6 -0.1
v -0.1 0.6 -0.2
v -0.1 0.8 0.1
v -0.1 0.8 -0.1
v -0.1 0.9 0.2
v -0.1 0.9 0.1
v -0.1 0.9 -0.1
v -0.1 1 0.4
v -0.1 1 0.3
v -0.1 1 0.2
v -0.1 1 0.1
v -0.1 1 -0.1
v -0.1 1 -0.2
v -0.1 1 -0.3
v -0.1 1 -0.4
v -0.1 1.1 0.4
v -0.1 1.1 0.3
v -0.1 1.1 0.2
v -0.1 1.1 0.1
v -0.1 1.1 -0.1
v -0.1 1.1 -0.2
v -0.1 1.1 -0.3
v -0.1 1.2 0.5
v -0.1 1.2 0.4
v -0.1 1.2 0.3
v -0.1 1.2 0.2
v -0.1 1.2 0.1
v -0.1 1.2 -0.1
v -0.1 1.2 -0.2
v -0.1 1.2 -0.3
v -0.1 1.2 -0.4
v -0.1 1.2 -0.5
v -0.1 1.3 0.4
v -0.1 1.3 0.3
v -0.1 1.3 0.2
v -0.1 1.3 0.1
v -0.1 1.3 -0.1
v -0.1 1.3 -0.2
v -0.1 1.3 -0.3
v -0.1 1.3 -0.4
v 0 0.2 0.3
v 0 0.2 0
v 0 0.2 -0.1
v 0 0.2 -0.3
v 0 0.3 0.5
v 0 0.3 0.4
v 0 0.3 0.3
v 0 0.3 -0.3
v 0 0.3 -0.4
v 0 0.3 -0.5
v 0 0.6 0
v 0 0.6 -0.1
v 0 0.6 -0.2
v 0 0.8 0.1
v 0 0.8 -0.1
v 0 0.9 0.2
v 0 0.9 0.1
v 0 0.9 -0.1
v 0 1 0.4
v 0 1 0.3
v 0 1 0.2
v 0 1 0.1
v 0 1 -0.1
v 0 1 -0.2
v 0 1 -0.3
v 0 1 -0.4
v 0 1.1 0.4
v 0 1.1 0.3
v 0 1.1 0.2
v 0 1.1 0.1
v 0 1.1 -0.1
v 0 1.1 -0.2
v 0 1.1 -0.3
v 0 1.2 0.5
v 0 1.2 0.4
v 0 1.2 0.3
v 0 1.2 0.2
v 0 1.2 0.1
v 0 1.2 -0.1
v 0 1.2 -0.2
v 0 1.2 -0.3
v 0 1.2 -0.4
v 0 1.2 -0.5
v 0 1.3 0.4
v 0 1.3 0.3
v 0 1.3 0.2
v 0 1.3 0.1
v 0 1.3 -0.1
v 0 1.3 -0.2
v 0 1.3 -0.3
v 0 1.3 -0.4
v -0.1 0.3 0.5
v -0.1 1.2 0.5
v 0 0.3 0.5
v 0 1.2 0.5
v -0.1 1.2 0.4
v -0.1 1.3 0.4
v 0 1.2 0.4
v 0 1.3 0.4
v -0.1 0.2 0.3
v -0.1 0.3 0.3
v 0 0.2 0.3
v 0 0.3 0.3
v -0.1 0.2 -0.3
v -0.1 0.3 -0.3
v 0 0.2 -0.3
v 0 0.3 -0.3
v -0.1 1.2 -0.4
v -0.1 1.3 -0.4
v 0 1.2 -0.4
v 0 1.3 -0.4
v -0.1 0.3 -0.5
v -0.1 1.2 -0.5
v 0 0.3 -0.5
v 0 1.2 -0.5
v -0.1 0.2 0.3
v 0 0.2 0.3
v -0.1 0.2 0
v 0 0.2 0
v -0.1 0.2 -0.1
v 0 0.2 -0.1
v -0.1 0.2 -0.3
v 0 0.2 -0.3
v -0.1 0.3 0.5
v 0 0.3 0.5
v -0.1 0.3 0.4
v 0 0.3 0.4
v -0.1 0.3 0.3
v 0 0.3 0.3
v -0.1 0.3 -0.3
v 0 0.3 -0.3
v -0.1 0.3 -0.4
v 0 0.3 -0.4
v -0.1 0.3 -0.5
v 0 0.3 -0.5
v -0.1 1.2 0.5
v 0 1.2 0.5
v -0.1 1.2 0.4
v 0 1.2 0.4
v -0.1 1.2 -0.4
v 0 1.2 -0.4
v -0.1 1.2 -0.5
v 0 1.2 -0.5
v -0.1 1.3 0.4
v 0 1.3 0.4
v -0.1 1.3 0.3
v 0 1.3 0.3
v -0.1 1.3 0.2
v 0 1.3 0.2
v -0.1 1.3 0.1
v 0 1.3 0.1
v -0.1 1.3 -0.1
v 0 1.3 -0.1
v -0.1 1.3 -0.2
v 0 1.3 -0.2
v -0.1 1.3 -0.3
v 0 1.3 -0.3
v -0.1 1.3 -0.4
v 0 1.3 -0.4

# faces
f 7/2/1 2/2/1 1/2/1
f 8/2/1 4/2/1 3/2/1
f 11/4/1 3/4/1 2/4/1
f 11/2/1 2/2/1 7/2/1
f 12/2/1 8/2/1 3/2/1
f 12/4/1 3/4/1 11/4/1
f 13/2/1 8/2/1 12/2/1
f 14/2/1 11/2/1 7/2/1
f 14/2/1 12/2/1 11/2/1
f 15/4/1 13/4/1 12/4/1
f 15/2/1 12/2/1 14/2/1
f 16/2/1 14/2/1 7/2/1
f 17/4/1 15/4/1 14/4/1
f 17/2/1 14/2/1 16/2/1
f 18/4/1 13/4/1 15/4/1
f 18/4/1 15/4/1 17/4/1
f 19/2/1 6/2/1 5/2/1
f 19/1/1 7/1/1 6/1/1
f 20/2/1 16/2/1 7/2/1
f 20/1/1 7/1/1 19/1/1
f 21/4/1 17/4/1 16/4/1
f 21/2/1 16/2/1 20/2/1
f 22/1/1 18/1/1 17/1/1
f 22/4/1 17/4/1 21/4/1
f 23/4/1 13/4/1 18/4/1
f 23/1/1 18/1/1 22/1/1
f 24/2/1 8/2/1 13/2/1
f 24/4/1 13/4/1 23/4/1
f 25/1/1 9/1/1 8/1/1
f 25/2/1 8/2/1 24/2/1
f 26/2/1 10/2/1 9/2/1
f 26/1/1 9/1/1 25/1/1
f 27/2/1 20/2/1 19/2/1
f 27/2/1 19/2/1 5/2/1
f 28/4/1 21/4/1 20/4/1
f 28/2/1 20/2/1 27/2/1
f 29/1/1 22/1/1 21/1/1
f 29/4/1 21/4/1 28/4/1
f 30/2/1 23/2/1 22/2/1
f 30/1/1 22/1/1 29/1/1
f 31/1/1 24/1/1 23/1/1
f 31/2/1 23/2/1 30/2/1
f 32/2/1 25/2/1 24/2/1
f 32/1/1 24/1/1 31/1/1
f 32/2/1 26/2/1 25/2/1
f 33/2/1 26/2/1 32/2/1
f 34/2/1 27/2/1 5/2/1
f 35/4/1 28/4/1 27/4/1
f 35/2/1 27/2/1 34/2/1
f 36/1/1 29/1/1 28/1/1
f 36/4/1 28/4/1 35/4/1
f 37/2/1 30/2/1 29/2/1
f 37/1/1 29/1/1 36/1/1
f 38/3/1 31/3/1 30/3/1
f 38/2/1 30/2/1 37/2/1
f 39/2/1 32/2/1 31/2/1
f 39/3/1 31/3/1 38/3/1
f 40/1/1 33/1/1 32/1/1
f 40/2/1 32/2/1 39/2/1
f 41/2/1 26/2/1 33/2/1
f 41/1/1 33/1/1 40/1/1
f 42/2/1 10/2/1 26/2/1
f 42/2/1 26/2/1 41/2/1
f 43/2/1 10/2/1 42/2/1
f 44/1/1 36/1/1 35/1/1
f 45/2/1 37/2/1 36/2/1
f 45/1/1 36/1/1 44/1/1
f 46/3/1 38/3/1 37/3/1
f 46/2/1 37/2/1 45/2/1
f 47/1/1 39/1/1 38/1/1
f 47/3/1 38/3/1 46/3/1
f 48/3/1 40/3/1 39/3/1
f 48/1/1 39/1/1 47/1/1
f 49/2/1 41/2/1 40/2/1
f 49/3/1 40/3/1 48/3/1
f 50/1/1 42/1/1 41/1/1
f 50/2/1 41/2/1 49/2/1
f 51/1/1 42/1/1 50/1/1
f 52/2/2 53/2/2 58/2/2
f 54/2/2 55/2/2 59/2/2
f 53/4/2 54/4/2 62/4/2
f 58/2/2 53/2/2 62/2/2
f 54/2/2 59/2/2 63/2/2
f 62/4/2 54/4/2 63/4/2
f 63/2/2 59/2/2 64/2/2
f 58/2/2 62/2/2 65/2/2
f 62/2/2 63/2/2 65/2/2
f 63/4/2 64/4/2 66/4/2
f 65/2/2 63/2/2 66/2/2
f 58/2/2 65/2/2 67/2/2
f 65/4/2 66/4/2 68/4/2
f 67/2/2 65/2/2 68/2/2
f 66/4/2 64/4/2 69/4/2
f 68/4/2 66/4/2 69/4/2
f 56/2/2 57/2/2 70/2/2
f 57/1/2 58/1/2 70/1/2
f 58/2/2 67/2/2 71/2/2
f 70/1/2 58/1/2 71/1/2
f 67/4/2 68/4/2 72/4/2
f 71/2/2 67/2/2 72/2/2
f 68/1/2 69/1/2 73/1/2
f 72/4/2 68/4/2 73/4/2
f 69/4/2 64/4/2 74/4/2
f 73/1/2 69/1/2 74/1/2
f 64/2/2 59/2/2 75/2/2
f 74/4/2 64/4/2 75/4/2
f 59/1/2 60/1/2 76/1/2
f 75/2/2 59/2/2 76/2/2
f 60/2/2 61/2/2 77/2/2
f 76/1/2 60/1/2 77/1/2
f 70/2/2 71/2/2 78/2/2
f 56/2/2 70/2/2 78/2/2
f 71/4/2 72/4/2 79/4/2
f 78/2/2 71/2/2 79/2/2
f 72/1/2 73/1/2 80/1/2
f 79/4/2 72/4/2 80/4/2
f 73/2/2 74/2/2 81/2/2
f 80/1/2 73/1/2 81/1/2
f 74/1/2 75/1/2 82/1/2
f 81/2/2 74/2/2 82/2/2
f 75/2/2 76/2/2 83/2/2
f 82/1/2 75/1/2 83/1/2
f 76/2/2 77/2/2 83/2/2
f 83/2/2 77/2/2 84/2/2
f 56/2/2 78/2/2 85/2/2
f 78/4/2 79/4/2 86/4/2
f 85/2/2 78/2/2 86/2/2
f 79/1/2 80/1/2 87/1/2
f 86/4/2 79/4/2 87/4/2
f 80/2/2 81/2/2 88/2/2
f 87/1/2 80/1/2 88/1/2
f 81/3/2 82/3/2 89/3/2
f 88/2/2 81/2/2 89/2/2
f 82/2/2 83/2/2 90/2/2
f 89/3/2 82/3/2 90/3/2
f 83/1/2 84/1/2 91/1/2
f 90/2/2 83/2/2 91/2/2
f 84/2/2 77/2/2 92/2/2
f 91/1/2 84/1/2 92/1/2
f 77/2/2 61/2/2 93/2/2
f 92/2/2 77/2/2 93/2/2
f 93/2/2 61/2/2 94/2/2
f 86/1/2 87/1/2 95/1/2
f 87/2/2 88/2/2 96/2/2
f 95/1/2 87/1/2 96/1/2
f 88/3/2 89/3/2 97/3/2
f 96/2/2 88/2/2 97/2/2
f 89/1/2 90/1/2 98/1/2
f 97/3/2 89/3/2 98/3/2
f 90/3/2 91/3/2 99/3/2
f 98/1/2 90/1/2 99/1/2
f 91/2/2 92/2/2 100/2/2
f 99/3/2 91/3/2 100/3/2
f 92/1/2 93/1/2 101/1/2
f 100/2/2 92/2/2 101/2/2
f 101/1/2 93/1/2 102/1/2
f 105/2/3 104/2/3 103/2/3
f 106/2/3 104/2/3 105/2/3
f 109/1/3 108/1/3 107/1/3
f 110/1/3 108/1/3 109/1/3
f 113/2/3 112/2/3 111/2/3
f 114/2/3 112/2/3 113/2/3
f 115/2/4 116/2/4 117/2/4
f 117/2/4 116/2/4 118/2/4
f 119/1/4 120/1/4 121/1/4
f 121/1/4 120/1/4 122/1/4
f 123/2/4 124/2/4 125/2/4
f 125/2/4 124/2/4 126/2/4
f 129/2/5 128/2/5 127/2/5
f 130/2/5 128/2/5 129/2/5
f 131/4/5 130/4/5 129/4/5
f 132/4/5 130/4/5 131/4/5
f 133/2/5 132/2/5 131/2/5
f 134/2/5 132/2/5 133/2/5
f 137/2/5 136/2/5 135/2/5
f 138/2/5 136/2/5 137/2/5
f 139/1/5 138/1/5 137/1/5
f 140/1/5 138/1/5 139/1/5
f 143/1/5 142/1/5 141/1/5
f 144/1/5 142/1/5 143/1/5
f 145/2/5 144/2/5 143/2/5
f 146/2/5 144/2/5 145/2/5
f 147/2/6 148/2/6 149/2/6
f 149/2/6 148/2/6 150/2/6
f 151/2/6 152/2/6 153/2/6
f 153/2/6 152/2/6 154/2/6
f 155/1/6 156/1/6 157/1/6
f 157/1/6 156/1/6 158/1/6
f 157/2/6 158/2/6 159/2/6
f 159/2/6 158/2/6 160/2/6
f 159/3/6 160/3/6 161/3/6
f 161/3/6 160/3/6 162/3/6
f 161/1/6 162/1/6 163/1/6
f 163/1/6 162/1/6 164/1/6
f 163/3/6 164/3/6 165/3/6
f 165/3/6 164/3/6 166/3/6
f 165/2/6 166/2/6 167/2/6
f 167/2/6 166/2/6 168/2/6
f 167/1/6 168/1/6 169/1/6
f 169/1/6 168/1/6 170/1/6
